<?xml version="1.0" standalone="no"?>
<!DOCTYPE svg PUBLIC "-//W3C//DTD SVG 1.1//EN" "http://www.w3.org/Graphics/SVG/1.1/DTD/svg11.dtd" >
<svg>
<metadata>
Created by FontForge 20120731 at Fri May 27 08:30:06 2016
 By Apache
Spaced and kerned with iKern.
</metadata>
<defs>
<font id="MuseoSansRounded-300" horiz-adv-x="565" >
  <font-face 
    font-family="Museo Sans Rounded 300"
    font-weight="300"
    font-stretch="normal"
    units-per-em="1000"
    panose-1="2 0 0 0 0 0 0 0 0 0"
    ascent="750"
    descent="-250"
    x-height="503"
    cap-height="703"
    bbox="-107.502 -214 1088 883"
    underline-thickness="50"
    underline-position="-50"
    stemh="62"
    stemv="68"
    unicode-range="U+0020-FB04"
  />
<missing-glyph horiz-adv-x="529" 
d="M14 25v650c0 16 9 25 25 25h451c16 0 24 -9 24 -25v-650c0 -16 -8 -25 -24 -25h-451c-16 0 -25 9 -25 25zM264 395l170 255h-340zM294 350l170 -255v510zM64 95l170 255l-170 255v-510zM94 50h340l-170 255z" />
    <glyph glyph-name="f_f" unicode="ff" horiz-adv-x="611" 
d="M96 25v421h-40c-16 0 -24 8 -24 24v8c0 16 8 25 24 25h40v19c0 159 118 186 169 186h11c16 0 24 -9 24 -25v-12c0 -17 -9 -23 -27 -24c-43 -2 -109 -14 -109 -126v-18h237v19c0 159 119 186 170 186h10c16 0 25 -9 25 -25v-12c0 -17 -10 -23 -28 -24
c-43 -2 -109 -14 -109 -126v-18h104c16 0 25 -9 25 -25v-8c0 -16 -8 -24 -23 -24h-106v-421c0 -16 -8 -25 -24 -25h-19c-16 0 -25 9 -25 25v421h-237v-421c0 -16 -9 -25 -25 -25h-19c-16 0 -24 9 -24 25z" />
    <glyph glyph-name="fi" unicode="fi" horiz-adv-x="528" 
d="M95 25v421h-40c-16 0 -24 8 -24 24v8c0 16 8 25 24 25h40v19c0 159 119 186 169 186h11c16 0 24 -9 24 -25v-12c0 -17 -9 -23 -27 -24c-43 -2 -109 -14 -109 -126v-18h263c16 0 25 -9 25 -25v-453c0 -16 -9 -25 -25 -25h-19c-15 0 -24 9 -24 25v421h-220v-421
c0 -16 -9 -25 -25 -25h-19c-16 0 -24 9 -24 25zM405 618c-16 0 -25 8 -25 24v36c0 16 9 25 25 25h24c16 0 25 -9 25 -25v-36c0 -16 -9 -24 -25 -24h-24z" />
    <glyph glyph-name="fl" unicode="fl" horiz-adv-x="550" 
d="M383 119v559c0 16 8 25 24 25h19c16 0 25 -9 25 -25v-547c0 -63 30 -70 52 -73c12 -1 21 -7 21 -22v-15c0 -15 -7 -25 -26 -25c-41 0 -115 13 -115 123zM95 25v417h-40c-16 0 -24 8 -24 24v8c0 16 8 25 24 25h40v23c0 159 119 186 169 186h11c16 0 24 -9 24 -25v-12
c0 -17 -9 -23 -27 -24c-43 -2 -109 -14 -109 -126v-22h104c16 0 24 -9 24 -25v-8c0 -16 -8 -24 -24 -24h-104v-417c0 -16 -9 -25 -25 -25h-19c-16 0 -24 9 -24 25z" />
    <glyph glyph-name="f_f_i" unicode="ffi" horiz-adv-x="834" 
d="M95 25l-1 421h-39c-16 0 -24 8 -24 24v8c0 16 8 25 24 25h39l1 19c0 159 119 186 169 186h11c16 0 24 -9 24 -25v-12c0 -17 -9 -23 -27 -24c-43 -2 -109 -14 -109 -126v-18h237v19c0 159 119 186 170 186h10c16 0 25 -9 25 -25v-12c0 -17 -9 -23 -28 -24
c-43 -2 -109 -14 -109 -126v-18h264c16 0 24 -9 24 -25v-453c0 -16 -8 -25 -24 -25h-19c-16 0 -25 9 -25 25v421h-220v-421c0 -16 -8 -25 -24 -25h-19c-16 0 -25 9 -25 25v421h-237v-421c0 -16 -9 -25 -25 -25h-19c-16 0 -24 9 -24 25zM686 642v36c0 16 8 25 24 25h25
c16 0 24 -9 24 -25v-36c0 -16 -8 -24 -24 -24h-25c-16 0 -24 8 -24 24z" />
    <glyph glyph-name="f_f_l" unicode="ffl" horiz-adv-x="856" 
d="M96 25l-1 421h-39c-16 0 -24 8 -24 24v8c0 16 8 25 24 25h39l1 19c0 159 118 186 169 186h11c16 0 24 -9 24 -25v-12c0 -17 -9 -23 -27 -24c-43 -2 -109 -14 -109 -126v-18h237v19c0 159 119 186 170 186h10c16 0 25 -9 25 -25v-12c0 -17 -10 -23 -28 -24
c-43 -2 -109 -14 -109 -126v-18h104c16 0 25 -9 25 -25v-8c0 -16 -8 -24 -23 -24h-106v-421c0 -16 -8 -25 -24 -25h-19c-16 0 -25 9 -25 25v421h-237v-421c0 -16 -9 -25 -25 -25h-19c-16 0 -24 9 -24 25zM690 119v559c0 16 8 25 24 25h19c16 0 25 -9 25 -25v-547
c0 -63 29 -70 52 -73c12 -1 21 -7 21 -22v-15c0 -15 -7 -25 -26 -25c-41 0 -115 13 -115 123z" />
    <glyph glyph-name="f_j" unicode="fj" horiz-adv-x="530" 
d="M96 25v421h-40c-16 0 -24 8 -24 24v8c0 16 8 25 24 25h40v19c0 159 118 186 169 186h11c16 0 24 -9 24 -25v-12c0 -17 -9 -23 -27 -24c-43 -2 -109 -14 -109 -126v-18h264c16 0 24 -9 24 -25v-496c0 -164 -122 -188 -170 -188h-10c-16 0 -24 9 -24 25v11c0 16 8 23 24 24
c44 3 112 17 112 130v462h-220v-421c0 -16 -9 -25 -25 -25h-19c-16 0 -24 9 -24 25zM406 618c-16 0 -25 8 -25 24v36c0 16 9 25 25 25h24c16 0 25 -9 25 -25v-36c0 -16 -9 -24 -25 -24h-24z" />
    <glyph glyph-name=".notdef" horiz-adv-x="529" 
d="M14 25v650c0 16 9 25 25 25h451c16 0 24 -9 24 -25v-650c0 -16 -8 -25 -24 -25h-451c-16 0 -25 9 -25 25zM264 395l170 255h-340zM294 350l170 -255v510zM64 95l170 255l-170 255v-510zM94 50h340l-170 255z" />
    <glyph glyph-name="space" unicode=" " horiz-adv-x="250" 
 />
    <glyph glyph-name="exclam" unicode="!" horiz-adv-x="249" 
d="M117 184c-16 0 -25 9 -25 24l-3 470c0 16 9 25 25 25h21c15 0 24 -9 24 -25l-3 -470c0 -15 -8 -24 -24 -24h-15zM86 25v29c0 16 8 25 24 25h30c16 0 24 -9 24 -25v-29c0 -16 -8 -25 -24 -25h-30c-16 0 -24 9 -24 25z" />
    <glyph glyph-name="quotedbl" unicode="&#x22;" horiz-adv-x="305" 
d="M208 512c-16 0 -24 9 -24 25v152c0 16 8 24 24 24h10c16 0 24 -8 24 -24v-152c0 -16 -8 -25 -24 -25h-10zM87 512c-16 0 -25 9 -25 25v152c0 16 9 24 25 24h10c16 0 24 -8 24 -24v-152c0 -16 -8 -25 -24 -25h-10z" />
    <glyph glyph-name="numbersign" unicode="#" horiz-adv-x="708" 
d="M150 26l30 169h-114c-18 0 -26 10 -23 26l1 8c3 15 11 22 27 22h119l35 196h-115c-17 0 -25 10 -23 26l2 8c2 15 11 22 26 22h119l31 178c3 15 11 22 27 22h11c17 0 26 -10 23 -26l-31 -174h173l31 178c3 15 11 22 27 22h11c17 0 26 -10 23 -26l-31 -174h113
c17 0 26 -10 23 -26l-1 -8c-3 -15 -12 -22 -27 -22h-117l-35 -196h113c17 0 25 -10 22 -26l-1 -8c-2 -14 -11 -22 -27 -22h-117l-30 -173c-2 -15 -11 -22 -27 -22h-11c-17 0 -25 10 -23 26l30 169h-173l-30 -173c-2 -15 -11 -22 -27 -22h-11c-17 0 -25 10 -23 26zM251 251
h173l35 196h-173z" />
    <glyph glyph-name="dollar" unicode="$" horiz-adv-x="523" 
d="M60 62c-12 10 -12 22 -3 34l12 15c10 13 21 13 34 4c27 -22 86 -61 165 -61c77 0 140 46 140 122c0 171 -354 136 -354 350c0 92 73 172 184 186v70c0 16 8 25 24 25h8c16 0 24 -8 24 -23v-70c75 -4 126 -35 149 -53c13 -8 14 -20 6 -34l-9 -16c-8 -14 -20 -15 -34 -6
c-24 17 -71 44 -133 44c-91 0 -148 -59 -148 -121c0 -162 354 -123 354 -350c0 -97 -70 -177 -185 -188v-68c0 -16 -8 -25 -24 -25h-8c-16 0 -24 8 -24 23v70c-91 7 -152 49 -178 72z" />
    <glyph glyph-name="percent" unicode="%" horiz-adv-x="718" 
d="M190 437c-78 0 -141 62 -141 139c0 76 63 139 141 139c77 0 140 -63 140 -139c0 -77 -63 -139 -140 -139zM79 30l501 658c8 11 17 15 30 15h15c21 0 28 -13 15 -30l-501 -658c-8 -11 -17 -15 -30 -15h-16c-20 0 -27 13 -14 30zM190 493c46 0 81 37 81 83
c0 45 -35 83 -81 83s-81 -38 -81 -83c0 -46 35 -83 81 -83zM387 126c0 77 63 140 141 140c77 0 141 -63 141 -140c0 -76 -64 -138 -141 -138c-78 0 -141 62 -141 138zM447 127c0 -46 35 -83 81 -83s81 37 81 83c0 45 -35 83 -81 83s-81 -38 -81 -83z" />
    <glyph glyph-name="ampersand" unicode="&#x26;" horiz-adv-x="637" 
d="M51 194c0 81 46 160 128 185v2s-97 31 -97 156c0 108 82 178 210 178h50c16 0 24 -9 24 -25v-11c0 -16 -8 -25 -24 -25h-49c-81 0 -140 -48 -140 -121c0 -47 20 -127 151 -127h148v75c0 16 9 24 25 24h19c16 0 25 -7 25 -22v-77h71c16 0 24 -8 24 -24v-13
c0 -16 -8 -25 -24 -25h-71v-103c0 -168 -92 -253 -233 -253s-237 89 -237 206zM122 198c0 -80 62 -145 166 -145c99 0 164 55 164 190v101h-148c-122 0 -182 -58 -182 -146z" />
    <glyph glyph-name="quotesingle" unicode="'" horiz-adv-x="181" 
d="M85 545c-16 0 -24 8 -24 24v120c0 16 8 24 24 24h11c16 0 24 -8 24 -24v-120c0 -16 -8 -24 -24 -24h-11z" />
    <glyph glyph-name="parenleft" unicode="(" horiz-adv-x="265" 
d="M160 -80c-64 117 -104 266 -104 417c0 138 37 263 103 376c7 13 16 17 29 17h11c19 0 26 -12 17 -29c-62 -113 -97 -235 -97 -364c0 -139 32 -276 98 -403c8 -17 2 -29 -16 -29h-12c-14 0 -23 4 -29 15z" />
    <glyph glyph-name="parenright" unicode=")" horiz-adv-x="265" 
d="M47 -65c66 126 98 264 98 402c0 129 -35 251 -97 364c-9 17 -3 29 15 29h13c13 0 22 -4 29 -17c66 -113 103 -238 103 -376c0 -151 -39 -298 -103 -415c-7 -12 -16 -17 -30 -17h-11c-19 0 -25 13 -17 30z" />
    <glyph glyph-name="asterisk" unicode="*" horiz-adv-x="477" 
d="M130 352l-12 8c-13 9 -14 22 -4 34l78 101v2l-123 36c-15 4 -21 15 -16 30l4 14c5 16 16 21 31 15l121 -43l-4 129c-2 16 7 25 23 25h18c16 0 25 -9 23 -25l-4 -129l122 43c14 6 26 0 31 -15l4 -14c6 -15 0 -26 -16 -30l-123 -36v-2l78 -100c9 -13 8 -26 -5 -35l-11 -8
c-14 -10 -26 -8 -35 5l-72 106h-2l-71 -105c-10 -13 -21 -16 -35 -6z" />
    <glyph glyph-name="plus" unicode="+" horiz-adv-x="606" 
d="M67 255c-16 0 -25 8 -25 24v9c0 16 9 25 25 25h206v230c0 16 8 25 24 25h13c16 0 24 -9 24 -25v-230h205c16 0 25 -9 25 -25v-9c0 -16 -9 -24 -25 -24h-205v-230c0 -16 -8 -25 -24 -25h-13c-16 0 -24 9 -24 25v230h-206z" />
    <glyph glyph-name="comma" unicode="," horiz-adv-x="230" 
d="M29 -102l54 163c4 15 14 21 29 21h24c19 0 27 -12 19 -29l-67 -163c-6 -14 -15 -19 -29 -19h-9c-18 0 -26 11 -21 27z" />
    <glyph glyph-name="hyphen" unicode="-" horiz-adv-x="423" 
d="M94 253c-16 0 -24 8 -24 24v13c0 16 8 25 24 25h235c16 0 24 -9 24 -25v-13c0 -16 -8 -24 -24 -24h-235z" />
    <glyph glyph-name="period" unicode="." horiz-adv-x="219" 
d="M69 25v34c0 15 8 24 24 24h33c16 0 24 -9 24 -24v-34c0 -16 -8 -25 -24 -25h-33c-16 0 -24 9 -24 25z" />
    <glyph glyph-name="slash" unicode="/" horiz-adv-x="385" 
d="M43 -14l238 736c5 14 14 20 28 20h14c17 0 26 -11 20 -28l-238 -736c-5 -14 -14 -20 -28 -20h-14c-17 0 -26 11 -20 28z" />
    <glyph glyph-name="zero" unicode="0" horiz-adv-x="620" 
d="M310 -12c-183 0 -243 160 -243 364c0 202 60 363 243 363s243 -161 243 -363c0 -204 -60 -364 -243 -364zM310 53c133 0 171 130 171 299c0 167 -38 298 -171 298s-171 -131 -171 -298c0 -169 38 -299 171 -299z" />
    <glyph glyph-name="one" unicode="1" horiz-adv-x="447" 
d="M46 25v12c0 16 9 25 25 25h133v516c0 20 1 39 1 39h-2s-8 -15 -34 -41l-59 -58c-11 -12 -23 -11 -34 0l-9 10c-13 11 -12 23 -1 34l129 128c9 9 18 13 30 13h23c16 0 24 -9 24 -25v-616h130c16 0 25 -9 25 -25v-12c0 -16 -9 -25 -25 -25h-331c-16 0 -25 9 -25 25z" />
    <glyph glyph-name="two" unicode="2" horiz-adv-x="551" 
d="M52 25v20c0 247 360 279 360 469c0 77 -57 135 -146 135c-75 0 -124 -50 -143 -76c-10 -12 -22 -16 -35 -6l-11 9c-12 9 -15 20 -6 33c24 35 88 106 199 106c134 0 215 -87 215 -197c0 -236 -356 -269 -358 -456h344c16 0 25 -9 25 -25v-12c0 -16 -9 -25 -25 -25h-392
c-16 0 -27 9 -27 25z" />
    <glyph glyph-name="three" unicode="3" horiz-adv-x="552" 
d="M53 68c-12 11 -12 22 -2 35l12 15c10 12 21 12 34 2c25 -22 83 -66 161 -66c84 0 161 62 161 152c0 99 -85 150 -177 150h-28c-13 0 -22 5 -27 18l-3 5c-5 12 -3 22 6 33l163 191c18 22 37 39 37 39v2s-20 -3 -57 -3h-239c-16 0 -25 9 -25 25v12c0 16 9 25 25 25h361
c16 0 25 -8 25 -23v-5c0 -13 -3 -22 -11 -31l-199 -229c88 -5 220 -55 220 -207c0 -120 -98 -220 -231 -220c-103 0 -175 54 -206 80z" />
    <glyph glyph-name="four" unicode="4" horiz-adv-x="588" 
d="M51 195c-16 0 -24 8 -24 24v4c0 12 2 21 9 30l326 435c8 10 16 15 30 15h31c16 0 24 -9 24 -25v-423h76c16 0 24 -8 24 -24v-12c0 -16 -7 -24 -22 -24h-78v-170c0 -16 -8 -25 -24 -25h-20c-16 0 -25 9 -25 25v170h-327zM110 255h268v295c0 30 4 67 4 67h-2
s-17 -29 -35 -54l-235 -306v-2z" />
    <glyph glyph-name="five" unicode="5" horiz-adv-x="547" 
d="M62 70c-11 11 -10 24 0 34l12 14c11 11 23 11 34 0c21 -23 66 -64 142 -64c97 0 175 69 175 165s-78 166 -178 166c-52 0 -92 -20 -112 -30c-11 -6 -22 -7 -33 -3l-7 2c-13 5 -19 15 -18 29l33 297c2 15 10 23 26 23h292c16 0 25 -9 25 -25v-12c0 -16 -9 -25 -25 -25
h-255l-20 -180c-3 -25 -7 -40 -7 -40h2s44 27 107 27c141 0 242 -102 242 -229c0 -130 -107 -231 -244 -231c-103 0 -165 55 -191 82z" />
    <glyph glyph-name="six" unicode="6" horiz-adv-x="585" 
d="M60 317c0 178 92 398 309 398c46 0 86 -11 106 -19c16 -6 20 -17 14 -32l-7 -16c-7 -16 -17 -18 -32 -14c-17 7 -45 16 -80 16c-148 0 -222 -146 -235 -284h2c34 50 103 84 181 84c127 0 217 -92 217 -225c0 -146 -98 -237 -221 -237c-153 0 -254 141 -254 329zM135 266
c0 -89 71 -213 178 -213c95 0 152 71 152 170s-63 165 -161 165c-94 0 -169 -63 -169 -122z" />
    <glyph glyph-name="seven" unicode="7" horiz-adv-x="503" 
d="M102 29l270 547c19 38 38 65 38 65v2s-17 -2 -52 -2h-304c-16 0 -25 9 -25 25v12c0 16 9 25 25 25h407c16 0 25 -8 25 -23v-9c0 -12 -2 -20 -7 -31l-310 -622c-6 -12 -15 -18 -29 -18h-20c-19 0 -26 12 -18 29z" />
    <glyph glyph-name="eight" unicode="8" horiz-adv-x="593" 
d="M59 198c0 120 100 185 117 196c-51 33 -89 76 -89 143c0 92 70 178 213 178c130 0 215 -73 215 -181c0 -103 -77 -182 -87 -192c59 -33 103 -78 103 -152c0 -109 -97 -202 -233 -202c-128 0 -239 83 -239 210zM371 369c11 11 75 77 75 158c0 79 -60 125 -146 125
c-91 0 -143 -52 -143 -115c0 -93 112 -123 214 -168zM130 203c0 -92 82 -152 167 -152c82 0 163 58 163 137c0 96 -111 120 -229 175c-20 -14 -101 -67 -101 -160z" />
    <glyph glyph-name="nine" unicode="9" horiz-adv-x="585" 
d="M97 38l7 18c5 15 16 17 31 13c18 -7 45 -16 80 -16c149 0 223 146 235 284h-2c-35 -51 -106 -84 -182 -84c-125 0 -216 93 -216 226c0 146 98 236 221 236c153 0 254 -141 254 -329c0 -177 -92 -398 -309 -398c-46 0 -85 11 -106 19c-16 6 -20 16 -13 31zM282 315
c94 0 168 63 168 122c0 89 -71 213 -178 213c-95 0 -151 -71 -151 -170s62 -165 161 -165z" />
    <glyph glyph-name="colon" unicode=":" horiz-adv-x="219" 
d="M96 423c-16 0 -25 9 -25 25v30c0 16 9 25 25 25h29c16 0 24 -9 24 -25v-30c0 -16 -8 -25 -24 -25h-29zM71 25v30c0 16 9 25 25 25h29c16 0 24 -9 24 -25v-30c0 -16 -8 -25 -24 -25h-29c-16 0 -25 9 -25 25z" />
    <glyph glyph-name="semicolon" unicode=";" horiz-adv-x="270" 
d="M131 420c-16 0 -25 9 -25 24v34c0 16 9 25 25 25h31c16 0 25 -9 25 -25v-34c0 -15 -9 -24 -25 -24h-31zM59 -102l46 163c3 14 13 21 28 21h25c18 0 25 -12 19 -29l-59 -163c-5 -13 -14 -19 -29 -19h-9c-18 0 -25 11 -21 27z" />
    <glyph glyph-name="less" unicode="&#x3c;" horiz-adv-x="606" 
d="M80 250c-13 6 -19 15 -19 29v10c0 14 6 23 19 28l405 181c17 8 28 0 28 -18v-16c0 -14 -6 -23 -19 -28l-348 -151v-2l348 -151c13 -5 19 -14 19 -28v-16c0 -19 -11 -26 -28 -19z" />
    <glyph glyph-name="equal" unicode="=" horiz-adv-x="606" 
d="M95 342c-16 0 -25 8 -25 24v9c0 16 9 25 25 25h416c16 0 25 -9 25 -25v-9c0 -16 -9 -24 -25 -24h-416zM95 168c-16 0 -25 8 -25 24v9c0 16 9 25 25 25h416c16 0 25 -9 25 -25v-9c0 -16 -9 -24 -25 -24h-416z" />
    <glyph glyph-name="greater" unicode="&#x3e;" horiz-adv-x="606" 
d="M93 88v16c0 14 6 23 19 28l348 151v2l-348 151c-13 5 -19 14 -19 28v16c0 18 11 26 28 18l405 -181c13 -5 19 -14 19 -28v-10c0 -14 -6 -23 -19 -29l-405 -180c-17 -8 -28 0 -28 18z" />
    <glyph glyph-name="question" unicode="?" horiz-adv-x="444" 
d="M171 184c-16 0 -25 9 -25 25v23c0 153 175 172 175 304c0 64 -54 115 -131 115c-44 0 -81 -17 -101 -29c-13 -7 -26 -7 -34 6l-8 12c-10 13 -9 25 5 34c24 16 75 42 141 42c114 0 200 -73 200 -177c0 -163 -175 -180 -179 -310l-1 -24c-1 -14 -8 -21 -23 -21h-19zM141 25
v29c0 16 8 25 24 25h30c16 0 24 -9 24 -25v-29c0 -16 -8 -25 -24 -25h-30c-16 0 -24 9 -24 25z" />
    <glyph glyph-name="at" unicode="@" horiz-adv-x="777" 
d="M57 242c0 204 159 367 356 367c181 0 245 -92 245 -189v-315h46c16 0 24 -9 24 -25v-6c0 -16 -8 -25 -24 -25h-244c-116 0 -200 88 -200 192c0 103 84 192 200 192h130c-3 62 -54 118 -172 118c-164 0 -291 -141 -291 -309c0 -162 114 -294 272 -305c15 -2 24 -10 24 -25
v-11c0 -16 -9 -25 -25 -24c-195 12 -341 169 -341 365zM330 242c0 -76 59 -137 136 -137h124v275h-122c-79 0 -138 -63 -138 -138z" />
    <glyph glyph-name="A" unicode="A" horiz-adv-x="609" 
d="M19 29l242 654c4 14 14 20 27 20h33c13 0 23 -6 27 -20l242 -654c5 -18 -2 -29 -20 -29h-22c-14 0 -24 6 -28 20l-75 204h-282l-74 -204c-4 -14 -14 -20 -28 -20h-21c-19 0 -26 11 -21 29zM183 284h242l-93 255c-11 33 -26 92 -26 92h-2s-16 -59 -27 -92z" />
    <glyph glyph-name="B" unicode="B" horiz-adv-x="611" 
d="M98 25v653c0 16 8 25 24 25h216c111 0 191 -67 191 -177c0 -73 -36 -126 -90 -153v-2c72 -20 118 -89 118 -174c0 -125 -93 -197 -211 -197h-224c-16 0 -24 9 -24 25zM167 398h171c71 0 119 50 119 123c0 72 -45 120 -120 120h-170v-243zM167 62h180c85 0 138 53 138 137
s-57 139 -139 139h-179v-276z" />
    <glyph glyph-name="C" unicode="C" horiz-adv-x="710" 
d="M51 356c0 204 146 359 353 359c125 0 204 -50 236 -75c12 -10 12 -22 4 -35l-9 -13c-9 -12 -21 -13 -34 -4c-30 21 -98 62 -195 62c-171 0 -283 -128 -283 -293c0 -167 112 -304 286 -304c105 0 178 51 209 76c12 10 24 10 34 -3l9 -11c10 -12 9 -24 -2 -35
c-33 -28 -120 -92 -252 -92c-214 0 -356 163 -356 368z" />
    <glyph glyph-name="D" unicode="D" horiz-adv-x="731" 
d="M98 25v653c0 16 8 25 24 25h203c211 0 353 -129 353 -351c0 -224 -142 -352 -353 -352h-203c-16 0 -24 9 -24 25zM167 62h151c173 0 288 101 288 290c0 187 -116 289 -288 289h-151v-579z" />
    <glyph glyph-name="E" unicode="E" horiz-adv-x="553" 
d="M98 25v653c0 16 8 25 24 25h347c16 0 25 -9 25 -25v-12c0 -16 -9 -25 -25 -25h-302v-256h242c16 0 25 -8 25 -24v-13c0 -16 -9 -25 -25 -25h-242v-261h320c16 0 25 -9 25 -25v-12c0 -16 -9 -25 -25 -25h-365c-16 0 -24 9 -24 25z" />
    <glyph glyph-name="F" unicode="F" horiz-adv-x="498" 
d="M98 25v653c0 16 8 25 24 25h321c16 0 25 -9 25 -25v-12c0 -16 -9 -25 -25 -25h-276v-264h234c16 0 24 -8 24 -24v-13c0 -16 -8 -25 -24 -25h-234v-290c0 -16 -9 -25 -24 -25h-21c-16 0 -24 9 -24 25z" />
    <glyph glyph-name="G" unicode="G" horiz-adv-x="748" 
d="M51 351c0 205 152 364 355 364c120 0 201 -46 231 -67c13 -10 14 -22 4 -34l-9 -13c-9 -13 -21 -15 -34 -6c-30 19 -96 55 -190 55c-170 0 -285 -131 -285 -297c0 -172 119 -300 279 -300c141 0 222 103 222 103v118h-96c-16 0 -24 9 -24 25v12c0 16 8 25 24 25h137
c16 0 24 -9 24 -25v-286c0 -16 -8 -25 -24 -25h-14c-16 0 -25 9 -25 22v36c0 13 1 26 1 26h-2s-80 -96 -229 -96c-193 0 -345 155 -345 363z" />
    <glyph glyph-name="H" unicode="H" horiz-adv-x="742" 
d="M98 25v653c0 16 8 25 24 25h21c15 0 24 -9 24 -25v-295h408v295c0 16 8 25 24 25h20c16 0 25 -9 25 -25v-653c0 -16 -9 -25 -25 -25h-20c-16 0 -24 9 -24 25v296h-408v-296c0 -16 -9 -25 -24 -25h-21c-16 0 -24 9 -24 25z" />
    <glyph glyph-name="I" unicode="I" horiz-adv-x="265" 
d="M98 25v653c0 16 8 25 24 25h21c15 0 24 -9 24 -25v-653c0 -16 -9 -25 -24 -25h-21c-16 0 -24 9 -24 25z" />
    <glyph glyph-name="J" unicode="J" horiz-adv-x="510" 
d="M26 201c0 17 8 24 24 24h22c16 0 21 -6 23 -27c4 -83 40 -145 128 -145c64 0 128 36 128 144v444h-147c-16 0 -24 9 -24 25v12c0 16 8 25 24 25h192c16 0 25 -9 25 -25v-481c0 -152 -101 -209 -198 -209s-197 58 -197 213z" />
    <glyph glyph-name="K" unicode="K" horiz-adv-x="583" 
d="M98 25v653c0 16 8 25 24 25h21c15 0 24 -9 24 -25v-280h119l179 288c7 12 16 17 29 17h25c20 0 27 -13 17 -30l-192 -302v-2l206 -340c11 -16 3 -29 -16 -29h-28c-13 0 -22 5 -29 17l-191 319h-119v-311c0 -16 -9 -25 -24 -25h-21c-16 0 -24 9 -24 25z" />
    <glyph glyph-name="L" unicode="L" horiz-adv-x="499" 
d="M98 25v653c0 16 8 25 24 25h21c15 0 24 -9 24 -25v-616h301c16 0 25 -9 25 -25v-12c0 -16 -9 -25 -25 -25h-346c-16 0 -24 9 -24 25z" />
    <glyph glyph-name="M" unicode="M" horiz-adv-x="837" 
d="M73 26l53 654c1 15 10 23 25 23h27c15 0 24 -6 29 -19l176 -394c16 -36 35 -86 35 -86h2s18 50 34 86l176 394c6 13 14 19 29 19h27c15 0 24 -8 25 -23l53 -654c1 -17 -7 -26 -24 -26h-20c-15 0 -24 8 -25 23l-37 469c-3 38 -3 98 -3 98h-2s-20 -62 -36 -98l-158 -342
c-5 -13 -14 -19 -28 -19h-24c-15 0 -24 6 -29 19l-157 342c-15 35 -37 100 -37 100h-2s0 -62 -3 -100l-37 -469c-1 -15 -10 -23 -25 -23h-20c-17 0 -25 9 -24 26z" />
    <glyph glyph-name="N" unicode="N" horiz-adv-x="745" 
d="M98 25v653c0 16 8 25 24 25h24c13 0 22 -5 30 -16l348 -490c24 -35 58 -95 58 -95h2s-6 58 -6 95v481c0 16 9 25 25 25h20c16 0 24 -9 24 -25v-653c0 -16 -8 -25 -24 -25h-24c-13 0 -22 5 -29 16l-349 490c-24 35 -58 95 -58 95h-2s6 -58 6 -95v-481
c0 -16 -9 -25 -24 -25h-21c-16 0 -24 9 -24 25z" />
    <glyph glyph-name="O" unicode="O" horiz-adv-x="817" 
d="M50 356c0 202 153 359 358 359c206 0 358 -157 358 -359c0 -206 -152 -368 -358 -368c-205 0 -358 162 -358 368zM122 356c0 -171 122 -303 286 -303c165 0 286 132 286 303c0 167 -121 294 -286 294c-164 0 -286 -127 -286 -294z" />
    <glyph glyph-name="P" unicode="P" horiz-adv-x="589" 
d="M98 25v653c0 16 8 25 24 25h219c126 0 217 -82 217 -212c0 -131 -91 -215 -217 -215h-174v-251c0 -16 -9 -25 -24 -25h-21c-16 0 -24 9 -24 25zM167 338h165c94 0 155 57 155 153c0 95 -61 150 -154 150h-166v-303z" />
    <glyph glyph-name="Q" unicode="Q" horiz-adv-x="817" 
d="M51 356c0 202 153 359 357 359c208 0 359 -157 359 -359c0 -93 -32 -179 -88 -242l69 -70c12 -11 13 -23 1 -35l-8 -8c-11 -11 -23 -12 -33 -1l-70 71c-62 -53 -141 -83 -230 -83c-206 0 -357 163 -357 368zM123 356c0 -170 124 -303 285 -303c66 0 133 23 182 65l-69 71
c-12 11 -12 23 -1 34l8 8c11 12 23 13 34 2l68 -71c41 51 65 121 65 194c0 168 -124 294 -287 294c-161 0 -285 -126 -285 -294z" />
    <glyph glyph-name="R" unicode="R" horiz-adv-x="609" 
d="M98 25v653c0 16 8 25 24 25h190c66 0 100 -7 128 -20c63 -30 104 -91 104 -176c0 -95 -54 -172 -133 -194v-2s7 -9 18 -28l137 -254c9 -17 2 -29 -17 -29h-26c-14 0 -23 6 -29 17l-150 279h-177v-271c0 -16 -9 -25 -24 -25h-21c-16 0 -24 9 -24 25zM167 358h167
c85 0 139 59 139 147c0 56 -27 102 -74 123c-20 9 -41 13 -92 13h-140v-283z" />
    <glyph glyph-name="S" unicode="S" horiz-adv-x="526" 
d="M59 62c-10 10 -13 21 -3 35l12 15c10 12 21 13 35 3c24 -20 83 -61 162 -61c84 0 143 47 143 120c0 177 -350 135 -350 353c0 115 97 188 220 188c84 0 145 -35 171 -55c12 -9 14 -20 6 -33l-9 -16c-9 -15 -22 -15 -35 -7c-25 17 -71 45 -135 45
c-80 0 -147 -44 -147 -118c0 -169 350 -124 350 -350c0 -108 -80 -193 -214 -193c-103 0 -177 50 -206 74z" />
    <glyph glyph-name="T" unicode="T" horiz-adv-x="586" 
d="M258 25v616h-227c-16 0 -25 9 -25 25v12c0 16 9 25 25 25h524c16 0 25 -9 25 -25v-12c0 -16 -9 -25 -25 -25h-228v-616c0 -16 -8 -25 -24 -25h-20c-16 0 -25 9 -25 25z" />
    <glyph glyph-name="U" unicode="U" horiz-adv-x="715" 
d="M88 245v433c0 16 9 25 25 25h20c16 0 25 -9 25 -25v-432c0 -121 78 -193 199 -193s200 72 200 195v430c0 16 9 25 25 25h20c16 0 24 -9 24 -25v-433c0 -156 -109 -257 -268 -257c-160 0 -270 101 -270 257z" />
    <glyph glyph-name="V" unicode="V" horiz-adv-x="610" 
d="M261 20l-243 654c-6 18 1 29 20 29h23c14 0 24 -6 28 -20l187 -514c13 -36 27 -91 27 -91h2s15 55 27 91l189 514c4 14 14 20 27 20h24c18 0 25 -11 20 -29l-243 -654c-5 -14 -14 -20 -28 -20h-33c-13 0 -23 6 -27 20z" />
    <glyph glyph-name="W" unicode="W" horiz-adv-x="930" 
d="M213 22l-170 654c-4 17 4 27 22 27h22c14 0 23 -7 27 -22l131 -524c9 -36 16 -75 16 -75h2s7 39 17 75l145 525c4 14 13 21 27 21h23c15 0 23 -7 27 -21l144 -525c11 -36 18 -75 18 -75h2s6 39 15 75l137 524c4 15 13 22 27 22h22c17 0 26 -10 21 -27l-174 -655
c-4 -14 -13 -21 -28 -21h-38c-15 0 -24 7 -28 21l-130 474c-13 45 -25 105 -25 105h-3s-12 -60 -25 -105l-131 -474c-4 -14 -13 -21 -27 -21h-39c-15 0 -23 7 -27 22z" />
    <glyph glyph-name="X" unicode="X" horiz-adv-x="566" 
d="M32 29l206 338l-186 307c-11 16 -3 29 17 29h27c13 0 22 -6 29 -17l113 -191c21 -36 46 -81 46 -81h2s21 45 43 81l114 191c7 12 16 17 29 17h27c20 0 28 -13 17 -29l-188 -307l206 -338c12 -16 4 -29 -16 -29h-25c-14 0 -22 5 -29 17l-137 226c-21 37 -44 78 -44 78h-2
s-21 -42 -43 -79l-135 -225c-7 -12 -15 -17 -29 -17h-25c-20 0 -27 13 -17 29z" />
    <glyph glyph-name="Y" unicode="Y" horiz-adv-x="554" 
d="M243 25v277l-221 372c-10 16 -3 29 17 29h25c14 0 23 -6 29 -17l140 -238c21 -37 43 -84 43 -84h2s22 47 43 84l140 238c6 11 15 17 28 17h26c19 0 27 -13 17 -29l-220 -372v-277c0 -16 -9 -25 -25 -25h-20c-16 0 -24 9 -24 25z" />
    <glyph glyph-name="Z" unicode="Z" horiz-adv-x="575" 
d="M33 25v7c0 13 3 21 10 31l354 514c25 38 49 64 49 64v2s-17 -2 -52 -2h-317c-16 0 -24 9 -24 25v12c0 16 8 25 24 25h430c16 0 25 -9 25 -24v-8c0 -12 -3 -21 -10 -31l-354 -514c-25 -38 -49 -64 -49 -64v-2s17 2 52 2h340c16 0 24 -9 24 -25v-12c0 -16 -8 -25 -24 -25
h-453c-16 0 -25 9 -25 25z" />
    <glyph glyph-name="bracketleft" unicode="[" horiz-adv-x="267" 
d="M87 -70v775c0 16 8 25 24 25h87c15 0 24 -9 24 -25v-6c0 -16 -8 -25 -24 -25h-48v-713h48c15 0 24 -9 24 -25v-6c0 -16 -9 -25 -24 -25h-87c-16 0 -24 9 -24 25z" />
    <glyph glyph-name="backslash" unicode="\" horiz-adv-x="385" 
d="M280 -22l-238 736c-5 17 3 28 21 28h13c14 0 23 -6 28 -20l238 -736c6 -17 -3 -28 -20 -28h-13c-15 0 -24 6 -29 20z" />
    <glyph glyph-name="bracketright" unicode="]" horiz-adv-x="267" 
d="M45 -64c0 16 9 25 25 25h47v713h-47c-16 0 -25 9 -25 25v6c0 16 9 25 25 25h86c16 0 24 -9 24 -25v-775c0 -16 -8 -25 -24 -25h-86c-16 0 -25 9 -25 25v6z" />
    <glyph glyph-name="asciicircum" unicode="^" horiz-adv-x="606" 
d="M105 250c-19 0 -26 11 -19 29l177 405c6 13 14 19 29 19h6c14 0 23 -6 29 -19l177 -405c7 -18 0 -29 -19 -29h-14c-14 0 -23 6 -28 19l-148 351l-148 -351c-6 -13 -14 -19 -29 -19h-13z" />
    <glyph glyph-name="underscore" unicode="_" horiz-adv-x="538" 
d="M11 -25c0 16 8 25 24 25h467c16 0 25 -9 25 -25v-8c0 -16 -9 -25 -25 -25h-467c-16 0 -24 9 -24 25v8z" />
    <glyph glyph-name="grave" unicode="`" horiz-adv-x="504" 
d="M283 752c-13 0 -22 5 -30 16l-53 73c-12 17 -7 30 14 30h23c14 0 22 -5 29 -17l44 -74c9 -15 5 -28 -13 -28h-14z" />
    <glyph glyph-name="a" unicode="a" horiz-adv-x="508" 
d="M34 135c0 164 210 173 307 173h29v16c0 97 -53 130 -124 130c-56 0 -99 -21 -122 -35c-14 -7 -25 -5 -34 8l-6 10c-8 13 -6 26 7 34c26 16 82 44 160 44c120 0 187 -67 187 -193v-297c0 -16 -8 -25 -24 -25h-16c-16 0 -25 8 -25 25v40c0 23 3 38 3 38h-2
c1 0 -45 -115 -170 -115c-85 0 -170 50 -170 147zM104 141c0 -47 37 -96 112 -96c97 0 154 100 154 188v24h-28c-79 0 -238 -3 -238 -116z" />
    <glyph glyph-name="b" unicode="b" horiz-adv-x="581" 
d="M78 25v653c0 16 8 25 24 25h19c16 0 25 -9 25 -25v-225c0 -23 -4 -41 -4 -41h2s44 103 173 103c135 0 219 -108 219 -263c0 -160 -95 -264 -227 -264c-122 0 -168 105 -168 105h-2s4 -15 4 -37v-33c0 -14 -9 -23 -25 -23h-16c-16 0 -24 9 -24 25zM144 251
c0 -103 52 -202 159 -202c90 0 163 74 163 202c0 123 -66 202 -159 202c-84 0 -163 -60 -163 -202z" />
    <glyph glyph-name="c" unicode="c" horiz-adv-x="532" 
d="M43 251c0 155 115 264 264 264c86 0 142 -37 167 -57c12 -9 13 -21 3 -34l-7 -11c-9 -14 -20 -14 -34 -5c-22 17 -66 46 -127 46c-110 0 -196 -83 -196 -203c0 -119 86 -202 197 -202c70 0 118 33 142 53c13 10 24 8 33 -6l7 -10c8 -13 5 -24 -6 -34
c-26 -21 -86 -64 -179 -64c-150 0 -264 107 -264 263z" />
    <glyph glyph-name="d" unicode="d" horiz-adv-x="581" 
d="M45 252c0 159 94 263 226 263c122 0 165 -101 165 -101h2s-3 17 -3 38v226c0 16 9 25 25 25h19c16 0 24 -9 24 -25v-653c0 -16 -8 -25 -24 -25h-17c-16 0 -25 8 -25 24v38c0 18 4 31 4 31h-2s-43 -105 -175 -105c-135 0 -219 108 -219 264zM115 252
c0 -124 65 -203 159 -203c84 0 163 60 163 203c0 102 -52 201 -160 201c-89 0 -162 -74 -162 -201z" />
    <glyph glyph-name="e" unicode="e" horiz-adv-x="544" 
d="M44 251c0 165 112 264 248 264c134 0 210 -97 210 -240c0 -14 -11 -25 -26 -25h-362c3 -128 91 -201 195 -201c63 0 109 28 132 46c14 9 25 7 33 -6l8 -12c7 -12 5 -24 -7 -33c-27 -20 -87 -56 -168 -56c-150 0 -263 108 -263 263zM117 301h316c-4 106 -68 158 -143 158
c-84 0 -157 -56 -173 -158z" />
    <glyph glyph-name="f" unicode="f" horiz-adv-x="305" 
d="M95 25v417h-40c-16 0 -24 8 -24 24v8c0 16 8 25 24 25h40v23c0 159 119 186 169 186h11c16 0 24 -9 24 -25v-12c0 -17 -9 -23 -27 -24c-43 -2 -109 -14 -109 -126v-22h104c16 0 24 -9 24 -25v-8c0 -16 -8 -24 -24 -24h-104v-417c0 -16 -9 -25 -25 -25h-19
c-16 0 -24 9 -24 25z" />
    <glyph glyph-name="g" unicode="g" horiz-adv-x="574" 
d="M107 -134c7 13 16 17 32 11c22 -10 61 -26 117 -26c93 0 173 46 173 158v52c0 19 3 36 3 36h-2c-30 -57 -81 -94 -160 -94c-135 0 -224 106 -224 261c0 148 82 251 222 251c130 0 164 -92 164 -92h2s-2 7 -2 17v41c0 13 8 22 24 22h16c16 0 25 -9 25 -25v-466
c0 -160 -119 -222 -239 -222c-52 0 -103 11 -145 30c-15 7 -19 17 -12 32zM280 64c80 0 150 49 150 195c0 149 -72 195 -156 195c-102 0 -158 -72 -158 -188c0 -126 65 -202 164 -202z" />
    <glyph glyph-name="h" unicode="h" horiz-adv-x="585" 
d="M78 25v653c0 16 8 25 24 25h19c16 0 25 -9 25 -25v-251c0 -23 -4 -41 -4 -41h2c19 47 87 129 201 129c125 0 169 -71 169 -195v-295c0 -16 -8 -25 -24 -25h-19c-16 0 -25 9 -25 25v277c0 79 -12 149 -110 149c-106 0 -190 -87 -190 -208v-218c0 -16 -9 -25 -25 -25h-19
c-16 0 -24 9 -24 25z" />
    <glyph glyph-name="i" unicode="i" horiz-adv-x="223" 
d="M99 618c-16 0 -24 8 -24 24v36c0 16 8 25 24 25h25c16 0 24 -9 24 -25v-36c0 -16 -8 -24 -24 -24h-25zM77 25v453c0 16 9 25 25 25h19c16 0 24 -9 24 -25v-453c0 -16 -8 -25 -24 -25h-19c-16 0 -25 9 -25 25z" />
    <glyph glyph-name="j" unicode="j" horiz-adv-x="223" 
d="M99 618c-16 0 -24 8 -24 24v36c0 16 8 25 24 25h25c16 0 24 -9 24 -25v-36c0 -16 -8 -24 -24 -24h-25zM78 -16v494c0 16 8 25 24 25h19c16 0 25 -9 25 -25v-496c0 -164 -122 -188 -170 -188h-10c-16 0 -25 9 -25 25v11c0 17 10 23 25 24c43 3 112 17 112 130z" />
    <glyph glyph-name="k" unicode="k" horiz-adv-x="486" 
d="M78 25v653c0 16 8 25 24 25h19c16 0 25 -9 25 -25v-367h81l139 177c8 10 17 15 30 15h25c20 0 27 -14 14 -30l-152 -189v-2l174 -252c11 -17 4 -30 -17 -30h-26c-14 0 -22 5 -29 17l-157 234h-82v-226c0 -16 -9 -25 -25 -25h-19c-16 0 -24 9 -24 25z" />
    <glyph glyph-name="l" unicode="l" horiz-adv-x="244" 
d="M78 119v559c0 16 8 25 24 25h19c16 0 25 -9 25 -25v-547c0 -63 30 -70 52 -73c12 -1 21 -7 21 -22v-15c0 -15 -7 -25 -26 -25c-41 0 -115 13 -115 123z" />
    <glyph glyph-name="m" unicode="m" horiz-adv-x="906" 
d="M77 25v453c0 16 9 25 25 25h18c15 0 24 -9 24 -25v-58c0 -20 -4 -36 -4 -36h2c25 68 106 131 185 131c93 0 141 -43 155 -126h2c28 64 101 126 185 126c122 0 167 -71 167 -195v-295c0 -16 -9 -25 -25 -25h-18c-16 0 -25 9 -25 25v278c0 82 -17 150 -108 150
c-101 0 -169 -106 -169 -210v-218c0 -16 -8 -25 -24 -25h-19c-16 0 -25 9 -25 25v278c0 76 -11 150 -106 150c-102 0 -172 -108 -172 -210v-218c0 -16 -8 -25 -24 -25h-19c-16 0 -25 9 -25 25z" />
    <glyph glyph-name="n" unicode="n" horiz-adv-x="584" 
d="M77 25v453c0 16 9 25 25 25h18c15 0 24 -9 24 -25v-58c0 -20 -4 -36 -4 -36h2c19 46 85 131 203 131c125 0 169 -71 169 -195v-295c0 -16 -9 -25 -25 -25h-19c-16 0 -24 9 -24 25v277c0 79 -13 149 -110 149c-107 0 -191 -88 -191 -205v-221c0 -16 -8 -25 -24 -25h-19
c-16 0 -25 9 -25 25z" />
    <glyph glyph-name="o" unicode="o" horiz-adv-x="615" 
d="M42 254c0 149 119 261 265 261c147 0 266 -112 266 -261c0 -152 -119 -266 -265 -266c-147 0 -266 114 -266 266zM112 254c0 -117 88 -205 196 -205c107 0 195 88 195 205c0 114 -88 200 -195 200c-108 0 -196 -86 -196 -200z" />
    <glyph glyph-name="p" unicode="p" horiz-adv-x="581" 
d="M78 -175v653c0 16 8 25 24 25h16c16 0 24 -9 24 -23v-36c0 -20 -3 -34 -3 -34h2s43 105 176 105c135 0 219 -108 219 -264c0 -159 -95 -263 -226 -263c-122 0 -166 102 -166 102h-2s4 -18 4 -44v-221c0 -16 -9 -25 -25 -25h-19c-16 0 -24 9 -24 25zM144 250
c0 -101 56 -201 159 -201c90 0 163 74 163 202c0 123 -66 202 -159 202c-84 0 -163 -60 -163 -203z" />
    <glyph glyph-name="q" unicode="q" horiz-adv-x="581" 
d="M45 252c0 159 94 263 227 263c123 0 167 -103 167 -103h2s-3 14 -3 34v35c0 13 9 22 25 22h16c16 0 24 -9 24 -25v-653c0 -16 -8 -25 -24 -25h-19c-16 0 -25 9 -25 25v223c0 26 4 44 4 44h-2s-42 -104 -174 -104c-134 0 -218 108 -218 264zM115 252
c0 -124 65 -203 159 -203c84 0 163 60 163 203c0 102 -52 201 -160 201c-89 0 -162 -74 -162 -201z" />
    <glyph glyph-name="r" unicode="r" horiz-adv-x="338" 
d="M77 25v453c0 16 9 25 25 25h18c15 0 24 -9 24 -25v-68c0 -22 -4 -40 -4 -40h2c24 73 82 136 162 136c18 0 26 -8 26 -24v-18c0 -16 -11 -25 -28 -25c-106 0 -157 -121 -157 -226v-188c0 -16 -8 -25 -24 -25h-19c-16 0 -25 9 -25 25z" />
    <glyph glyph-name="s" unicode="s" horiz-adv-x="431" 
d="M50 46c-12 9 -13 21 -4 34l8 10c9 12 20 13 34 4c22 -17 68 -46 133 -46c56 0 102 28 102 81c0 113 -269 79 -269 245c0 93 79 141 171 141c72 0 117 -26 138 -41c13 -8 15 -20 7 -33l-7 -11c-8 -14 -20 -15 -34 -7c-19 13 -55 32 -108 32s-99 -23 -99 -78
c0 -116 268 -79 268 -247c0 -83 -70 -142 -170 -142c-88 0 -145 37 -170 58z" />
    <glyph glyph-name="t" unicode="t" horiz-adv-x="320" 
d="M97 181v261h-42c-16 0 -24 8 -24 24v8c0 16 8 25 24 25h43v118c0 16 9 25 25 25h18c16 0 24 -9 24 -25v-118h102c16 0 25 -9 25 -25v-8c0 -16 -9 -24 -25 -24h-102v-252c0 -116 71 -130 110 -132c20 -2 27 -8 27 -25v-13c0 -16 -8 -24 -28 -24c-110 0 -177 67 -177 185z
" />
    <glyph glyph-name="u" unicode="u" horiz-adv-x="580" 
d="M71 183v295c0 16 8 25 24 25h19c16 0 25 -9 25 -25v-277c0 -79 12 -149 109 -149c115 0 186 101 186 210v216c0 16 9 25 25 25h19c16 0 24 -9 24 -25v-453c0 -16 -8 -25 -24 -25h-18c-16 0 -24 9 -24 25v58c0 20 3 36 3 36h-2c-19 -49 -87 -131 -198 -131
c-119 0 -168 64 -168 195z" />
    <glyph glyph-name="v" unicode="v" horiz-adv-x="478" 
d="M195 19l-175 455c-7 18 1 29 19 29h22c13 0 23 -6 27 -20l133 -349c9 -25 17 -61 17 -61h2s8 35 18 61l132 349c4 14 14 20 27 20h21c19 0 26 -11 20 -29l-175 -455c-4 -13 -14 -19 -27 -19h-33c-14 0 -23 6 -28 19z" />
    <glyph glyph-name="w" unicode="w" horiz-adv-x="796" 
d="M177 21l-154 454c-5 17 3 28 21 28h21c14 0 24 -6 28 -21l115 -354c8 -24 15 -54 15 -54h2s8 30 16 54l117 353c4 14 14 20 28 20h24c14 0 24 -6 28 -20l117 -353c8 -24 16 -54 16 -54h2s6 29 15 54l115 354c4 15 14 21 28 21h21c18 0 25 -11 20 -28l-154 -454
c-4 -15 -14 -21 -28 -21h-31c-15 0 -24 6 -28 21l-117 337c-8 25 -15 54 -15 54h-2s-7 -29 -16 -54l-116 -337c-4 -15 -13 -21 -28 -21h-31c-15 0 -24 6 -29 21z" />
    <glyph glyph-name="x" unicode="x" horiz-adv-x="468" 
d="M33 30l157 232l-142 211c-11 17 -4 30 16 30h25c13 0 22 -5 28 -17l99 -152c8 -13 17 -29 17 -29h2s9 16 17 29l98 152c7 12 16 17 29 17h25c20 0 27 -13 16 -30l-143 -211l157 -232c11 -17 4 -30 -16 -30h-24c-14 0 -22 5 -29 17l-113 172c-9 13 -17 28 -17 28h-2
s-8 -14 -17 -28l-113 -172c-7 -12 -16 -17 -29 -17h-24c-21 0 -28 13 -17 30z" />
    <glyph glyph-name="y" unicode="y" horiz-adv-x="491" 
d="M17 -149c7 13 18 16 30 12c11 -5 26 -13 44 -13c45 0 75 39 94 83l30 71l-198 470c-7 17 1 29 19 29h23c15 0 23 -6 28 -19l141 -348c9 -25 18 -53 18 -53h2s7 28 17 53l138 347c5 14 13 20 28 20h22c18 0 26 -11 20 -29l-237 -576c-26 -65 -78 -108 -145 -108
c-29 0 -53 10 -69 18c-13 6 -17 20 -11 32z" />
    <glyph glyph-name="z" unicode="z" horiz-adv-x="491" 
d="M34 22v7c0 12 3 20 10 29l270 339c20 25 40 46 40 46v2s-17 -2 -50 -2h-234c-16 0 -24 9 -24 24v11c0 16 8 25 24 25h352c16 0 24 -8 24 -22v-7c0 -12 -3 -20 -10 -29l-271 -339c-19 -25 -41 -46 -41 -46v-2s18 2 51 2h257c16 0 24 -9 24 -24v-11c0 -16 -8 -25 -24 -25
h-374c-16 0 -24 8 -24 22z" />
    <glyph glyph-name="braceleft" unicode="{" horiz-adv-x="307" 
d="M115 83v95c0 72 -41 98 -65 108c-12 7 -20 13 -20 27v20c0 14 8 20 20 27c24 9 65 36 65 109v82c0 159 99 179 132 179h8c16 0 24 -8 24 -24v-9c0 -16 -8 -25 -24 -25c-21 0 -77 -9 -77 -125v-96c0 -98 -80 -127 -80 -127v-2s80 -25 80 -127v-109c0 -116 56 -125 77 -125
c16 0 24 -9 24 -24v-9c0 -16 -8 -25 -24 -25h-8c-33 0 -132 20 -132 180z" />
    <glyph glyph-name="bar" unicode="|" horiz-adv-x="234" 
d="M86 -132v896c0 16 8 24 24 24h14c16 0 25 -8 25 -24v-896c0 -16 -9 -25 -25 -25h-14c-16 0 -24 9 -24 25z" />
    <glyph glyph-name="braceright" unicode="}" horiz-adv-x="308" 
d="M28 -63c0 15 9 24 25 24c20 0 76 9 76 125v109c0 102 80 127 80 127v2s-80 29 -80 127v96c0 116 -56 125 -76 125c-16 0 -25 9 -25 25v9c0 16 9 24 25 24h7c34 0 132 -20 132 -179v-82c0 -73 41 -100 66 -109c12 -7 19 -13 19 -27v-20c0 -14 -7 -20 -20 -27
c-24 -10 -65 -36 -65 -108v-95c0 -160 -98 -180 -132 -180h-7c-16 0 -25 9 -25 25v9z" />
    <glyph glyph-name="asciitilde" unicode="~" horiz-adv-x="585" 
d="M90 209c-16 0 -25 12 -23 34c10 86 59 121 125 121c110 0 114 -104 199 -104c49 0 65 45 68 77c4 15 11 23 26 23h11c16 0 25 -9 23 -26c-7 -92 -57 -129 -125 -129c-110 0 -114 104 -199 104c-50 0 -65 -45 -68 -77c-4 -15 -11 -23 -27 -23h-10z" />
    <glyph glyph-name="exclamdown" unicode="&#xa1;" horiz-adv-x="245" 
d="M129 318c16 0 25 -9 25 -24l3 -470c0 -16 -9 -25 -25 -25h-21c-15 0 -24 9 -24 25l3 470c0 15 8 24 24 24h15zM160 477v-29c0 -16 -8 -25 -24 -25h-30c-16 0 -24 9 -24 25v29c0 16 8 25 24 25h30c16 0 24 -9 24 -25z" />
    <glyph glyph-name="cent" unicode="&#xa2;" horiz-adv-x="555" 
d="M263 12v60c-137 15 -210 134 -210 280c0 145 73 264 210 279v59c0 16 8 25 24 25h8c16 0 24 -8 24 -22v-62c79 -8 141 -59 176 -125c7 -14 3 -25 -13 -32l-18 -7c-16 -6 -24 0 -32 12c-30 53 -75 88 -138 88c-116 0 -170 -95 -170 -216c0 -120 53 -214 170 -214
c64 0 108 34 138 88c7 11 16 17 32 11l18 -7c15 -6 20 -18 13 -32c-35 -66 -96 -118 -176 -125v-60c0 -16 -8 -25 -24 -25h-8c-16 0 -24 9 -24 25z" />
    <glyph glyph-name="sterling" unicode="&#xa3;" 
d="M54 25v12c0 16 9 25 25 25h39v264h-24c-16 0 -24 8 -24 24v6c0 16 8 25 24 25h24v149c0 105 86 185 206 185c64 0 112 -25 137 -42c13 -9 14 -22 3 -34l-10 -13c-10 -12 -21 -12 -34 -4c-19 11 -53 28 -95 28c-88 0 -137 -57 -137 -124v-145h167c16 0 24 -9 24 -25v-6
c0 -16 -8 -24 -24 -24h-167v-264h314c16 0 25 -9 25 -25v-12c0 -16 -9 -25 -25 -25h-423c-16 0 -25 9 -25 25z" />
    <glyph glyph-name="yen" unicode="&#xa5;" horiz-adv-x="579" 
d="M117 211c-16 0 -25 8 -25 23v6c0 15 9 22 25 22h138v39l-28 49h-110c-16 0 -25 7 -25 22v6c0 15 8 23 23 23h83l-159 273c-9 16 -2 29 18 29h25c14 0 23 -6 29 -18l135 -232c21 -40 43 -89 43 -89h2s21 49 43 89l135 232c6 12 15 18 28 18h26c20 0 27 -13 18 -29
l-160 -273h80c16 0 25 -8 25 -23v-6c0 -15 -9 -22 -25 -22h-109l-27 -49v-39h136c16 0 25 -7 25 -22v-6c0 -15 -9 -23 -25 -23h-136v-186c0 -16 -9 -25 -24 -25h-21c-16 0 -25 9 -25 25v186h-138z" />
    <glyph glyph-name="section" unicode="&#xa7;" horiz-adv-x="412" 
d="M138 107l-65 412c-2 12 -3 24 -3 35c0 92 68 161 172 161c42 0 76 -15 96 -27c13 -9 15 -22 5 -35l-7 -8c-9 -13 -19 -13 -33 -6c-15 8 -36 16 -61 16c-61 0 -110 -39 -110 -107c0 -10 1 -20 3 -30l62 -406c3 -16 -5 -27 -22 -27h-10c-16 0 -24 7 -27 22zM72 0l6 8
c9 14 20 14 33 7c16 -8 37 -17 62 -17c62 0 110 40 110 109c0 10 -1 21 -4 32l-60 402c-3 16 5 27 22 27h10c15 0 24 -7 27 -22l64 -412c2 -13 3 -24 3 -35c0 -93 -69 -161 -172 -161c-42 0 -76 15 -96 28c-13 8 -15 21 -5 34z" />
    <glyph glyph-name="dieresis" unicode="&#xa8;" horiz-adv-x="504" 
d="M321 785c-16 0 -24 8 -24 24v37c0 16 8 25 24 25h13c16 0 25 -9 25 -25v-37c0 -16 -9 -24 -25 -24h-13zM170 785c-16 0 -24 8 -24 24v37c0 16 8 25 24 25h13c16 0 24 -9 24 -25v-37c0 -16 -8 -24 -24 -24h-13z" />
    <glyph glyph-name="copyright" unicode="&#xa9;" horiz-adv-x="823" 
d="M56 352c0 202 158 363 354 363c198 0 357 -161 357 -363c0 -204 -159 -364 -357 -364c-196 0 -354 160 -354 364zM115 352c0 -175 128 -310 295 -310c169 0 299 135 299 310c0 173 -130 309 -299 309c-167 0 -295 -136 -295 -309zM213 350c0 105 74 206 207 206
c76 0 128 -47 149 -72c9 -12 6 -23 -3 -31l-10 -9c-10 -8 -22 -6 -31 5c-16 19 -51 52 -103 52c-98 0 -150 -72 -150 -151c0 -76 51 -149 150 -149c54 0 88 33 104 52c10 11 20 13 30 4l9 -8c12 -10 12 -21 4 -31c-22 -25 -73 -72 -149 -72c-134 0 -207 99 -207 204z" />
    <glyph glyph-name="ordfeminine" unicode="&#xaa;" horiz-adv-x="402" 
d="M181 382c-55 0 -110 31 -110 95c0 107 136 111 191 111h12v4c0 55 -30 74 -70 74c-26 0 -52 -10 -66 -18c-13 -6 -23 -4 -30 7l-3 4c-7 11 -4 23 10 30c18 10 51 24 94 24c78 0 120 -43 120 -123v-177c0 -16 -8 -25 -23 -25h-5c-15 0 -23 9 -23 24v28h-2s-29 -58 -95 -58
zM188 430c54 0 86 56 86 105v9h-12c-42 0 -135 -2 -135 -62c0 -28 20 -52 61 -52zM93 264c-16 0 -24 7 -24 22v3c0 14 8 22 24 22h215c16 0 24 -8 24 -22v-3c0 -15 -8 -22 -24 -22h-215z" />
    <glyph glyph-name="guillemotleft" unicode="&#xab;" horiz-adv-x="493" 
d="M230 265c-10 11 -10 23 0 34l138 175c8 10 17 14 30 14h17c21 0 27 -13 14 -30l-140 -176l140 -175c13 -17 8 -30 -12 -30h-19c-13 0 -22 4 -30 14zM188 91l-138 174c-10 11 -10 23 0 34l138 175c8 10 17 14 30 14h17c21 0 27 -13 14 -30l-140 -176l140 -175
c13 -17 8 -30 -12 -30h-19c-13 0 -22 4 -30 14z" />
    <glyph glyph-name="logicalnot" unicode="&#xac;" horiz-adv-x="623" 
d="M102 342c-16 0 -25 8 -25 24v9c0 16 9 25 25 25h417c16 0 24 -9 24 -25v-193c0 -16 -8 -24 -24 -24h-12c-15 0 -24 8 -24 24v160h-381z" />
    <glyph glyph-name="registered" unicode="&#xae;" horiz-adv-x="823" 
d="M56 352c0 202 158 363 354 363c198 0 357 -161 357 -363c0 -204 -159 -364 -357 -364c-196 0 -354 160 -354 364zM115 352c0 -175 128 -310 295 -310c169 0 299 135 299 310c0 173 -130 309 -299 309c-167 0 -295 -136 -295 -309zM291 182v340c0 16 8 25 24 25h115
c69 0 117 -46 117 -116c0 -58 -37 -94 -73 -103v-2s4 -5 13 -22l61 -118c9 -17 2 -29 -16 -29h-12c-14 0 -23 6 -28 18l-70 140h-74v-133c0 -16 -8 -25 -24 -25h-9c-16 0 -24 9 -24 25zM348 359h72c42 0 69 27 69 72c0 44 -27 69 -68 69h-73v-141z" />
    <glyph glyph-name="macron" unicode="&#xaf;" horiz-adv-x="504" 
d="M154 785c-16 0 -25 8 -25 24v7c0 16 9 24 25 24h197c16 0 24 -8 24 -24v-7c0 -16 -8 -24 -24 -24h-197z" />
    <glyph glyph-name="degree" unicode="&#xb0;" horiz-adv-x="372" 
d="M186 436c-78 0 -141 62 -141 139c0 76 63 139 141 139c77 0 140 -63 140 -139c0 -77 -63 -139 -140 -139zM186 492c46 0 81 37 81 83c0 45 -35 83 -81 83s-81 -38 -81 -83c0 -46 35 -83 81 -83z" />
    <glyph glyph-name="plusminus" unicode="&#xb1;" horiz-adv-x="606" 
d="M67 255c-16 0 -25 8 -25 24v9c0 16 9 25 25 25h206v230c0 16 8 25 24 25h13c16 0 24 -9 24 -25v-230h205c16 0 25 -9 25 -25v-9c0 -16 -9 -24 -25 -24h-205v-230c0 -16 -8 -25 -24 -25h-13c-16 0 -24 9 -24 25v230h-206zM85 -104h436c16 0 25 -9 25 -25v-9
c0 -16 -9 -24 -25 -24h-436c-16 0 -25 8 -25 24v9c0 16 9 25 25 25z" />
    <glyph glyph-name="twosuperior" unicode="&#xb2;" horiz-adv-x="348" 
d="M57 423c-15 0 -25 8 -25 30c0 169 216 174 216 287c0 42 -33 77 -82 77c-32 0 -58 -19 -72 -32c-12 -10 -23 -11 -34 -1l-2 2c-11 11 -13 24 -2 34c19 19 57 48 112 48c84 0 137 -55 137 -127c0 -147 -209 -154 -214 -268h197c16 0 24 -8 24 -23v-3c0 -16 -8 -24 -24 -24
h-231z" />
    <glyph glyph-name="threesuperior" unicode="&#xb3;" horiz-adv-x="353" 
d="M164 413c-66 0 -107 30 -126 49c-12 10 -12 22 -2 33l4 4c10 12 20 11 33 2c16 -15 44 -36 90 -36s93 37 93 89c0 53 -49 84 -96 84h-16c-13 0 -21 5 -25 15c-5 11 -3 20 6 31l86 100c10 12 24 25 24 25v2s-18 -3 -37 -3h-129c-16 0 -24 8 -24 24v3c0 15 8 23 24 23h214
c16 0 25 -6 25 -18v-4c0 -11 -4 -18 -12 -27l-107 -125c56 -7 124 -42 124 -130c0 -77 -65 -141 -149 -141z" />
    <glyph glyph-name="acute" unicode="&#xb4;" horiz-adv-x="504" 
d="M210 752c-19 0 -26 13 -16 28l44 74c7 12 15 17 29 17h23c21 0 26 -13 14 -30l-53 -73c-8 -11 -17 -16 -30 -16h-11z" />
    <glyph glyph-name="mu" unicode="&#xb5;" horiz-adv-x="623" 
d="M92 -175v653c0 16 8 25 24 25h19c16 0 25 -9 25 -25v-277c0 -78 12 -149 108 -149c117 0 187 101 187 210v216c0 16 9 25 25 25h19c16 0 24 -9 24 -25v-453c0 -16 -8 -25 -24 -25h-18c-16 0 -24 9 -24 25v54c0 20 1 36 1 36h-2c-5 -11 -59 -127 -197 -127
c-81 0 -109 42 -109 42h-2s6 -51 6 -76v-129c0 -16 -8 -25 -24 -25h-14c-16 0 -24 9 -24 25z" />
    <glyph glyph-name="paragraph" unicode="&#xb6;" horiz-adv-x="564" 
d="M277 -25v266c-129 0 -239 102 -239 232s109 230 238 230h215c16 0 24 -9 24 -25v-12c0 -16 -8 -25 -24 -25h-157v-666c0 -16 -8 -25 -24 -25h-9c-16 0 -24 9 -24 25zM396 -25v581c0 16 9 25 25 25h8c16 0 25 -9 25 -25v-581c0 -16 -9 -25 -25 -25h-8c-16 0 -25 9 -25 25z
" />
    <glyph glyph-name="periodcentered" unicode="&#xb7;" horiz-adv-x="220" 
d="M95 247c-16 0 -25 8 -25 24v34c0 16 9 25 25 25h31c16 0 24 -9 24 -25v-34c0 -16 -8 -24 -24 -24h-31z" />
    <glyph glyph-name="cedilla" unicode="&#xb8;" horiz-adv-x="504" 
d="M206 -64l19 81h43l-13 -72c40 -6 70 -31 70 -71c0 -58 -47 -79 -96 -79c-17 0 -48 1 -48 24c0 13 5 25 16 25c8 0 13 -3 26 -3c25 0 49 8 49 34c0 22 -21 33 -49 35c-11 1 -20 10 -17 26z" />
    <glyph glyph-name="onesuperior" unicode="&#xb9;" horiz-adv-x="289" 
d="M56 423c-16 0 -25 8 -25 24v3c0 15 8 23 23 23h72v289c0 13 1 24 1 24h-1s-4 -7 -20 -24l-27 -26c-9 -8 -19 -8 -28 1l-6 6c-10 11 -9 23 3 34l68 69c9 8 19 12 31 12h10c16 0 24 -8 24 -24v-361h68c16 0 24 -8 24 -23v-3c0 -16 -8 -24 -24 -24h-193z" />
    <glyph glyph-name="ordmasculine" unicode="&#xba;" horiz-adv-x="459" 
d="M229 383c-92 0 -167 72 -167 167c0 93 75 164 166 164c93 0 168 -71 168 -164c0 -95 -75 -167 -167 -167zM229 434c62 0 112 49 112 116c0 66 -50 114 -112 114s-112 -48 -112 -114c0 -67 50 -116 112 -116zM103 264c-16 0 -24 7 -24 22v3c0 14 8 22 24 22h254
c16 0 25 -8 25 -22v-3c0 -15 -9 -22 -25 -22h-254z" />
    <glyph glyph-name="guillemotright" unicode="&#xbb;" horiz-adv-x="493" 
d="M244 107l140 175l-140 176c-13 17 -7 30 13 30h18c13 0 22 -4 31 -14l138 -175c10 -11 10 -23 0 -34l-138 -174c-9 -10 -18 -14 -31 -14h-16c-22 0 -27 13 -15 30zM79 77c-21 0 -27 13 -14 30l139 175l-139 176c-14 17 -8 30 13 30h18c13 0 21 -4 30 -14l138 -175
c10 -11 10 -23 0 -34l-138 -174c-9 -10 -17 -14 -30 -14h-17z" />
    <glyph glyph-name="onequarter" unicode="&#xbc;" horiz-adv-x="918" 
d="M785 0c-16 0 -24 9 -24 25v89h-187c-16 0 -25 7 -25 19v7c0 11 3 16 10 25l191 255c8 11 17 15 30 15h11c16 0 25 -8 25 -24v-247h43c16 0 23 -8 23 -23v-3c0 -15 -7 -24 -23 -24h-43v-89c0 -16 -9 -25 -25 -25h-6zM617 164h144v136c0 27 3 62 3 62h-2s-15 -27 -32 -49
l-113 -147v-2zM314 19c-5 -13 -14 -19 -28 -19h-10c-17 0 -23 12 -15 29l313 655c6 13 15 19 29 19h9c18 0 24 -12 15 -29zM78 268c-16 0 -25 8 -25 24v3c0 15 8 23 23 23h72v289c0 13 1 24 1 24h-1s-4 -7 -20 -24l-27 -26c-9 -8 -19 -8 -28 1l-6 6c-10 11 -9 23 3 34l68 69
c9 8 19 12 31 12h10c16 0 24 -8 24 -24v-361h68c16 0 24 -8 24 -23v-3c0 -16 -8 -24 -24 -24h-193z" />
    <glyph glyph-name="onehalf" unicode="&#xbd;" horiz-adv-x="904" 
d="M602 0c-15 0 -25 8 -25 30c0 169 216 174 216 287c0 42 -33 77 -82 77c-32 0 -58 -19 -72 -32c-12 -10 -23 -11 -34 -1l-2 2c-11 11 -13 24 -2 34c19 19 57 48 112 48c84 0 137 -55 137 -127c0 -147 -209 -154 -214 -268h197c16 0 24 -8 24 -23v-3c0 -16 -8 -24 -24 -24
h-231zM313 19c-5 -13 -14 -19 -28 -19h-10c-17 0 -23 12 -15 29l313 655c6 13 15 19 29 19h9c18 0 24 -12 15 -29zM76 268c-16 0 -25 8 -25 24v3c0 15 8 23 23 23h72v289c0 13 1 24 1 24h-1s-4 -7 -20 -24l-27 -26c-9 -8 -19 -8 -28 1l-6 6c-10 11 -9 23 3 34l68 69
c9 8 19 12 31 12h10c16 0 24 -8 24 -24v-361h68c16 0 24 -8 24 -23v-3c0 -16 -8 -24 -24 -24h-193z" />
    <glyph glyph-name="threequarters" unicode="&#xbe;" horiz-adv-x="937" 
d="M804 0c-16 0 -24 9 -24 25v89h-187c-16 0 -25 7 -25 19v7c0 11 3 16 10 25l191 255c8 11 17 15 30 15h11c16 0 25 -8 25 -24v-247h43c16 0 23 -8 23 -23v-3c0 -15 -7 -24 -23 -24h-43v-89c0 -16 -9 -25 -25 -25h-6zM636 164h144v136c0 27 3 62 3 62h-2s-15 -27 -32 -49
l-113 -147v-2zM181 258c-66 0 -107 30 -126 49c-12 10 -12 22 -2 33l4 4c10 12 20 11 33 2c16 -15 44 -36 90 -36s93 37 93 89c0 53 -49 84 -96 84h-16c-13 0 -21 5 -25 15c-5 11 -3 20 6 31l86 100c10 12 24 25 24 25v2s-18 -3 -37 -3h-129c-16 0 -24 8 -24 24v3
c0 15 8 23 24 23h214c16 0 25 -6 25 -18v-4c0 -11 -4 -18 -12 -27l-107 -125c56 -7 124 -42 124 -130c0 -77 -65 -141 -149 -141zM333 19c-5 -13 -14 -19 -28 -19h-10c-17 0 -23 12 -15 29l313 655c6 13 15 19 29 19h9c18 0 24 -12 15 -29z" />
    <glyph glyph-name="questiondown" unicode="&#xbf;" horiz-adv-x="453" 
d="M293 318c16 0 25 -9 25 -25v-23c0 -153 -175 -172 -175 -304c0 -64 54 -115 131 -115c44 0 81 17 101 29c13 7 26 7 34 -6l8 -12c10 -13 9 -25 -5 -34c-24 -16 -75 -42 -141 -42c-114 0 -200 73 -200 177c0 163 175 180 179 310l1 24c1 14 8 21 23 21h19zM323 477v-29
c0 -16 -8 -25 -24 -25h-30c-16 0 -24 9 -24 25v29c0 16 8 25 24 25h30c16 0 24 -9 24 -25z" />
    <glyph glyph-name="Agrave" unicode="&#xc0;" horiz-adv-x="609" 
d="M19 29l242 654c4 14 14 20 27 20h33c13 0 23 -6 27 -20l242 -654c5 -18 -2 -29 -20 -29h-22c-14 0 -24 6 -28 20l-75 204h-282l-74 -204c-4 -14 -14 -20 -28 -20h-21c-19 0 -26 11 -21 29zM183 284h242l-93 255c-11 33 -26 92 -26 92h-2s-16 -59 -27 -92zM293 752
c-13 0 -22 5 -30 16l-53 73c-12 17 -7 30 14 30h23c14 0 22 -5 29 -17l44 -74c9 -15 5 -28 -13 -28h-14z" />
    <glyph glyph-name="Aacute" unicode="&#xc1;" horiz-adv-x="609" 
d="M19 29l242 654c4 14 14 20 27 20h33c13 0 23 -6 27 -20l242 -654c5 -18 -2 -29 -20 -29h-22c-14 0 -24 6 -28 20l-75 204h-282l-74 -204c-4 -14 -14 -20 -28 -20h-21c-19 0 -26 11 -21 29zM183 284h242l-93 255c-11 33 -26 92 -26 92h-2s-16 -59 -27 -92zM304 752
c-19 0 -26 13 -16 28l44 74c7 12 15 17 29 17h23c21 0 26 -13 14 -30l-53 -73c-8 -11 -17 -16 -30 -16h-11z" />
    <glyph glyph-name="Acircumflex" unicode="&#xc2;" horiz-adv-x="609" 
d="M19 29l242 654c4 14 14 20 27 20h33c13 0 23 -6 27 -20l242 -654c5 -18 -2 -29 -20 -29h-22c-14 0 -24 6 -28 20l-75 204h-282l-74 -204c-4 -14 -14 -20 -28 -20h-21c-19 0 -26 11 -21 29zM183 284h242l-93 255c-11 33 -26 92 -26 92h-2s-16 -59 -27 -92zM216 752
c-19 0 -24 13 -13 30l52 73c8 11 17 16 30 16h37c14 0 22 -5 31 -16l51 -73c12 -17 7 -30 -11 -30h-17c-13 0 -20 5 -27 17l-44 64h-2l-44 -64c-7 -12 -14 -17 -28 -17h-15z" />
    <glyph glyph-name="Atilde" unicode="&#xc3;" horiz-adv-x="609" 
d="M19 29l242 654c4 14 14 20 27 20h33c13 0 23 -6 27 -20l242 -654c5 -18 -2 -29 -20 -29h-22c-14 0 -24 6 -28 20l-75 204h-282l-74 -204c-4 -14 -14 -20 -28 -20h-21c-19 0 -26 11 -21 29zM183 284h242l-93 255c-11 33 -26 92 -26 92h-2s-16 -59 -27 -92zM172 755
c-15 0 -22 9 -22 26c0 53 36 91 88 91c69 0 84 -72 129 -72c26 0 38 25 39 50c0 12 9 19 23 19h8c15 0 21 -8 21 -23c0 -58 -34 -94 -88 -94c-69 0 -84 71 -129 71c-26 0 -39 -25 -39 -51c-1 -11 -10 -17 -23 -17h-7z" />
    <glyph glyph-name="Adieresis" unicode="&#xc4;" horiz-adv-x="609" 
d="M19 29l242 654c4 14 14 20 27 20h33c13 0 23 -6 27 -20l242 -654c5 -18 -2 -29 -20 -29h-22c-14 0 -24 6 -28 20l-75 204h-282l-74 -204c-4 -14 -14 -20 -28 -20h-21c-19 0 -26 11 -21 29zM183 284h242l-93 255c-11 33 -26 92 -26 92h-2s-16 -59 -27 -92zM373 785
c-16 0 -24 8 -24 24v37c0 16 8 25 24 25h13c16 0 25 -9 25 -25v-37c0 -16 -9 -24 -25 -24h-13zM222 785c-16 0 -24 8 -24 24v37c0 16 8 25 24 25h13c16 0 24 -9 24 -25v-37c0 -16 -8 -24 -24 -24h-13z" />
    <glyph glyph-name="Aring" unicode="&#xc5;" horiz-adv-x="609" 
d="M19 29l242 654c4 14 14 20 27 20h33c13 0 23 -6 27 -20l242 -654c5 -18 -2 -29 -20 -29h-22c-14 0 -24 6 -28 20l-75 204h-282l-74 -204c-4 -14 -14 -20 -28 -20h-21c-19 0 -26 11 -21 29zM183 284h242l-93 255c-11 33 -26 92 -26 92h-2s-16 -59 -27 -92zM304 741
c-41 0 -75 29 -75 71s34 71 75 71s76 -29 76 -71s-35 -71 -76 -71zM304 779c20 0 33 14 33 33c0 20 -13 34 -33 34c-19 0 -32 -14 -32 -34c0 -19 13 -33 32 -33z" />
    <glyph glyph-name="AE" unicode="&#xc6;" horiz-adv-x="833" 
d="M15 29l270 655c5 13 14 19 28 19h436c16 0 25 -9 25 -25v-12c0 -16 -9 -25 -25 -25h-302v-256h243c16 0 24 -8 24 -24v-13c0 -16 -8 -25 -24 -25h-243v-261h320c16 0 25 -9 25 -25v-12c0 -16 -9 -25 -25 -25h-364c-16 0 -25 9 -25 25v299h-170l-124 -305
c-5 -13 -14 -19 -28 -19h-22c-18 0 -26 12 -19 29zM232 384h146v257h-41z" />
    <glyph glyph-name="Ccedilla" unicode="&#xc7;" horiz-adv-x="712" 
d="M361 -64l12 54c-194 16 -321 172 -321 366c0 204 146 359 353 359c125 0 204 -50 236 -75c12 -10 12 -22 4 -35l-9 -13c-9 -12 -21 -13 -34 -4c-30 21 -98 62 -195 62c-171 0 -283 -128 -283 -293c0 -167 112 -304 286 -304c105 0 178 51 209 76c12 10 24 10 34 -3l9 -11
c10 -12 9 -24 -2 -35c-32 -28 -116 -89 -242 -92l-8 -43c40 -6 70 -31 70 -71c0 -58 -47 -79 -96 -79c-17 0 -48 1 -48 24c0 13 5 25 16 25c8 0 13 -3 26 -3c25 0 49 8 49 34c0 22 -21 33 -49 35c-11 1 -20 10 -17 26z" />
    <glyph glyph-name="Egrave" unicode="&#xc8;" horiz-adv-x="553" 
d="M98 25v653c0 16 8 25 24 25h347c16 0 25 -9 25 -25v-12c0 -16 -9 -25 -25 -25h-302v-256h242c16 0 25 -8 25 -24v-13c0 -16 -9 -25 -25 -25h-242v-261h320c16 0 25 -9 25 -25v-12c0 -16 -9 -25 -25 -25h-365c-16 0 -24 9 -24 25zM296 752c-13 0 -22 5 -30 16l-53 73
c-12 17 -7 30 14 30h23c14 0 22 -5 29 -17l44 -74c9 -15 5 -28 -13 -28h-14z" />
    <glyph glyph-name="Eacute" unicode="&#xc9;" horiz-adv-x="553" 
d="M306 752c-19 0 -26 13 -16 28l44 74c7 12 15 17 29 17h23c21 0 26 -13 14 -30l-53 -73c-8 -11 -17 -16 -30 -16h-11zM98 25v653c0 16 8 25 24 25h347c16 0 25 -9 25 -25v-12c0 -16 -9 -25 -25 -25h-302v-256h242c16 0 25 -8 25 -24v-13c0 -16 -9 -25 -25 -25h-242v-261
h320c16 0 25 -9 25 -25v-12c0 -16 -9 -25 -25 -25h-365c-16 0 -24 9 -24 25z" />
    <glyph glyph-name="Ecircumflex" unicode="&#xca;" horiz-adv-x="553" 
d="M219 752c-19 0 -24 13 -13 30l52 73c8 11 17 16 30 16h37c14 0 22 -5 31 -16l51 -73c12 -17 7 -30 -11 -30h-17c-13 0 -20 5 -27 17l-44 64h-2l-44 -64c-7 -12 -14 -17 -28 -17h-15zM98 25v653c0 16 8 25 24 25h347c16 0 25 -9 25 -25v-12c0 -16 -9 -25 -25 -25h-302
v-256h242c16 0 25 -8 25 -24v-13c0 -16 -9 -25 -25 -25h-242v-261h320c16 0 25 -9 25 -25v-12c0 -16 -9 -25 -25 -25h-365c-16 0 -24 9 -24 25z" />
    <glyph glyph-name="Edieresis" unicode="&#xcb;" horiz-adv-x="553" 
d="M376 785c-16 0 -24 8 -24 24v37c0 16 8 25 24 25h13c16 0 25 -9 25 -25v-37c0 -16 -9 -24 -25 -24h-13zM225 785c-16 0 -24 8 -24 24v37c0 16 8 25 24 25h13c16 0 24 -9 24 -25v-37c0 -16 -8 -24 -24 -24h-13zM98 25v653c0 16 8 25 24 25h347c16 0 25 -9 25 -25v-12
c0 -16 -9 -25 -25 -25h-302v-256h242c16 0 25 -8 25 -24v-13c0 -16 -9 -25 -25 -25h-242v-261h320c16 0 25 -9 25 -25v-12c0 -16 -9 -25 -25 -25h-365c-16 0 -24 9 -24 25z" />
    <glyph glyph-name="Igrave" unicode="&#xcc;" horiz-adv-x="265" 
d="M98 25v653c0 16 8 25 24 25h21c15 0 24 -9 24 -25v-653c0 -16 -9 -25 -24 -25h-21c-16 0 -24 9 -24 25zM122 752c-13 0 -22 5 -30 16l-53 73c-12 17 -7 30 14 30h23c14 0 22 -5 29 -17l44 -74c9 -15 5 -28 -13 -28h-14z" />
    <glyph glyph-name="Iacute" unicode="&#xcd;" horiz-adv-x="265" 
d="M98 25v653c0 16 8 25 24 25h21c15 0 24 -9 24 -25v-653c0 -16 -9 -25 -24 -25h-21c-16 0 -24 9 -24 25zM133 752c-19 0 -26 13 -16 28l44 74c7 12 15 17 29 17h23c21 0 26 -13 14 -30l-53 -73c-8 -11 -17 -16 -30 -16h-11z" />
    <glyph glyph-name="Icircumflex" unicode="&#xce;" horiz-adv-x="265" 
d="M98 25v653c0 16 8 25 24 25h21c15 0 24 -9 24 -25v-653c0 -16 -9 -25 -24 -25h-21c-16 0 -24 9 -24 25zM46 752c-19 0 -24 13 -13 30l52 73c8 11 17 16 30 16h37c14 0 22 -5 31 -16l51 -73c12 -17 7 -30 -11 -30h-17c-13 0 -20 5 -27 17l-44 64h-2l-44 -64
c-7 -12 -14 -17 -28 -17h-15z" />
    <glyph glyph-name="Idieresis" unicode="&#xcf;" horiz-adv-x="265" 
d="M98 25v653c0 16 8 25 24 25h21c15 0 24 -9 24 -25v-653c0 -16 -9 -25 -24 -25h-21c-16 0 -24 9 -24 25zM203 785c-16 0 -24 8 -24 24v37c0 16 8 25 24 25h13c16 0 25 -9 25 -25v-37c0 -16 -9 -24 -25 -24h-13zM52 785c-16 0 -24 8 -24 24v37c0 16 8 25 24 25h13
c16 0 24 -9 24 -25v-37c0 -16 -8 -24 -24 -24h-13z" />
    <glyph glyph-name="Eth" unicode="&#xd0;" horiz-adv-x="731" 
d="M98 25v298h-35c-16 0 -24 9 -24 25v11c0 16 7 24 19 24h40v295c0 16 9 25 25 25h202c211 0 353 -129 353 -351c0 -224 -142 -352 -353 -352h-202c-16 0 -25 9 -25 25zM167 62h151c173 0 288 101 288 290c0 187 -115 289 -288 289h-151v-258h143c16 0 25 -8 25 -24v-11
c0 -16 -9 -25 -24 -25h-144v-261z" />
    <glyph glyph-name="Ntilde" unicode="&#xd1;" horiz-adv-x="745" 
d="M98 25v653c0 16 8 25 24 25h24c13 0 22 -5 30 -16l348 -490c24 -35 58 -95 58 -95h2s-6 58 -6 95v481c0 16 9 25 25 25h20c16 0 24 -9 24 -25v-653c0 -16 -8 -25 -24 -25h-24c-13 0 -22 5 -29 16l-349 490c-24 35 -58 95 -58 95h-2s6 -58 6 -95v-481
c0 -16 -9 -25 -24 -25h-21c-16 0 -24 9 -24 25zM240 755c-15 0 -22 9 -22 26c0 53 36 91 88 91c69 0 84 -72 129 -72c26 0 38 25 39 50c0 12 9 19 23 19h8c15 0 21 -8 21 -23c0 -58 -34 -94 -88 -94c-69 0 -84 71 -129 71c-26 0 -39 -25 -39 -51c-1 -11 -10 -17 -23 -17h-7z
" />
    <glyph glyph-name="Ograve" unicode="&#xd2;" horiz-adv-x="817" 
d="M50 356c0 202 153 359 358 359c206 0 358 -157 358 -359c0 -206 -152 -368 -358 -368c-205 0 -358 162 -358 368zM122 356c0 -171 122 -303 286 -303c165 0 286 132 286 303c0 167 -121 294 -286 294c-164 0 -286 -127 -286 -294zM397 752c-13 0 -22 5 -30 16l-53 73
c-12 17 -7 30 14 30h23c14 0 22 -5 29 -17l44 -74c9 -15 5 -28 -13 -28h-14z" />
    <glyph glyph-name="Oacute" unicode="&#xd3;" horiz-adv-x="817" 
d="M407 752c-19 0 -26 13 -16 28l44 74c7 12 15 17 29 17h23c21 0 26 -13 14 -30l-53 -73c-8 -11 -17 -16 -30 -16h-11zM50 356c0 202 153 359 358 359c206 0 358 -157 358 -359c0 -206 -152 -368 -358 -368c-205 0 -358 162 -358 368zM122 356c0 -171 122 -303 286 -303
c165 0 286 132 286 303c0 167 -121 294 -286 294c-164 0 -286 -127 -286 -294z" />
    <glyph glyph-name="Ocircumflex" unicode="&#xd4;" horiz-adv-x="817" 
d="M320 752c-19 0 -24 13 -13 30l52 73c8 11 17 16 30 16h37c14 0 22 -5 31 -16l51 -73c12 -17 7 -30 -11 -30h-17c-13 0 -20 5 -27 17l-44 64h-2l-44 -64c-7 -12 -14 -17 -28 -17h-15zM50 356c0 202 153 359 358 359c206 0 358 -157 358 -359c0 -206 -152 -368 -358 -368
c-205 0 -358 162 -358 368zM122 356c0 -171 122 -303 286 -303c165 0 286 132 286 303c0 167 -121 294 -286 294c-164 0 -286 -127 -286 -294z" />
    <glyph glyph-name="Otilde" unicode="&#xd5;" horiz-adv-x="817" 
d="M50 356c0 202 153 359 358 359c206 0 358 -157 358 -359c0 -206 -152 -368 -358 -368c-205 0 -358 162 -358 368zM122 356c0 -171 122 -303 286 -303c165 0 286 132 286 303c0 167 -121 294 -286 294c-164 0 -286 -127 -286 -294zM276 755c-15 0 -22 9 -22 26
c0 53 36 91 88 91c69 0 84 -72 129 -72c26 0 38 25 39 50c0 12 9 19 23 19h8c15 0 21 -8 21 -23c0 -58 -34 -94 -88 -94c-69 0 -84 71 -129 71c-26 0 -39 -25 -39 -51c-1 -11 -10 -17 -23 -17h-7z" />
    <glyph glyph-name="Odieresis" unicode="&#xd6;" horiz-adv-x="817" 
d="M477 785c-16 0 -24 8 -24 24v37c0 16 8 25 24 25h13c16 0 25 -9 25 -25v-37c0 -16 -9 -24 -25 -24h-13zM326 785c-16 0 -24 8 -24 24v37c0 16 8 25 24 25h13c16 0 24 -9 24 -25v-37c0 -16 -8 -24 -24 -24h-13zM50 356c0 202 153 359 358 359c206 0 358 -157 358 -359
c0 -206 -152 -368 -358 -368c-205 0 -358 162 -358 368zM122 356c0 -171 122 -303 286 -303c165 0 286 132 286 303c0 167 -121 294 -286 294c-164 0 -286 -127 -286 -294z" />
    <glyph glyph-name="multiply" unicode="&#xd7;" horiz-adv-x="606" 
d="M64 24c-11 11 -11 23 -1 35l200 225l-200 225c-10 12 -10 24 1 34l7 7c12 12 24 11 35 -1l197 -221l197 221c10 12 22 13 35 1l7 -7c11 -10 11 -22 1 -34l-201 -225l201 -225c10 -12 10 -24 -1 -35l-7 -6c-13 -12 -25 -11 -35 1l-197 221l-197 -221
c-11 -12 -23 -13 -35 -1z" />
    <glyph glyph-name="Oslash" unicode="&#xd8;" horiz-adv-x="816" 
d="M139 23l37 51c-77 67 -126 168 -126 282c0 203 159 359 358 359c70 0 134 -20 189 -54l33 47c10 13 21 16 36 5c13 -11 16 -21 8 -31l-35 -50c78 -65 127 -163 127 -276c0 -206 -158 -368 -358 -368c-71 0 -135 20 -191 56l-34 -48c-10 -13 -21 -16 -36 -6
c-14 11 -16 21 -8 33zM217 131l341 476c-43 28 -94 43 -150 43c-158 0 -286 -127 -286 -294c0 -92 38 -173 95 -225zM255 98c44 -29 97 -45 153 -45c159 0 286 131 286 302c0 91 -37 169 -96 222z" />
    <glyph glyph-name="Ugrave" unicode="&#xd9;" horiz-adv-x="715" 
d="M88 245v433c0 16 9 25 25 25h20c16 0 25 -9 25 -25v-432c0 -121 78 -193 199 -193s200 72 200 195v430c0 16 9 25 25 25h20c16 0 24 -9 24 -25v-433c0 -156 -109 -257 -268 -257c-160 0 -270 101 -270 257zM345 752c-13 0 -22 5 -30 16l-53 73c-12 17 -7 30 14 30h23
c14 0 22 -5 29 -17l44 -74c9 -15 5 -28 -13 -28h-14z" />
    <glyph glyph-name="Uacute" unicode="&#xda;" horiz-adv-x="715" 
d="M356 752c-19 0 -26 13 -16 28l44 74c7 12 15 17 29 17h23c21 0 26 -13 14 -30l-53 -73c-8 -11 -17 -16 -30 -16h-11zM88 245v433c0 16 9 25 25 25h20c16 0 25 -9 25 -25v-432c0 -121 78 -193 199 -193s200 72 200 195v430c0 16 9 25 25 25h20c16 0 24 -9 24 -25v-433
c0 -156 -109 -257 -268 -257c-160 0 -270 101 -270 257z" />
    <glyph glyph-name="Ucircumflex" unicode="&#xdb;" horiz-adv-x="715" 
d="M269 752c-19 0 -24 13 -13 30l52 73c8 11 17 16 30 16h37c14 0 22 -5 31 -16l51 -73c12 -17 7 -30 -11 -30h-17c-13 0 -20 5 -27 17l-44 64h-2l-44 -64c-7 -12 -14 -17 -28 -17h-15zM88 245v433c0 16 9 25 25 25h20c16 0 25 -9 25 -25v-432c0 -121 78 -193 199 -193
s200 72 200 195v430c0 16 9 25 25 25h20c16 0 24 -9 24 -25v-433c0 -156 -109 -257 -268 -257c-160 0 -270 101 -270 257z" />
    <glyph glyph-name="Udieresis" unicode="&#xdc;" horiz-adv-x="715" 
d="M426 785c-16 0 -24 8 -24 24v37c0 16 8 25 24 25h13c16 0 25 -9 25 -25v-37c0 -16 -9 -24 -25 -24h-13zM275 785c-16 0 -24 8 -24 24v37c0 16 8 25 24 25h13c16 0 24 -9 24 -25v-37c0 -16 -8 -24 -24 -24h-13zM88 245v433c0 16 9 25 25 25h20c16 0 25 -9 25 -25v-432
c0 -121 78 -193 199 -193s200 72 200 195v430c0 16 9 25 25 25h20c16 0 24 -9 24 -25v-433c0 -156 -109 -257 -268 -257c-160 0 -270 101 -270 257z" />
    <glyph glyph-name="Yacute" unicode="&#xdd;" horiz-adv-x="554" 
d="M243 25v277l-221 372c-10 16 -3 29 17 29h25c14 0 23 -6 29 -17l140 -238c21 -37 43 -84 43 -84h2s22 47 43 84l140 238c6 11 15 17 28 17h26c19 0 27 -13 17 -29l-220 -372v-277c0 -16 -9 -25 -25 -25h-20c-16 0 -24 9 -24 25zM276 752c-19 0 -26 13 -16 28l44 74
c7 12 15 17 29 17h23c21 0 26 -13 14 -30l-53 -73c-8 -11 -17 -16 -30 -16h-11z" />
    <glyph glyph-name="Thorn" unicode="&#xde;" horiz-adv-x="591" 
d="M98 25v653c0 16 8 25 24 25h21c15 0 24 -9 24 -24v-101h174c126 0 217 -82 217 -213c0 -130 -91 -214 -218 -214h-173v-126c0 -16 -9 -25 -24 -25h-21c-16 0 -24 9 -24 25zM167 213h165c94 0 155 57 155 152c0 96 -61 151 -154 151h-166v-303z" />
    <glyph glyph-name="germandbls" unicode="&#xdf;" horiz-adv-x="567" 
d="M78 25v506c0 120 101 184 201 184c107 0 175 -71 175 -149c0 -103 -111 -134 -111 -197c0 -68 195 -106 195 -233c0 -96 -78 -143 -162 -143c-63 0 -108 16 -129 25c-13 4 -19 13 -19 28v14c0 19 10 25 26 19c22 -10 65 -25 117 -25c51 0 98 25 98 84
c0 94 -196 123 -196 229c0 87 111 117 111 198c0 42 -36 89 -108 89c-65 0 -130 -45 -130 -128v-501c0 -16 -9 -25 -25 -25h-19c-16 0 -24 9 -24 25z" />
    <glyph glyph-name="agrave" unicode="&#xe0;" horiz-adv-x="508" 
d="M34 135c0 164 210 173 307 173h29v16c0 97 -53 130 -124 130c-56 0 -99 -21 -122 -35c-14 -7 -25 -5 -34 8l-6 10c-8 13 -6 26 7 34c26 16 82 44 160 44c120 0 187 -67 187 -193v-297c0 -16 -8 -25 -24 -25h-16c-16 0 -25 8 -25 25v40c0 23 3 38 3 38h-2
c1 0 -45 -115 -170 -115c-85 0 -170 50 -170 147zM104 141c0 -47 37 -96 112 -96c97 0 154 100 154 188v24h-28c-79 0 -238 -3 -238 -116zM241 585c-13 0 -22 5 -30 16l-53 73c-12 17 -7 30 14 30h23c14 0 22 -5 29 -17l44 -74c9 -15 5 -28 -13 -28h-14z" />
    <glyph glyph-name="aacute" unicode="&#xe1;" horiz-adv-x="508" 
d="M34 135c0 164 210 173 307 173h29v16c0 97 -53 130 -124 130c-56 0 -99 -21 -122 -35c-14 -7 -25 -5 -34 8l-6 10c-8 13 -6 26 7 34c26 16 82 44 160 44c120 0 187 -67 187 -193v-297c0 -16 -8 -25 -24 -25h-16c-16 0 -25 8 -25 25v40c0 23 3 38 3 38h-2
c1 0 -45 -115 -170 -115c-85 0 -170 50 -170 147zM104 141c0 -47 37 -96 112 -96c97 0 154 100 154 188v24h-28c-79 0 -238 -3 -238 -116zM250 585c-19 0 -26 13 -16 28l44 74c7 12 15 17 29 17h23c21 0 26 -13 14 -30l-53 -73c-8 -11 -17 -16 -30 -16h-11z" />
    <glyph glyph-name="acircumflex" unicode="&#xe2;" horiz-adv-x="508" 
d="M34 135c0 164 210 173 307 173h29v16c0 97 -53 130 -124 130c-56 0 -99 -21 -122 -35c-14 -7 -25 -5 -34 8l-6 10c-8 13 -6 26 7 34c26 16 82 44 160 44c120 0 187 -67 187 -193v-297c0 -16 -8 -25 -24 -25h-16c-16 0 -25 8 -25 25v40c0 23 3 38 3 38h-2
c1 0 -45 -115 -170 -115c-85 0 -170 50 -170 147zM104 141c0 -47 37 -96 112 -96c97 0 154 100 154 188v24h-28c-79 0 -238 -3 -238 -116zM164 585c-19 0 -24 13 -13 30l52 73c8 11 17 16 30 16h37c14 0 22 -5 31 -16l51 -73c12 -17 7 -30 -11 -30h-17c-13 0 -20 5 -27 17
l-44 64h-2l-44 -64c-7 -12 -14 -17 -28 -17h-15z" />
    <glyph glyph-name="atilde" unicode="&#xe3;" horiz-adv-x="508" 
d="M34 135c0 164 210 173 307 173h29v16c0 97 -53 130 -124 130c-56 0 -99 -21 -122 -35c-14 -7 -25 -5 -34 8l-6 10c-8 13 -6 26 7 34c26 16 82 44 160 44c120 0 187 -67 187 -193v-297c0 -16 -8 -25 -24 -25h-16c-16 0 -25 8 -25 25v40c0 23 3 38 3 38h-2
c1 0 -45 -115 -170 -115c-85 0 -170 50 -170 147zM104 141c0 -47 37 -96 112 -96c97 0 154 100 154 188v24h-28c-79 0 -238 -3 -238 -116zM120 588c-15 0 -22 9 -22 26c0 53 36 91 88 91c69 0 84 -72 129 -72c26 0 38 25 39 50c0 12 9 19 23 19h8c15 0 21 -8 21 -23
c0 -58 -34 -94 -88 -94c-69 0 -84 71 -129 71c-26 0 -39 -25 -39 -51c-1 -11 -10 -17 -23 -17h-7z" />
    <glyph glyph-name="adieresis" unicode="&#xe4;" horiz-adv-x="508" 
d="M34 135c0 164 210 173 307 173h29v16c0 97 -53 130 -124 130c-56 0 -99 -21 -122 -35c-14 -7 -25 -5 -34 8l-6 10c-8 13 -6 26 7 34c26 16 82 44 160 44c120 0 187 -67 187 -193v-297c0 -16 -8 -25 -24 -25h-16c-16 0 -25 8 -25 25v40c0 23 3 38 3 38h-2
c1 0 -45 -115 -170 -115c-85 0 -170 50 -170 147zM104 141c0 -47 37 -96 112 -96c97 0 154 100 154 188v24h-28c-79 0 -238 -3 -238 -116zM321 618c-16 0 -24 8 -24 24v37c0 16 8 25 24 25h13c16 0 25 -9 25 -25v-37c0 -16 -9 -24 -25 -24h-13zM170 618c-16 0 -24 8 -24 24
v37c0 16 8 25 24 25h13c16 0 24 -9 24 -25v-37c0 -16 -8 -24 -24 -24h-13z" />
    <glyph glyph-name="aring" unicode="&#xe5;" horiz-adv-x="508" 
d="M34 135c0 164 210 173 307 173h29v16c0 97 -53 130 -124 130c-56 0 -99 -21 -122 -35c-14 -7 -25 -5 -34 8l-6 10c-8 13 -6 26 7 34c26 16 82 44 160 44c120 0 187 -67 187 -193v-297c0 -16 -8 -25 -24 -25h-16c-16 0 -25 8 -25 25v40c0 23 3 38 3 38h-2
c1 0 -45 -115 -170 -115c-85 0 -170 50 -170 147zM104 141c0 -47 37 -96 112 -96c97 0 154 100 154 188v24h-28c-79 0 -238 -3 -238 -116zM252 574c-41 0 -75 29 -75 71s34 71 75 71s76 -29 76 -71s-35 -71 -76 -71zM252 612c20 0 33 14 33 33c0 20 -13 34 -33 34
c-19 0 -32 -14 -32 -34c0 -19 13 -33 32 -33z" />
    <glyph glyph-name="ae" unicode="&#xe6;" horiz-adv-x="859" 
d="M36 137c0 162 190 168 302 168h32v19c0 97 -52 130 -128 130c-53 0 -96 -21 -118 -35c-14 -7 -25 -5 -34 8l-6 10c-8 13 -6 26 7 34c26 16 80 44 156 44c100 0 149 -41 170 -104h2c40 69 108 104 189 104c133 0 209 -97 209 -236c0 -15 -11 -25 -26 -25h-354
c2 -133 83 -205 187 -205c62 0 109 28 132 46c14 8 26 7 34 -7l6 -10c8 -14 6 -25 -6 -34c-27 -20 -87 -56 -169 -56c-103 0 -183 53 -221 140h-2c-7 -26 -56 -140 -190 -140c-92 0 -172 52 -172 149zM441 305h306c-4 105 -70 152 -141 152c-84 0 -149 -52 -165 -152z
M105 141c0 -49 39 -96 113 -96c97 0 153 101 153 189v20h-59c-84 0 -207 -10 -207 -113z" />
    <glyph glyph-name="ccedilla" unicode="&#xe7;" horiz-adv-x="534" 
d="M258 -64l13 55c-132 15 -227 117 -227 260c0 155 115 264 264 264c86 0 142 -37 167 -57c12 -9 13 -21 3 -34l-7 -11c-9 -14 -20 -14 -34 -5c-22 17 -66 46 -127 46c-110 0 -196 -83 -196 -203c0 -119 86 -202 197 -202c70 0 118 33 142 53c13 10 24 8 33 -6l7 -10
c8 -13 5 -24 -6 -34c-26 -21 -83 -62 -172 -64l-8 -43c40 -6 70 -31 70 -71c0 -58 -47 -79 -96 -79c-17 0 -48 1 -48 24c0 13 5 25 16 25c8 0 13 -3 26 -3c25 0 49 8 49 34c0 22 -21 33 -49 35c-11 1 -20 10 -17 26z" />
    <glyph glyph-name="egrave" unicode="&#xe8;" horiz-adv-x="544" 
d="M44 251c0 165 112 264 248 264c134 0 210 -97 210 -240c0 -14 -11 -25 -26 -25h-362c3 -128 91 -201 195 -201c63 0 109 28 132 46c14 9 25 7 33 -6l8 -12c7 -12 5 -24 -7 -33c-27 -20 -87 -56 -168 -56c-150 0 -263 108 -263 263zM117 301h316c-4 106 -68 158 -143 158
c-84 0 -157 -56 -173 -158zM283 585c-13 0 -22 5 -30 16l-53 73c-12 17 -7 30 14 30h23c14 0 22 -5 29 -17l44 -74c9 -15 5 -28 -13 -28h-14z" />
    <glyph glyph-name="eacute" unicode="&#xe9;" horiz-adv-x="544" 
d="M291 585c-19 0 -26 13 -16 28l44 74c7 12 15 17 29 17h23c21 0 26 -13 14 -30l-53 -73c-8 -11 -17 -16 -30 -16h-11zM44 251c0 165 112 264 248 264c134 0 210 -97 210 -240c0 -14 -11 -25 -26 -25h-362c3 -128 91 -201 195 -201c63 0 109 28 132 46c14 9 25 7 33 -6
l8 -12c7 -12 5 -24 -7 -33c-27 -20 -87 -56 -168 -56c-150 0 -263 108 -263 263zM117 301h316c-4 106 -68 158 -143 158c-84 0 -157 -56 -173 -158z" />
    <glyph glyph-name="ecircumflex" unicode="&#xea;" horiz-adv-x="544" 
d="M204 585c-19 0 -24 13 -13 30l52 73c8 11 17 16 30 16h37c14 0 22 -5 31 -16l51 -73c12 -17 7 -30 -11 -30h-17c-13 0 -20 5 -27 17l-44 64h-2l-44 -64c-7 -12 -14 -17 -28 -17h-15zM44 251c0 165 112 264 248 264c134 0 210 -97 210 -240c0 -14 -11 -25 -26 -25h-362
c3 -128 91 -201 195 -201c63 0 109 28 132 46c14 9 25 7 33 -6l8 -12c7 -12 5 -24 -7 -33c-27 -20 -87 -56 -168 -56c-150 0 -263 108 -263 263zM117 301h316c-4 106 -68 158 -143 158c-84 0 -157 -56 -173 -158z" />
    <glyph glyph-name="edieresis" unicode="&#xeb;" horiz-adv-x="544" 
d="M361 618c-16 0 -24 8 -24 24v37c0 16 8 25 24 25h13c16 0 25 -9 25 -25v-37c0 -16 -9 -24 -25 -24h-13zM210 618c-16 0 -24 8 -24 24v37c0 16 8 25 24 25h13c16 0 24 -9 24 -25v-37c0 -16 -8 -24 -24 -24h-13zM44 251c0 165 112 264 248 264c134 0 210 -97 210 -240
c0 -14 -11 -25 -26 -25h-362c3 -128 91 -201 195 -201c63 0 109 28 132 46c14 9 25 7 33 -6l8 -12c7 -12 5 -24 -7 -33c-27 -20 -87 -56 -168 -56c-150 0 -263 108 -263 263zM117 301h316c-4 106 -68 158 -143 158c-84 0 -157 -56 -173 -158z" />
    <glyph glyph-name="igrave" unicode="&#xec;" horiz-adv-x="223" 
d="M77 25v453c0 16 9 25 25 25h19c16 0 24 -9 24 -25v-453c0 -16 -8 -25 -24 -25h-19c-16 0 -25 9 -25 25zM101 585c-13 0 -22 5 -30 16l-53 73c-12 17 -7 30 14 30h23c14 0 22 -5 29 -17l44 -74c9 -15 5 -28 -13 -28h-14z" />
    <glyph glyph-name="iacute" unicode="&#xed;" horiz-adv-x="223" 
d="M112 585c-19 0 -26 13 -16 28l44 74c7 12 15 17 29 17h23c21 0 26 -13 14 -30l-53 -73c-8 -11 -17 -16 -30 -16h-11zM77 25v453c0 16 9 25 25 25h19c16 0 24 -9 24 -25v-453c0 -16 -8 -25 -24 -25h-19c-16 0 -25 9 -25 25z" />
    <glyph glyph-name="icircumflex" unicode="&#xee;" horiz-adv-x="223" 
d="M25 585c-19 0 -24 13 -13 30l52 73c8 11 17 16 30 16h37c14 0 22 -5 31 -16l51 -73c12 -17 7 -30 -11 -30h-17c-13 0 -20 5 -27 17l-44 64h-2l-44 -64c-7 -12 -14 -17 -28 -17h-15zM77 25v453c0 16 9 25 25 25h19c16 0 24 -9 24 -25v-453c0 -16 -8 -25 -24 -25h-19
c-16 0 -25 9 -25 25z" />
    <glyph glyph-name="idieresis" unicode="&#xef;" horiz-adv-x="223" 
d="M182 618c-16 0 -24 8 -24 24v37c0 16 8 25 24 25h13c16 0 25 -9 25 -25v-37c0 -16 -9 -24 -25 -24h-13zM31 618c-16 0 -24 8 -24 24v37c0 16 8 25 24 25h13c16 0 24 -9 24 -25v-37c0 -16 -8 -24 -24 -24h-13zM77 25v453c0 16 9 25 25 25h19c16 0 24 -9 24 -25v-453
c0 -16 -8 -25 -24 -25h-19c-16 0 -25 9 -25 25z" />
    <glyph glyph-name="eth" unicode="&#xf0;" horiz-adv-x="578" 
d="M45 232c0 119 81 235 239 235c98 0 145 -56 145 -56h2c-24 69 -68 122 -125 161l-152 -69c-15 -7 -23 -4 -29 9l-4 8c-6 14 0 22 13 29l117 54c-34 18 -75 33 -117 45c-15 5 -21 15 -16 31l3 10c5 15 15 21 31 17c57 -16 118 -38 174 -71l106 48c15 7 24 4 29 -9l4 -9
c5 -12 1 -22 -13 -27l-79 -37c86 -68 150 -176 150 -328c0 -134 -73 -285 -247 -285c-148 0 -231 121 -231 244zM115 231c0 -92 58 -182 163 -182c123 0 175 115 175 211c0 86 -64 149 -163 149c-120 0 -175 -89 -175 -178z" />
    <glyph glyph-name="ntilde" unicode="&#xf1;" horiz-adv-x="584" 
d="M77 25v453c0 16 9 25 25 25h18c15 0 24 -9 24 -25v-58c0 -20 -4 -36 -4 -36h2c19 46 85 131 203 131c125 0 169 -71 169 -195v-295c0 -16 -9 -25 -25 -25h-19c-16 0 -24 9 -24 25v277c0 79 -13 149 -110 149c-107 0 -191 -88 -191 -205v-221c0 -16 -8 -25 -24 -25h-19
c-16 0 -25 9 -25 25zM173 588c-15 0 -22 9 -22 26c0 53 36 91 88 91c69 0 84 -72 129 -72c26 0 38 25 39 50c0 12 9 19 23 19h8c15 0 21 -8 21 -23c0 -58 -34 -94 -88 -94c-69 0 -84 71 -129 71c-26 0 -39 -25 -39 -51c-1 -11 -10 -17 -23 -17h-7z" />
    <glyph glyph-name="ograve" unicode="&#xf2;" horiz-adv-x="615" 
d="M42 254c0 149 119 261 265 261c147 0 266 -112 266 -261c0 -152 -119 -266 -265 -266c-147 0 -266 114 -266 266zM112 254c0 -117 88 -205 196 -205c107 0 195 88 195 205c0 114 -88 200 -195 200c-108 0 -196 -86 -196 -200zM296 585c-13 0 -22 5 -30 16l-53 73
c-12 17 -7 30 14 30h23c14 0 22 -5 29 -17l44 -74c9 -15 5 -28 -13 -28h-14z" />
    <glyph glyph-name="oacute" unicode="&#xf3;" horiz-adv-x="615" 
d="M307 585c-19 0 -26 13 -16 28l44 74c7 12 15 17 29 17h23c21 0 26 -13 14 -30l-53 -73c-8 -11 -17 -16 -30 -16h-11zM42 254c0 149 119 261 265 261c147 0 266 -112 266 -261c0 -152 -119 -266 -265 -266c-147 0 -266 114 -266 266zM112 254c0 -117 88 -205 196 -205
c107 0 195 88 195 205c0 114 -88 200 -195 200c-108 0 -196 -86 -196 -200z" />
    <glyph glyph-name="ocircumflex" unicode="&#xf4;" horiz-adv-x="615" 
d="M219 585c-19 0 -24 13 -13 30l52 73c8 11 17 16 30 16h37c14 0 22 -5 31 -16l51 -73c12 -17 7 -30 -11 -30h-17c-13 0 -20 5 -27 17l-44 64h-2l-44 -64c-7 -12 -14 -17 -28 -17h-15zM42 254c0 149 119 261 265 261c147 0 266 -112 266 -261c0 -152 -119 -266 -265 -266
c-147 0 -266 114 -266 266zM112 254c0 -117 88 -205 196 -205c107 0 195 88 195 205c0 114 -88 200 -195 200c-108 0 -196 -86 -196 -200z" />
    <glyph glyph-name="otilde" unicode="&#xf5;" horiz-adv-x="615" 
d="M42 254c0 149 119 261 265 261c147 0 266 -112 266 -261c0 -152 -119 -266 -265 -266c-147 0 -266 114 -266 266zM112 254c0 -117 88 -205 196 -205c107 0 195 88 195 205c0 114 -88 200 -195 200c-108 0 -196 -86 -196 -200zM175 588c-15 0 -22 9 -22 26
c0 53 36 91 88 91c69 0 84 -72 129 -72c26 0 38 25 39 50c0 12 9 19 23 19h8c15 0 21 -8 21 -23c0 -58 -34 -94 -88 -94c-69 0 -84 71 -129 71c-26 0 -39 -25 -39 -51c-1 -11 -10 -17 -23 -17h-7z" />
    <glyph glyph-name="odieresis" unicode="&#xf6;" horiz-adv-x="615" 
d="M376 618c-16 0 -24 8 -24 24v37c0 16 8 25 24 25h13c16 0 25 -9 25 -25v-37c0 -16 -9 -24 -25 -24h-13zM225 618c-16 0 -24 8 -24 24v37c0 16 8 25 24 25h13c16 0 24 -9 24 -25v-37c0 -16 -8 -24 -24 -24h-13zM42 254c0 149 119 261 265 261c147 0 266 -112 266 -261
c0 -152 -119 -266 -265 -266c-147 0 -266 114 -266 266zM112 254c0 -117 88 -205 196 -205c107 0 195 88 195 205c0 114 -88 200 -195 200c-108 0 -196 -86 -196 -200z" />
    <glyph glyph-name="divide" unicode="&#xf7;" horiz-adv-x="606" 
d="M290 433c-16 0 -25 8 -25 24v25c0 16 9 25 25 25h25c16 0 25 -9 25 -25v-25c0 -16 -9 -24 -25 -24h-25zM83 255c-16 0 -25 8 -25 24v9c0 16 9 25 25 25h440c16 0 25 -9 25 -25v-9c0 -16 -9 -24 -25 -24h-440zM265 85v25c0 16 9 25 25 25h25c16 0 25 -9 25 -25v-25
c0 -16 -9 -24 -25 -24h-25c-16 0 -25 8 -25 24z" />
    <glyph glyph-name="oslash" unicode="&#xf8;" horiz-adv-x="616" 
d="M113 14l25 35c-59 47 -95 120 -95 205c0 149 119 261 265 261c50 0 97 -13 137 -36l24 34c9 13 21 15 36 5c14 -10 15 -21 7 -31l-26 -38c54 -47 88 -116 88 -195c0 -152 -119 -266 -265 -266c-48 0 -91 11 -129 33l-24 -34c-9 -13 -21 -15 -35 -5c-14 11 -16 21 -8 32z
M176 102l232 324c-29 17 -63 28 -99 28c-108 0 -196 -86 -196 -200c0 -62 25 -115 63 -152zM217 73c27 -15 58 -24 92 -24c107 0 195 88 195 205c0 56 -22 105 -58 140z" />
    <glyph glyph-name="ugrave" unicode="&#xf9;" horiz-adv-x="580" 
d="M71 183v295c0 16 8 25 24 25h19c16 0 25 -9 25 -25v-277c0 -79 12 -149 109 -149c115 0 186 101 186 210v216c0 16 9 25 25 25h19c16 0 24 -9 24 -25v-453c0 -16 -8 -25 -24 -25h-18c-16 0 -24 9 -24 25v58c0 20 3 36 3 36h-2c-19 -49 -87 -131 -198 -131
c-119 0 -168 64 -168 195zM276 585c-13 0 -22 5 -30 16l-53 73c-12 17 -7 30 14 30h23c14 0 22 -5 29 -17l44 -74c9 -15 5 -28 -13 -28h-14z" />
    <glyph glyph-name="uacute" unicode="&#xfa;" horiz-adv-x="580" 
d="M285 585c-19 0 -26 13 -16 28l44 74c7 12 15 17 29 17h23c21 0 26 -13 14 -30l-53 -73c-8 -11 -17 -16 -30 -16h-11zM71 183v295c0 16 8 25 24 25h19c16 0 25 -9 25 -25v-277c0 -79 12 -149 109 -149c115 0 186 101 186 210v216c0 16 9 25 25 25h19c16 0 24 -9 24 -25
v-453c0 -16 -8 -25 -24 -25h-18c-16 0 -24 9 -24 25v58c0 20 3 36 3 36h-2c-19 -49 -87 -131 -198 -131c-119 0 -168 64 -168 195z" />
    <glyph glyph-name="ucircumflex" unicode="&#xfb;" horiz-adv-x="580" 
d="M198 585c-19 0 -24 13 -13 30l52 73c8 11 17 16 30 16h37c14 0 22 -5 31 -16l51 -73c12 -17 7 -30 -11 -30h-17c-13 0 -20 5 -27 17l-44 64h-2l-44 -64c-7 -12 -14 -17 -28 -17h-15zM71 183v295c0 16 8 25 24 25h19c16 0 25 -9 25 -25v-277c0 -79 12 -149 109 -149
c115 0 186 101 186 210v216c0 16 9 25 25 25h19c16 0 24 -9 24 -25v-453c0 -16 -8 -25 -24 -25h-18c-16 0 -24 9 -24 25v58c0 20 3 36 3 36h-2c-19 -49 -87 -131 -198 -131c-119 0 -168 64 -168 195z" />
    <glyph glyph-name="udieresis" unicode="&#xfc;" horiz-adv-x="580" 
d="M355 618c-16 0 -24 8 -24 24v37c0 16 8 25 24 25h13c16 0 25 -9 25 -25v-37c0 -16 -9 -24 -25 -24h-13zM204 618c-16 0 -24 8 -24 24v37c0 16 8 25 24 25h13c16 0 24 -9 24 -25v-37c0 -16 -8 -24 -24 -24h-13zM71 183v295c0 16 8 25 24 25h19c16 0 25 -9 25 -25v-277
c0 -79 12 -149 109 -149c115 0 186 101 186 210v216c0 16 9 25 25 25h19c16 0 24 -9 24 -25v-453c0 -16 -8 -25 -24 -25h-18c-16 0 -24 9 -24 25v58c0 20 3 36 3 36h-2c-19 -49 -87 -131 -198 -131c-119 0 -168 64 -168 195z" />
    <glyph glyph-name="yacute" unicode="&#xfd;" horiz-adv-x="491" 
d="M17 -149c7 13 18 16 30 12c11 -5 26 -13 44 -13c45 0 75 39 94 83l30 71l-198 470c-7 17 1 29 19 29h23c15 0 23 -6 28 -19l141 -348c9 -25 18 -53 18 -53h2s7 28 17 53l138 347c5 14 13 20 28 20h22c18 0 26 -11 20 -29l-237 -576c-26 -65 -78 -108 -145 -108
c-29 0 -53 10 -69 18c-13 6 -17 20 -11 32zM246 584c-19 0 -26 13 -16 28l44 74c7 12 15 17 29 17h23c21 0 26 -13 14 -30l-53 -73c-8 -11 -17 -16 -30 -16h-11z" />
    <glyph glyph-name="thorn" unicode="&#xfe;" horiz-adv-x="582" 
d="M79 -175v853c0 16 8 25 24 25h19c16 0 25 -9 25 -25v-219c0 -23 -2 -40 -2 -40h2c7 6 46 96 170 96c135 0 220 -109 220 -263c0 -158 -94 -264 -225 -264c-124 0 -165 96 -165 96h-2s2 -18 2 -44v-215c0 -16 -9 -25 -25 -25h-19c-16 0 -24 9 -24 25zM145 251
c0 -108 59 -202 160 -202c90 0 162 77 162 203c0 121 -65 202 -159 202c-85 0 -163 -59 -163 -203z" />
    <glyph glyph-name="ydieresis" unicode="&#xff;" horiz-adv-x="491" 
d="M17 -149c7 13 18 16 30 12c11 -5 26 -13 44 -13c45 0 75 39 94 83l30 71l-198 470c-7 17 1 29 19 29h23c15 0 23 -6 28 -19l141 -348c9 -25 18 -53 18 -53h2s7 28 17 53l138 347c5 14 13 20 28 20h22c18 0 26 -11 20 -29l-237 -576c-26 -65 -78 -108 -145 -108
c-29 0 -53 10 -69 18c-13 6 -17 20 -11 32zM317 617c-16 0 -24 8 -24 24v37c0 16 8 25 24 25h13c16 0 25 -9 25 -25v-37c0 -16 -9 -24 -25 -24h-13zM166 617c-16 0 -24 8 -24 24v37c0 16 8 25 24 25h13c16 0 24 -9 24 -25v-37c0 -16 -8 -24 -24 -24h-13z" />
    <glyph glyph-name="Amacron" unicode="&#x100;" horiz-adv-x="609" 
d="M19 29l242 654c4 14 14 20 27 20h33c13 0 23 -6 27 -20l242 -654c5 -18 -2 -29 -20 -29h-22c-14 0 -24 6 -28 20l-75 204h-282l-74 -204c-4 -14 -14 -20 -28 -20h-21c-19 0 -26 11 -21 29zM183 284h242l-93 255c-11 33 -26 92 -26 92h-2s-16 -59 -27 -92zM206 785
c-16 0 -25 8 -25 24v7c0 16 9 24 25 24h197c16 0 24 -8 24 -24v-7c0 -16 -8 -24 -24 -24h-197z" />
    <glyph glyph-name="amacron" unicode="&#x101;" horiz-adv-x="508" 
d="M34 135c0 164 210 173 307 173h29v16c0 97 -53 130 -124 130c-56 0 -99 -21 -122 -35c-14 -7 -25 -5 -34 8l-6 10c-8 13 -6 26 7 34c26 16 82 44 160 44c120 0 187 -67 187 -193v-297c0 -16 -8 -25 -24 -25h-16c-16 0 -25 8 -25 25v40c0 23 3 38 3 38h-2
c1 0 -45 -115 -170 -115c-85 0 -170 50 -170 147zM104 141c0 -47 37 -96 112 -96c97 0 154 100 154 188v24h-28c-79 0 -238 -3 -238 -116zM154 618c-16 0 -25 8 -25 24v7c0 16 9 24 25 24h197c16 0 24 -8 24 -24v-7c0 -16 -8 -24 -24 -24h-197z" />
    <glyph glyph-name="Abreve" unicode="&#x102;" horiz-adv-x="609" 
d="M19 29l242 654c4 14 14 20 27 20h33c13 0 23 -6 27 -20l242 -654c5 -18 -2 -29 -20 -29h-22c-14 0 -24 6 -28 20l-75 204h-282l-74 -204c-4 -14 -14 -20 -28 -20h-21c-19 0 -26 11 -21 29zM183 284h242l-93 255c-11 33 -26 92 -26 92h-2s-16 -59 -27 -92zM304 749
c-58 0 -115 42 -115 103c0 12 8 19 23 19h10c15 0 21 -6 23 -18c4 -41 28 -57 59 -57s56 16 60 57c2 10 8 18 23 18h10c15 0 23 -5 23 -19c0 -58 -54 -103 -116 -103z" />
    <glyph glyph-name="abreve" unicode="&#x103;" horiz-adv-x="508" 
d="M34 135c0 164 210 173 307 173h29v16c0 97 -53 130 -124 130c-56 0 -99 -21 -122 -35c-14 -7 -25 -5 -34 8l-6 10c-8 13 -6 26 7 34c26 16 82 44 160 44c120 0 187 -67 187 -193v-297c0 -16 -8 -25 -24 -25h-16c-16 0 -25 8 -25 25v40c0 23 3 38 3 38h-2
c1 0 -45 -115 -170 -115c-85 0 -170 50 -170 147zM104 141c0 -47 37 -96 112 -96c97 0 154 100 154 188v24h-28c-79 0 -238 -3 -238 -116zM252 582c-58 0 -115 42 -115 103c0 12 8 19 23 19h10c15 0 21 -6 23 -18c4 -41 28 -57 59 -57s56 16 60 57c2 10 8 18 23 18h10
c15 0 23 -5 23 -19c0 -58 -54 -103 -116 -103z" />
    <glyph glyph-name="Aogonek" unicode="&#x104;" horiz-adv-x="609" 
d="M19 29l242 654c5 14 14 20 27 20h33c13 0 22 -6 27 -20l242 -654c5 -16 7 -28 -4 -38c-25 -21 -64 -55 -64 -91c0 -30 27 -42 46 -48c12 -4 16 -12 13 -25l-1 -11c-2 -14 -13 -20 -26 -18c-33 6 -94 27 -94 90c0 55 49 100 76 120c0 0 -15 6 -20 23l-71 193h-282
l-74 -204c-4 -14 -14 -20 -28 -20h-21c-19 0 -26 11 -21 29zM183 284h242l-93 255c-11 33 -26 92 -26 92h-2s-16 -59 -27 -92z" />
    <glyph glyph-name="aogonek" unicode="&#x105;" horiz-adv-x="510" 
d="M34 135c0 164 210 173 307 173h29v16c0 97 -53 130 -124 130c-56 0 -99 -21 -122 -35c-14 -7 -25 -5 -34 8l-6 10c-8 13 -6 26 7 34c26 16 82 44 160 44c120 0 187 -67 187 -193v-297c0 -39 -76 -64 -76 -125c0 -30 27 -42 46 -48c12 -4 16 -12 13 -25l-1 -11
c-3 -14 -13 -20 -26 -18c-33 6 -94 27 -94 90c0 54 49 100 78 120c-4 3 -5 9 -5 17v40c0 23 3 38 3 38h-2c1 0 -45 -115 -170 -115c-85 0 -170 50 -170 147zM104 141c0 -47 37 -96 112 -96c97 0 154 100 154 188v24h-28c-79 0 -238 -3 -238 -116z" />
    <glyph glyph-name="Cacute" unicode="&#x106;" horiz-adv-x="710" 
d="M397 752c-19 0 -26 13 -16 28l44 74c7 12 15 17 29 17h23c21 0 26 -13 14 -30l-53 -73c-8 -11 -17 -16 -30 -16h-11zM51 356c0 204 146 359 353 359c125 0 204 -50 236 -75c12 -10 12 -22 4 -35l-9 -13c-9 -12 -21 -13 -34 -4c-30 21 -98 62 -195 62
c-171 0 -283 -128 -283 -293c0 -167 112 -304 286 -304c105 0 178 51 209 76c12 10 24 10 34 -3l9 -11c10 -12 9 -24 -2 -35c-33 -28 -120 -92 -252 -92c-214 0 -356 163 -356 368z" />
    <glyph glyph-name="cacute" unicode="&#x107;" horiz-adv-x="532" 
d="M287 585c-19 0 -26 13 -16 28l44 74c7 12 15 17 29 17h23c21 0 26 -13 14 -30l-53 -73c-8 -11 -17 -16 -30 -16h-11zM43 251c0 155 115 264 264 264c86 0 142 -37 167 -57c12 -9 13 -21 3 -34l-7 -11c-9 -14 -20 -14 -34 -5c-22 17 -66 46 -127 46
c-110 0 -196 -83 -196 -203c0 -119 86 -202 197 -202c70 0 118 33 142 53c13 10 24 8 33 -6l7 -10c8 -13 5 -24 -6 -34c-26 -21 -86 -64 -179 -64c-150 0 -264 107 -264 263z" />
    <glyph glyph-name="Ccircumflex" unicode="&#x108;" horiz-adv-x="710" 
d="M309 752c-19 0 -24 13 -13 30l52 73c8 11 17 16 30 16h37c14 0 22 -5 31 -16l51 -73c12 -17 7 -30 -11 -30h-17c-13 0 -20 5 -27 17l-44 64h-2l-44 -64c-7 -12 -14 -17 -28 -17h-15zM51 356c0 204 146 359 353 359c125 0 204 -50 236 -75c12 -10 12 -22 4 -35l-9 -13
c-9 -12 -21 -13 -34 -4c-30 21 -98 62 -195 62c-171 0 -283 -128 -283 -293c0 -167 112 -304 286 -304c105 0 178 51 209 76c12 10 24 10 34 -3l9 -11c10 -12 9 -24 -2 -35c-33 -28 -120 -92 -252 -92c-214 0 -356 163 -356 368z" />
    <glyph glyph-name="ccircumflex" unicode="&#x109;" horiz-adv-x="532" 
d="M200 585c-19 0 -24 13 -13 30l52 73c8 11 17 16 30 16h37c14 0 22 -5 31 -16l51 -73c12 -17 7 -30 -11 -30h-17c-13 0 -20 5 -27 17l-44 64h-2l-44 -64c-7 -12 -14 -17 -28 -17h-15zM43 251c0 155 115 264 264 264c86 0 142 -37 167 -57c12 -9 13 -21 3 -34l-7 -11
c-9 -14 -20 -14 -34 -5c-22 17 -66 46 -127 46c-110 0 -196 -83 -196 -203c0 -119 86 -202 197 -202c70 0 118 33 142 53c13 10 24 8 33 -6l7 -10c8 -13 5 -24 -6 -34c-26 -21 -86 -64 -179 -64c-150 0 -264 107 -264 263z" />
    <glyph glyph-name="Cdotaccent" unicode="&#x10a;" horiz-adv-x="710" 
d="M51 356c0 204 146 359 353 359c125 0 204 -50 236 -75c12 -10 12 -22 4 -35l-9 -13c-9 -12 -21 -13 -34 -4c-30 21 -98 62 -195 62c-171 0 -283 -128 -283 -293c0 -167 112 -304 286 -304c105 0 178 51 209 76c12 10 24 10 34 -3l9 -11c10 -12 9 -24 -2 -35
c-33 -28 -120 -92 -252 -92c-214 0 -356 163 -356 368zM389 786c-16 0 -24 9 -24 25v35c0 16 8 25 24 25h17c16 0 24 -9 24 -25v-35c0 -16 -8 -25 -24 -25h-17z" />
    <glyph glyph-name="cdotaccent" unicode="&#x10b;" horiz-adv-x="532" 
d="M43 251c0 155 115 264 264 264c86 0 142 -37 167 -57c12 -9 13 -21 3 -34l-7 -11c-9 -14 -20 -14 -34 -5c-22 17 -66 46 -127 46c-110 0 -196 -83 -196 -203c0 -119 86 -202 197 -202c70 0 118 33 142 53c13 10 24 8 33 -6l7 -10c8 -13 5 -24 -6 -34
c-26 -21 -86 -64 -179 -64c-150 0 -264 107 -264 263zM279 619c-16 0 -24 9 -24 25v35c0 16 8 25 24 25h17c16 0 24 -9 24 -25v-35c0 -16 -8 -25 -24 -25h-17z" />
    <glyph glyph-name="Ccaron" unicode="&#x10c;" horiz-adv-x="710" 
d="M378 752c-13 0 -22 5 -30 16l-52 73c-11 17 -6 30 13 30h15c14 0 21 -5 28 -16l44 -64h2l44 64c7 11 14 16 27 16h16c19 0 24 -13 12 -30l-51 -73c-9 -11 -17 -16 -31 -16h-37zM51 356c0 204 146 359 353 359c125 0 204 -50 236 -75c12 -10 12 -22 4 -35l-9 -13
c-9 -12 -21 -13 -34 -4c-30 21 -98 62 -195 62c-171 0 -283 -128 -283 -293c0 -167 112 -304 286 -304c105 0 178 51 209 76c12 10 24 10 34 -3l9 -11c10 -12 9 -24 -2 -35c-33 -28 -120 -92 -252 -92c-214 0 -356 163 -356 368z" />
    <glyph glyph-name="ccaron" unicode="&#x10d;" horiz-adv-x="532" 
d="M269 585c-13 0 -22 5 -30 16l-52 73c-11 17 -6 30 13 30h15c14 0 21 -5 28 -16l44 -64h2l44 64c7 11 14 16 27 16h16c19 0 24 -13 12 -30l-51 -73c-9 -11 -17 -16 -31 -16h-37zM43 251c0 155 115 264 264 264c86 0 142 -37 167 -57c12 -9 13 -21 3 -34l-7 -11
c-9 -14 -20 -14 -34 -5c-22 17 -66 46 -127 46c-110 0 -196 -83 -196 -203c0 -119 86 -202 197 -202c70 0 118 33 142 53c13 10 24 8 33 -6l7 -10c8 -13 5 -24 -6 -34c-26 -21 -86 -64 -179 -64c-150 0 -264 107 -264 263z" />
    <glyph glyph-name="Dcaron" unicode="&#x10e;" horiz-adv-x="731" 
d="M318 752c-13 0 -22 5 -30 16l-52 73c-11 17 -6 30 13 30h15c14 0 21 -5 28 -16l44 -64h2l44 64c7 11 14 16 27 16h16c19 0 24 -13 12 -30l-51 -73c-9 -11 -17 -16 -31 -16h-37zM98 25v653c0 16 8 25 24 25h203c211 0 353 -129 353 -351c0 -224 -142 -352 -353 -352h-203
c-16 0 -24 9 -24 25zM167 62h151c173 0 288 101 288 290c0 187 -116 289 -288 289h-151v-579z" />
    <glyph glyph-name="dcaron" unicode="&#x10f;" horiz-adv-x="581" 
d="M567 685c0 12 8 17 22 17h15c27 0 29 -30 29 -51c0 -35 -15 -92 -44 -92h-6c-14 0 -22 6 -22 16c0 12 10 22 10 63c0 30 -4 29 -4 47zM45 252c0 159 94 263 226 263c122 0 165 -101 165 -101h2s-3 17 -3 38v226c0 16 9 25 25 25h19c16 0 24 -9 24 -25v-653
c0 -16 -8 -25 -24 -25h-17c-16 0 -25 8 -25 24v38c0 18 4 31 4 31h-2s-43 -105 -175 -105c-135 0 -219 108 -219 264zM115 252c0 -124 65 -203 159 -203c84 0 163 60 163 203c0 102 -52 201 -160 201c-89 0 -162 -74 -162 -201z" />
    <glyph glyph-name="Dcroat" unicode="&#x110;" horiz-adv-x="731" 
d="M98 25v298h-35c-16 0 -24 9 -24 25v11c0 16 7 24 19 24h40v295c0 16 9 25 25 25h202c211 0 353 -129 353 -351c0 -224 -142 -352 -353 -352h-202c-16 0 -25 9 -25 25zM167 62h151c173 0 288 101 288 290c0 187 -115 289 -288 289h-151v-258h143c16 0 25 -8 25 -24v-11
c0 -16 -9 -25 -24 -25h-144v-261z" />
    <glyph glyph-name="dcroat" unicode="&#x111;" horiz-adv-x="581" 
d="M45 252c0 159 94 263 226 263c122 0 164 -97 164 -97h2s-2 17 -2 38v110h-107c-16 0 -25 8 -25 23v6c0 14 9 22 25 22h107v61c0 16 9 25 25 25h19c16 0 24 -9 24 -25v-61h55c16 0 25 -8 25 -22v-6c0 -15 -7 -23 -20 -23h-60v-541c0 -16 -8 -25 -24 -25h-17
c-16 0 -25 8 -25 24v34c0 18 2 31 2 31h-2s-41 -101 -173 -101c-135 0 -219 108 -219 264zM115 252c0 -124 65 -203 159 -203c84 0 163 60 163 203c0 102 -52 202 -160 202c-89 0 -162 -75 -162 -202z" />
    <glyph glyph-name="Emacron" unicode="&#x112;" horiz-adv-x="553" 
d="M98 25v653c0 16 8 25 24 25h347c16 0 25 -9 25 -25v-12c0 -16 -9 -25 -25 -25h-302v-256h242c16 0 25 -8 25 -24v-13c0 -16 -9 -25 -25 -25h-242v-261h320c16 0 25 -9 25 -25v-12c0 -16 -9 -25 -25 -25h-365c-16 0 -24 9 -24 25zM209 785c-16 0 -25 8 -25 24v7
c0 16 9 24 25 24h197c16 0 24 -8 24 -24v-7c0 -16 -8 -24 -24 -24h-197z" />
    <glyph glyph-name="emacron" unicode="&#x113;" horiz-adv-x="544" 
d="M44 251c0 165 112 264 248 264c134 0 210 -97 210 -240c0 -14 -11 -25 -26 -25h-362c3 -128 91 -201 195 -201c63 0 109 28 132 46c14 9 25 7 33 -6l8 -12c7 -12 5 -24 -7 -33c-27 -20 -87 -56 -168 -56c-150 0 -263 108 -263 263zM117 301h316c-4 106 -68 158 -143 158
c-84 0 -157 -56 -173 -158zM194 618c-16 0 -25 8 -25 24v7c0 16 9 24 25 24h197c16 0 24 -8 24 -24v-7c0 -16 -8 -24 -24 -24h-197z" />
    <glyph glyph-name="Ebreve" unicode="&#x114;" horiz-adv-x="553" 
d="M98 25v653c0 16 8 25 24 25h347c16 0 25 -9 25 -25v-12c0 -16 -9 -25 -25 -25h-302v-256h242c16 0 25 -8 25 -24v-13c0 -16 -9 -25 -25 -25h-242v-261h320c16 0 25 -9 25 -25v-12c0 -16 -9 -25 -25 -25h-365c-16 0 -24 9 -24 25zM306 749c-58 0 -115 42 -115 103
c0 12 8 19 23 19h10c15 0 21 -6 23 -18c4 -41 28 -57 59 -57s56 16 60 57c2 10 8 18 23 18h10c15 0 23 -5 23 -19c0 -58 -54 -103 -116 -103z" />
    <glyph glyph-name="ebreve" unicode="&#x115;" horiz-adv-x="544" 
d="M44 251c0 165 112 264 248 264c134 0 210 -97 210 -240c0 -14 -11 -25 -26 -25h-362c3 -128 91 -201 195 -201c63 0 109 28 132 46c14 9 25 7 33 -6l8 -12c7 -12 5 -24 -7 -33c-27 -20 -87 -56 -168 -56c-150 0 -263 108 -263 263zM117 301h316c-4 106 -68 158 -143 158
c-84 0 -157 -56 -173 -158zM291 582c-58 0 -115 42 -115 103c0 12 8 19 23 19h10c15 0 21 -6 23 -18c4 -41 28 -57 59 -57s56 16 60 57c2 10 8 18 23 18h10c15 0 23 -5 23 -19c0 -58 -54 -103 -116 -103z" />
    <glyph glyph-name="Edotaccent" unicode="&#x116;" horiz-adv-x="553" 
d="M98 25v653c0 16 8 25 24 25h347c16 0 25 -9 25 -25v-12c0 -16 -9 -25 -25 -25h-302v-256h242c16 0 25 -8 25 -24v-13c0 -16 -9 -25 -25 -25h-242v-261h320c16 0 25 -9 25 -25v-12c0 -16 -9 -25 -25 -25h-365c-16 0 -24 9 -24 25zM298 786c-16 0 -24 9 -24 25v35
c0 16 8 25 24 25h17c16 0 24 -9 24 -25v-35c0 -16 -8 -25 -24 -25h-17z" />
    <glyph glyph-name="edotaccent" unicode="&#x117;" horiz-adv-x="544" 
d="M44 251c0 165 112 264 248 264c134 0 210 -97 210 -240c0 -14 -11 -25 -26 -25h-362c3 -128 91 -201 195 -201c63 0 109 28 132 46c14 9 25 7 33 -6l8 -12c7 -12 5 -24 -7 -33c-27 -20 -87 -56 -168 -56c-150 0 -263 108 -263 263zM117 301h316c-4 106 -68 158 -143 158
c-84 0 -157 -56 -173 -158zM283 619c-16 0 -24 9 -24 25v35c0 16 8 25 24 25h17c16 0 24 -9 24 -25v-35c0 -16 -8 -25 -24 -25h-17z" />
    <glyph glyph-name="Eogonek" unicode="&#x118;" horiz-adv-x="553" 
d="M98 25v653c0 16 8 25 24 25h347c16 0 25 -9 25 -25v-12c0 -16 -9 -25 -25 -25h-302v-256h242c16 0 25 -8 25 -24v-13c0 -16 -9 -25 -25 -25h-242v-261h320c16 0 25 -9 25 -25v-14c0 -33 -80 -63 -80 -123c0 -30 27 -42 46 -48c12 -4 16 -12 14 -25l-2 -11
c-2 -14 -13 -20 -26 -18c-33 6 -94 27 -94 90c0 49 37 89 65 112h-313c-16 0 -24 9 -24 25z" />
    <glyph glyph-name="eogonek" unicode="&#x119;" horiz-adv-x="544" 
d="M44 251c0 165 112 264 248 264c137 0 210 -105 210 -241c0 -14 -10 -24 -25 -24h-363c3 -128 91 -201 195 -201c63 0 109 28 132 46c14 9 26 7 34 -7l6 -10c8 -14 6 -24 -5 -34c-44 -36 -129 -84 -129 -144c0 -30 27 -42 46 -48c12 -4 17 -12 14 -25l-2 -11
c-3 -14 -13 -20 -26 -18c-33 5 -94 28 -94 89c0 44 28 79 56 105c-11 -2 -22 -4 -34 -4c-150 0 -263 108 -263 263zM117 301h316c-4 106 -68 157 -143 157c-84 0 -157 -55 -173 -157z" />
    <glyph glyph-name="Ecaron" unicode="&#x11a;" horiz-adv-x="553" 
d="M288 752c-13 0 -22 5 -30 16l-52 73c-11 17 -6 30 13 30h15c14 0 21 -5 28 -16l44 -64h2l44 64c7 11 14 16 27 16h16c19 0 24 -13 12 -30l-51 -73c-9 -11 -17 -16 -31 -16h-37zM98 25v653c0 16 8 25 24 25h347c16 0 25 -9 25 -25v-12c0 -16 -9 -25 -25 -25h-302v-256h242
c16 0 25 -8 25 -24v-13c0 -16 -9 -25 -25 -25h-242v-261h320c16 0 25 -9 25 -25v-12c0 -16 -9 -25 -25 -25h-365c-16 0 -24 9 -24 25z" />
    <glyph glyph-name="ecaron" unicode="&#x11b;" horiz-adv-x="544" 
d="M273 585c-13 0 -22 5 -30 16l-52 73c-11 17 -6 30 13 30h15c14 0 21 -5 28 -16l44 -64h2l44 64c7 11 14 16 27 16h16c19 0 24 -13 12 -30l-51 -73c-9 -11 -17 -16 -31 -16h-37zM44 251c0 165 112 264 248 264c134 0 210 -97 210 -240c0 -14 -11 -25 -26 -25h-362
c3 -128 91 -201 195 -201c63 0 109 28 132 46c14 9 25 7 33 -6l8 -12c7 -12 5 -24 -7 -33c-27 -20 -87 -56 -168 -56c-150 0 -263 108 -263 263zM117 301h316c-4 106 -68 158 -143 158c-84 0 -157 -56 -173 -158z" />
    <glyph glyph-name="Gcircumflex" unicode="&#x11c;" horiz-adv-x="748" 
d="M306 752c-19 0 -24 13 -13 30l52 73c8 11 17 16 30 16h37c14 0 22 -5 31 -16l51 -73c12 -17 7 -30 -11 -30h-17c-13 0 -20 5 -27 17l-44 64h-2l-44 -64c-7 -12 -14 -17 -28 -17h-15zM51 351c0 205 152 364 355 364c120 0 201 -46 231 -67c13 -10 14 -22 4 -34l-9 -13
c-9 -13 -21 -15 -34 -6c-30 19 -96 55 -190 55c-170 0 -285 -131 -285 -297c0 -172 119 -300 279 -300c141 0 222 103 222 103v118h-96c-16 0 -24 9 -24 25v12c0 16 8 25 24 25h137c16 0 24 -9 24 -25v-286c0 -16 -8 -25 -24 -25h-14c-16 0 -25 9 -25 22v36c0 13 1 26 1 26
h-2s-80 -96 -229 -96c-193 0 -345 155 -345 363z" />
    <glyph glyph-name="gcircumflex" unicode="&#x11d;" horiz-adv-x="574" 
d="M192 585c-19 0 -24 13 -13 30l52 73c8 11 17 16 30 16h37c14 0 22 -5 31 -16l51 -73c12 -17 7 -30 -11 -30h-17c-13 0 -20 5 -27 17l-44 64h-2l-44 -64c-7 -12 -14 -17 -28 -17h-15zM107 -134c7 13 16 17 32 11c22 -10 61 -26 117 -26c93 0 173 46 173 158v52
c0 19 3 36 3 36h-2c-30 -57 -81 -94 -160 -94c-135 0 -224 106 -224 261c0 148 82 251 222 251c130 0 164 -92 164 -92h2s-2 7 -2 17v41c0 13 8 22 24 22h16c16 0 25 -9 25 -25v-466c0 -160 -119 -222 -239 -222c-52 0 -103 11 -145 30c-15 7 -19 17 -12 32zM280 64
c80 0 150 49 150 195c0 149 -72 195 -156 195c-102 0 -158 -72 -158 -188c0 -126 65 -202 164 -202z" />
    <glyph glyph-name="Gbreve" unicode="&#x11e;" horiz-adv-x="748" 
d="M51 351c0 205 152 364 355 364c120 0 201 -46 231 -67c13 -10 14 -22 4 -34l-9 -13c-9 -13 -21 -15 -34 -6c-30 19 -96 55 -190 55c-170 0 -285 -131 -285 -297c0 -172 119 -300 279 -300c141 0 222 103 222 103v118h-96c-16 0 -24 9 -24 25v12c0 16 8 25 24 25h137
c16 0 24 -9 24 -25v-286c0 -16 -8 -25 -24 -25h-14c-16 0 -25 9 -25 22v36c0 13 1 26 1 26h-2s-80 -96 -229 -96c-193 0 -345 155 -345 363zM394 749c-58 0 -115 42 -115 103c0 12 8 19 23 19h10c15 0 21 -6 23 -18c4 -41 28 -57 59 -57s56 16 60 57c2 10 8 18 23 18h10
c15 0 23 -5 23 -19c0 -58 -54 -103 -116 -103z" />
    <glyph glyph-name="gbreve" unicode="&#x11f;" horiz-adv-x="574" 
d="M107 -134c7 13 16 17 32 11c22 -10 61 -26 117 -26c93 0 173 46 173 158v52c0 19 3 36 3 36h-2c-30 -57 -81 -94 -160 -94c-135 0 -224 106 -224 261c0 148 82 251 222 251c130 0 164 -92 164 -92h2s-2 7 -2 17v41c0 13 8 22 24 22h16c16 0 25 -9 25 -25v-466
c0 -160 -119 -222 -239 -222c-52 0 -103 11 -145 30c-15 7 -19 17 -12 32zM280 64c80 0 150 49 150 195c0 149 -72 195 -156 195c-102 0 -158 -72 -158 -188c0 -126 65 -202 164 -202zM279 582c-58 0 -115 42 -115 103c0 12 8 19 23 19h10c15 0 21 -6 23 -18
c4 -41 28 -57 59 -57s56 16 60 57c2 10 8 18 23 18h10c15 0 23 -5 23 -19c0 -58 -54 -103 -116 -103z" />
    <glyph glyph-name="Gdotaccent" unicode="&#x120;" horiz-adv-x="748" 
d="M51 351c0 205 152 364 355 364c120 0 201 -46 231 -67c13 -10 14 -22 4 -34l-9 -13c-9 -13 -21 -15 -34 -6c-30 19 -96 55 -190 55c-170 0 -285 -131 -285 -297c0 -172 119 -300 279 -300c141 0 222 103 222 103v118h-96c-16 0 -24 9 -24 25v12c0 16 8 25 24 25h137
c16 0 24 -9 24 -25v-286c0 -16 -8 -25 -24 -25h-14c-16 0 -25 9 -25 22v36c0 13 1 26 1 26h-2s-80 -96 -229 -96c-193 0 -345 155 -345 363zM386 786c-16 0 -24 9 -24 25v35c0 16 8 25 24 25h17c16 0 24 -9 24 -25v-35c0 -16 -8 -25 -24 -25h-17z" />
    <glyph glyph-name="gdotaccent" unicode="&#x121;" horiz-adv-x="574" 
d="M107 -134c7 13 16 17 32 11c22 -10 61 -26 117 -26c93 0 173 46 173 158v52c0 19 3 36 3 36h-2c-30 -57 -81 -94 -160 -94c-135 0 -224 106 -224 261c0 148 82 251 222 251c130 0 164 -92 164 -92h2s-2 7 -2 17v41c0 13 8 22 24 22h16c16 0 25 -9 25 -25v-466
c0 -160 -119 -222 -239 -222c-52 0 -103 11 -145 30c-15 7 -19 17 -12 32zM280 64c80 0 150 49 150 195c0 149 -72 195 -156 195c-102 0 -158 -72 -158 -188c0 -126 65 -202 164 -202zM271 619c-16 0 -24 9 -24 25v35c0 16 8 25 24 25h17c16 0 24 -9 24 -25v-35
c0 -16 -8 -25 -24 -25h-17z" />
    <glyph glyph-name="Gcommaaccent" unicode="&#x122;" horiz-adv-x="748" 
d="M363 -80c0 12 8 17 22 17h15c27 0 29 -30 29 -51c0 -35 -15 -92 -44 -92h-6c-14 0 -22 6 -22 16c0 12 10 22 10 63c0 30 -4 29 -4 47zM51 351c0 205 152 364 355 364c120 0 201 -46 231 -67c13 -10 14 -22 4 -34l-9 -13c-9 -13 -21 -15 -34 -6c-30 19 -96 55 -190 55
c-170 0 -285 -131 -285 -297c0 -172 119 -300 279 -300c141 0 222 103 222 103v118h-96c-16 0 -24 9 -24 25v12c0 16 8 25 24 25h137c16 0 24 -9 24 -25v-286c0 -16 -8 -25 -24 -25h-14c-16 0 -25 9 -25 22v36c0 13 1 26 1 26h-2s-80 -96 -229 -96c-193 0 -345 155 -345 363
z" />
    <glyph glyph-name="gcommaaccent" unicode="&#x123;" horiz-adv-x="574" 
d="M313 583c0 -12 -8 -17 -22 -17h-15c-27 0 -29 30 -29 51c0 35 15 92 44 92h6c14 0 22 -6 22 -16c0 -12 -10 -22 -10 -63c0 -30 4 -29 4 -47zM107 -134c7 13 16 17 32 11c22 -10 61 -26 117 -26c93 0 173 46 173 158v52c0 19 3 36 3 36h-2c-30 -57 -81 -94 -160 -94
c-135 0 -224 106 -224 261c0 148 82 251 222 251c130 0 164 -92 164 -92h2s-2 7 -2 17v41c0 13 8 22 24 22h16c16 0 25 -9 25 -25v-466c0 -160 -119 -222 -239 -222c-52 0 -103 11 -145 30c-15 7 -19 17 -12 32zM280 64c80 0 150 49 150 195c0 149 -72 195 -156 195
c-102 0 -158 -72 -158 -188c0 -126 65 -202 164 -202z" />
    <glyph glyph-name="Hcircumflex" unicode="&#x124;" horiz-adv-x="742" 
d="M282 752c-19 0 -24 13 -13 30l52 73c8 11 17 16 30 16h37c14 0 22 -5 31 -16l51 -73c12 -17 7 -30 -11 -30h-17c-13 0 -20 5 -27 17l-44 64h-2l-44 -64c-7 -12 -14 -17 -28 -17h-15zM98 25v653c0 16 8 25 24 25h21c15 0 24 -9 24 -25v-295h408v295c0 16 8 25 24 25h20
c16 0 25 -9 25 -25v-653c0 -16 -9 -25 -25 -25h-20c-16 0 -24 9 -24 25v296h-408v-296c0 -16 -9 -25 -24 -25h-21c-16 0 -24 9 -24 25z" />
    <glyph glyph-name="hcircumflex" unicode="&#x125;" horiz-adv-x="585" 
d="M25 752c-19 0 -24 13 -13 30l52 73c8 11 17 16 30 16h37c14 0 22 -5 31 -16l51 -73c12 -17 7 -30 -11 -30h-17c-13 0 -20 5 -27 17l-44 64h-2l-44 -64c-7 -12 -14 -17 -28 -17h-15zM78 25v653c0 16 8 25 24 25h19c16 0 25 -9 25 -25v-251c0 -23 -4 -41 -4 -41h2
c19 47 87 129 201 129c125 0 169 -71 169 -195v-295c0 -16 -8 -25 -24 -25h-19c-16 0 -25 9 -25 25v277c0 79 -12 149 -110 149c-106 0 -190 -87 -190 -208v-218c0 -16 -9 -25 -25 -25h-19c-16 0 -24 9 -24 25z" />
    <glyph glyph-name="Hbar" unicode="&#x126;" horiz-adv-x="741" 
d="M99 25v487h-41c-16 0 -25 8 -25 24v6c0 16 9 23 25 23h41v113c0 16 8 25 24 25h21c16 0 25 -8 25 -23v-115h404v113c0 16 8 25 24 25h21c16 0 25 -8 25 -23v-115h40c16 0 25 -7 25 -23v-6c0 -16 -9 -24 -25 -24h-40v-487c0 -16 -9 -25 -25 -25h-21c-16 0 -24 9 -24 25
v296h-404v-296c0 -16 -9 -25 -25 -25h-21c-16 0 -24 9 -24 25zM169 383h404v129h-404v-129z" />
    <glyph glyph-name="hbar" unicode="&#x127;" horiz-adv-x="585" 
d="M78 25v541h-52c-16 0 -25 8 -25 23v6c0 14 9 22 25 22h52v61c0 16 8 25 24 25h19c16 0 25 -7 25 -20v-66h108c16 0 25 -8 25 -22v-6c0 -15 -9 -23 -25 -23h-108v-135c0 -23 -2 -41 -2 -41h2c19 47 85 125 199 125c125 0 169 -71 169 -195v-295c0 -16 -8 -25 -24 -25h-19
c-16 0 -25 9 -25 25v277c0 79 -12 149 -110 149c-111 0 -190 -94 -190 -205v-221c0 -16 -9 -25 -25 -25h-19c-16 0 -24 9 -24 25z" />
    <glyph glyph-name="Itilde" unicode="&#x128;" horiz-adv-x="265" 
d="M98 25v653c0 16 8 25 24 25h21c15 0 24 -9 24 -25v-653c0 -16 -9 -25 -24 -25h-21c-16 0 -24 9 -24 25zM2 755c-15 0 -22 9 -22 26c0 53 36 91 88 91c69 0 84 -72 129 -72c26 0 38 25 39 50c0 12 9 19 23 19h8c15 0 21 -8 21 -23c0 -58 -34 -94 -88 -94
c-69 0 -84 71 -129 71c-26 0 -39 -25 -39 -51c-1 -11 -10 -17 -23 -17h-7z" />
    <glyph glyph-name="itilde" unicode="&#x129;" horiz-adv-x="223" 
d="M77 25v453c0 16 9 25 25 25h19c16 0 24 -9 24 -25v-453c0 -16 -8 -25 -24 -25h-19c-16 0 -25 9 -25 25zM-19 588c-15 0 -22 9 -22 26c0 53 36 91 88 91c69 0 84 -72 129 -72c26 0 38 25 39 50c0 12 9 19 23 19h8c15 0 21 -8 21 -23c0 -58 -34 -94 -88 -94
c-69 0 -84 71 -129 71c-26 0 -39 -25 -39 -51c-1 -11 -10 -17 -23 -17h-7z" />
    <glyph glyph-name="Imacron" unicode="&#x12a;" horiz-adv-x="265" 
d="M98 25v653c0 16 8 25 24 25h21c15 0 24 -9 24 -25v-653c0 -16 -9 -25 -24 -25h-21c-16 0 -24 9 -24 25zM36 785c-16 0 -25 8 -25 24v7c0 16 9 24 25 24h197c16 0 24 -8 24 -24v-7c0 -16 -8 -24 -24 -24h-197z" />
    <glyph glyph-name="imacron" unicode="&#x12b;" horiz-adv-x="223" 
d="M77 25v453c0 16 9 25 25 25h19c16 0 24 -9 24 -25v-453c0 -16 -8 -25 -24 -25h-19c-16 0 -25 9 -25 25zM15 618c-16 0 -25 8 -25 24v7c0 16 9 24 25 24h197c16 0 24 -8 24 -24v-7c0 -16 -8 -24 -24 -24h-197z" />
    <glyph glyph-name="Ibreve" unicode="&#x12c;" horiz-adv-x="265" 
d="M98 25v653c0 16 8 25 24 25h21c15 0 24 -9 24 -25v-653c0 -16 -9 -25 -24 -25h-21c-16 0 -24 9 -24 25zM133 749c-58 0 -115 42 -115 103c0 12 8 19 23 19h10c15 0 21 -6 23 -18c4 -41 28 -57 59 -57s56 16 60 57c2 10 8 18 23 18h10c15 0 23 -5 23 -19
c0 -58 -54 -103 -116 -103z" />
    <glyph glyph-name="ibreve" unicode="&#x12d;" horiz-adv-x="223" 
d="M77 25v453c0 16 9 25 25 25h19c16 0 24 -9 24 -25v-453c0 -16 -8 -25 -24 -25h-19c-16 0 -25 9 -25 25zM112 582c-58 0 -115 42 -115 103c0 12 8 19 23 19h10c15 0 21 -6 23 -18c4 -41 28 -57 59 -57s56 16 60 57c2 10 8 18 23 18h10c15 0 23 -5 23 -19
c0 -58 -54 -103 -116 -103z" />
    <glyph glyph-name="Iogonek" unicode="&#x12e;" horiz-adv-x="265" 
d="M98 25v653c0 16 8 25 24 25h21c15 0 24 -9 24 -25v-653c0 -38 -77 -65 -77 -125c0 -30 28 -42 46 -48c12 -4 17 -12 14 -25l-2 -11c-3 -14 -13 -20 -25 -18c-33 6 -94 27 -94 90c0 53 49 99 78 118c-7 4 -9 10 -9 19z" />
    <glyph glyph-name="iogonek" unicode="&#x12f;" horiz-adv-x="224" 
d="M100 618c-16 0 -25 8 -25 24v36c0 16 9 25 25 25h25c15 0 24 -9 24 -25v-36c0 -16 -9 -24 -24 -24h-25zM78 25v453c0 16 9 25 25 25h19c16 0 24 -9 24 -25v-453c0 -38 -76 -65 -76 -125c0 -30 27 -42 45 -48c12 -4 17 -12 14 -25l-1 -11c-3 -14 -13 -20 -26 -18
c-33 6 -94 27 -94 90c0 53 49 99 78 118c-6 4 -8 10 -8 19z" />
    <glyph glyph-name="Idotaccent" unicode="&#x130;" horiz-adv-x="265" 
d="M98 25v653c0 16 8 25 24 25h21c15 0 24 -9 24 -25v-653c0 -16 -9 -25 -24 -25h-21c-16 0 -24 9 -24 25zM125 786c-16 0 -24 9 -24 25v35c0 16 8 25 24 25h17c16 0 24 -9 24 -25v-35c0 -16 -8 -25 -24 -25h-17z" />
    <glyph glyph-name="dotlessi" unicode="&#x131;" horiz-adv-x="223" 
d="M77 25v453c0 16 9 25 25 25h19c16 0 24 -9 24 -25v-453c0 -16 -8 -25 -24 -25h-19c-16 0 -25 9 -25 25z" />
    <glyph glyph-name="IJ" unicode="&#x132;" horiz-adv-x="574" 
d="M268 21v16c0 16 8 23 23 26c59 6 123 36 123 165v450c0 16 9 25 25 25h21c16 0 24 -9 24 -25v-452c0 -179 -106 -229 -191 -229c-16 0 -25 8 -25 24zM98 25v653c0 16 8 25 24 25h21c15 0 24 -9 24 -25v-653c0 -16 -9 -25 -24 -25h-21c-16 0 -24 9 -24 25z" />
    <glyph glyph-name="ij" unicode="&#x133;" horiz-adv-x="455" 
d="M99 618c-16 0 -24 8 -24 24v36c0 16 8 25 24 25h25c16 0 24 -9 24 -25v-36c0 -16 -8 -24 -24 -24h-25zM77 25v453c0 16 9 25 25 25h19c16 0 24 -9 24 -25v-453c0 -16 -8 -25 -24 -25h-19c-16 0 -25 9 -25 25zM330 618c-16 0 -24 8 -24 24v36c0 16 8 25 24 25h25
c16 0 24 -9 24 -25v-36c0 -16 -8 -24 -24 -24h-25zM309 -16v494c0 16 8 25 24 25h19c16 0 25 -9 25 -25v-496c0 -164 -122 -188 -170 -188h-10c-16 0 -25 9 -25 25v11c0 17 10 23 25 24c43 3 112 17 112 130z" />
    <glyph glyph-name="Jcircumflex" unicode="&#x134;" horiz-adv-x="511" 
d="M211 752c-19 0 -24 13 -13 30l52 73c8 11 17 16 30 16h37c14 0 22 -5 31 -16l51 -73c12 -17 7 -30 -11 -30h-17c-13 0 -20 5 -27 17l-44 64h-2l-44 -64c-7 -12 -14 -17 -28 -17h-15zM26 201c0 17 8 24 24 24h22c16 0 21 -6 23 -27c4 -83 40 -145 128 -145
c64 0 128 36 128 144v444h-147c-16 0 -24 9 -24 25v12c0 16 8 25 24 25h192c16 0 25 -9 25 -25v-481c0 -152 -101 -209 -198 -209s-197 58 -197 213z" />
    <glyph glyph-name="jcircumflex" unicode="&#x135;" horiz-adv-x="223" 
d="M21 584c-19 0 -24 13 -13 30l52 73c8 11 17 16 30 16h37c13 0 22 -5 30 -16l52 -73c11 -17 6 -30 -12 -30h-16c-13 0 -20 5 -27 17l-44 64h-2l-45 -64c-7 -12 -13 -17 -27 -17h-15zM78 -16v494c0 16 8 25 24 25h19c16 0 25 -9 25 -25v-496c0 -164 -122 -188 -170 -188
h-10c-16 0 -25 9 -25 25v11c0 16 9 23 25 24c44 3 112 17 112 130z" />
    <glyph glyph-name="Kcommaaccent" unicode="&#x136;" horiz-adv-x="583" 
d="M273 -80c0 12 8 17 22 17h15c27 0 29 -30 29 -51c0 -35 -15 -92 -44 -92h-6c-14 0 -22 6 -22 16c0 12 10 22 10 63c0 30 -4 29 -4 47zM98 25v653c0 16 8 25 24 25h21c15 0 24 -9 24 -25v-280h119l179 288c7 12 16 17 29 17h25c20 0 27 -13 17 -30l-192 -302v-2l206 -340
c11 -16 3 -29 -16 -29h-28c-13 0 -22 5 -29 17l-191 319h-119v-311c0 -16 -9 -25 -24 -25h-21c-16 0 -24 9 -24 25z" />
    <glyph glyph-name="kcommaaccent" unicode="&#x137;" horiz-adv-x="486" 
d="M224 -80c0 12 8 17 22 17h15c27 0 29 -30 29 -51c0 -35 -15 -92 -44 -92h-6c-14 0 -22 6 -22 16c0 12 10 22 10 63c0 30 -4 29 -4 47zM78 25v653c0 16 8 25 24 25h19c16 0 25 -9 25 -25v-367h81l139 177c8 10 17 15 30 15h25c20 0 27 -14 14 -30l-152 -189v-2l174 -252
c11 -17 4 -30 -17 -30h-26c-14 0 -22 5 -29 17l-157 234h-82v-226c0 -16 -9 -25 -25 -25h-19c-16 0 -24 9 -24 25z" />
    <glyph glyph-name="kgreenlandic" unicode="&#x138;" horiz-adv-x="485" 
d="M77 25v453c0 16 9 25 25 25h19c16 0 24 -9 24 -25v-181h79l149 190c8 11 16 16 30 16h26c21 0 28 -14 16 -30l-162 -203v-2l164 -238c11 -17 4 -30 -16 -30h-29c-13 0 -22 5 -29 17l-148 221h-80v-213c0 -16 -8 -25 -24 -25h-19c-16 0 -25 9 -25 25z" />
    <glyph glyph-name="Lacute" unicode="&#x139;" horiz-adv-x="499" 
d="M133 752c-19 0 -26 13 -16 28l44 74c7 12 15 17 29 17h23c21 0 26 -13 14 -30l-53 -73c-8 -11 -17 -16 -30 -16h-11zM98 25v653c0 16 8 25 24 25h21c15 0 24 -9 24 -25v-616h301c16 0 25 -9 25 -25v-12c0 -16 -9 -25 -25 -25h-346c-16 0 -24 9 -24 25z" />
    <glyph glyph-name="lacute" unicode="&#x13a;" horiz-adv-x="244" 
d="M114 752c-19 0 -26 13 -16 28l44 74c7 12 15 17 29 17h23c21 0 26 -13 14 -30l-53 -73c-8 -11 -17 -16 -30 -16h-11zM78 119v559c0 16 8 25 24 25h19c16 0 25 -9 25 -25v-547c0 -63 30 -70 52 -73c12 -1 21 -7 21 -22v-15c0 -15 -7 -25 -26 -25c-41 0 -115 13 -115 123z
" />
    <glyph glyph-name="Lcommaaccent" unicode="&#x13b;" horiz-adv-x="499" 
d="M269 -80c0 12 8 17 22 17h15c27 0 29 -30 29 -51c0 -35 -15 -92 -44 -92h-6c-14 0 -22 6 -22 16c0 12 10 22 10 63c0 30 -4 29 -4 47zM98 25v653c0 16 8 25 24 25h21c15 0 24 -9 24 -25v-616h301c16 0 25 -9 25 -25v-12c0 -16 -9 -25 -25 -25h-346c-16 0 -24 9 -24 25z
" />
    <glyph glyph-name="lcommaaccent" unicode="&#x13c;" horiz-adv-x="244" 
d="M114 -80c0 12 8 17 22 17h15c27 0 29 -30 29 -51c0 -35 -15 -92 -44 -92h-6c-14 0 -22 6 -22 16c0 12 10 22 10 63c0 30 -4 29 -4 47zM78 119v559c0 16 8 25 24 25h19c16 0 25 -9 25 -25v-547c0 -63 30 -70 52 -73c12 -1 21 -7 21 -22v-15c0 -15 -7 -25 -26 -25
c-41 0 -115 13 -115 123z" />
    <glyph glyph-name="Lcaron" unicode="&#x13d;" horiz-adv-x="499" 
d="M260 685c0 12 8 17 22 17h15c27 0 29 -30 29 -51c0 -35 -15 -92 -44 -92h-6c-14 0 -22 6 -22 16c0 12 10 22 10 63c0 30 -4 29 -4 47zM98 25v653c0 16 8 25 24 25h21c15 0 24 -9 24 -25v-616h301c16 0 25 -9 25 -25v-12c0 -16 -9 -25 -25 -25h-346c-16 0 -24 9 -24 25z
" />
    <glyph glyph-name="lcaron" unicode="&#x13e;" horiz-adv-x="244" 
d="M211 685c0 12 8 17 22 17h15c27 0 29 -30 29 -51c0 -35 -15 -92 -44 -92h-6c-14 0 -22 6 -22 16c0 12 10 22 10 63c0 30 -4 29 -4 47zM78 119v559c0 16 8 25 24 25h19c16 0 25 -9 25 -25v-547c0 -63 30 -70 52 -73c12 -1 21 -7 21 -22v-15c0 -15 -7 -25 -26 -25
c-41 0 -115 13 -115 123z" />
    <glyph glyph-name="Ldot" unicode="&#x13f;" horiz-adv-x="499" 
d="M98 25v653c0 16 8 25 24 25h21c15 0 24 -9 24 -25v-616h301c16 0 25 -9 25 -25v-12c0 -16 -9 -25 -25 -25h-346c-16 0 -24 9 -24 25zM317 330c-16 0 -25 8 -25 24v34c0 16 9 25 25 25h31c16 0 24 -9 24 -25v-34c0 -16 -8 -24 -24 -24h-31z" />
    <glyph glyph-name="ldot" unicode="&#x140;" horiz-adv-x="277" 
d="M78 119v559c0 16 8 25 24 25h19c16 0 25 -9 25 -25v-547c0 -63 30 -70 52 -73c12 -1 21 -7 21 -22v-15c0 -15 -7 -25 -26 -25c-41 0 -115 13 -115 123zM235 330c-16 0 -25 8 -25 24v34c0 16 9 25 25 25h31c16 0 24 -9 24 -25v-34c0 -16 -8 -24 -24 -24h-31z" />
    <glyph glyph-name="Lslash" unicode="&#x141;" horiz-adv-x="499" 
d="M98 25v312l-37 -20c-13 -8 -25 -1 -25 18v17c0 14 5 23 15 29l47 27v270c0 16 9 25 25 25h20c16 0 24 -9 24 -25v-230l84 48c16 10 29 3 29 -17v-17c0 -15 -6 -23 -17 -30l-96 -55v-315h302c16 0 24 -9 24 -25v-12c0 -16 -8 -25 -24 -25h-346c-16 0 -25 9 -25 25z" />
    <glyph glyph-name="lslash" unicode="&#x142;" horiz-adv-x="253" 
d="M85 119v233l-56 -31c-14 -9 -25 -1 -25 18v17c0 14 4 23 14 29l67 38v255c0 16 8 25 24 25h19c16 0 25 -9 25 -25v-215l58 33c17 10 29 3 29 -17v-17c0 -15 -5 -23 -16 -30l-71 -41v-260c0 -63 30 -70 52 -73c12 -1 21 -7 21 -22v-15c0 -15 -7 -25 -26 -25
c-41 0 -115 13 -115 123z" />
    <glyph glyph-name="Nacute" unicode="&#x143;" horiz-adv-x="745" 
d="M372 752c-19 0 -26 13 -16 28l44 74c7 12 15 17 29 17h23c21 0 26 -13 14 -30l-53 -73c-8 -11 -17 -16 -30 -16h-11zM98 25v653c0 16 8 25 24 25h24c13 0 22 -5 30 -16l348 -490c24 -35 58 -95 58 -95h2s-6 58 -6 95v481c0 16 9 25 25 25h20c16 0 24 -9 24 -25v-653
c0 -16 -8 -25 -24 -25h-24c-13 0 -22 5 -29 16l-349 490c-24 35 -58 95 -58 95h-2s6 -58 6 -95v-481c0 -16 -9 -25 -24 -25h-21c-16 0 -24 9 -24 25z" />
    <glyph glyph-name="nacute" unicode="&#x144;" horiz-adv-x="584" 
d="M305 585c-19 0 -26 13 -16 28l44 74c7 12 15 17 29 17h23c21 0 26 -13 14 -30l-53 -73c-8 -11 -17 -16 -30 -16h-11zM77 25v453c0 16 9 25 25 25h18c15 0 24 -9 24 -25v-58c0 -20 -4 -36 -4 -36h2c19 46 85 131 203 131c125 0 169 -71 169 -195v-295
c0 -16 -9 -25 -25 -25h-19c-16 0 -24 9 -24 25v277c0 79 -13 149 -110 149c-107 0 -191 -88 -191 -205v-221c0 -16 -8 -25 -24 -25h-19c-16 0 -25 9 -25 25z" />
    <glyph glyph-name="Ncommaaccent" unicode="&#x145;" horiz-adv-x="745" 
d="M339 -80c0 12 8 17 22 17h15c27 0 29 -30 29 -51c0 -35 -15 -92 -44 -92h-6c-14 0 -22 6 -22 16c0 12 10 22 10 63c0 30 -4 29 -4 47zM98 25v653c0 16 8 25 24 25h24c13 0 22 -5 30 -16l348 -490c24 -35 58 -95 58 -95h2s-6 58 -6 95v481c0 16 9 25 25 25h20
c16 0 24 -9 24 -25v-653c0 -16 -8 -25 -24 -25h-24c-13 0 -22 5 -29 16l-349 490c-24 35 -58 95 -58 95h-2s6 -58 6 -95v-481c0 -16 -9 -25 -24 -25h-21c-16 0 -24 9 -24 25z" />
    <glyph glyph-name="ncommaaccent" unicode="&#x146;" horiz-adv-x="584" 
d="M262 -80c0 12 8 17 22 17h15c27 0 29 -30 29 -51c0 -35 -15 -92 -44 -92h-6c-14 0 -22 6 -22 16c0 12 10 22 10 63c0 30 -4 29 -4 47zM77 25v453c0 16 9 25 25 25h18c15 0 24 -9 24 -25v-58c0 -20 -4 -36 -4 -36h2c19 46 85 131 203 131c125 0 169 -71 169 -195v-295
c0 -16 -9 -25 -25 -25h-19c-16 0 -24 9 -24 25v277c0 79 -13 149 -110 149c-107 0 -191 -88 -191 -205v-221c0 -16 -8 -25 -24 -25h-19c-16 0 -25 9 -25 25z" />
    <glyph glyph-name="Ncaron" unicode="&#x147;" horiz-adv-x="745" 
d="M353 752c-13 0 -22 5 -30 16l-52 73c-11 17 -6 30 13 30h15c14 0 21 -5 28 -16l44 -64h2l44 64c7 11 14 16 27 16h16c19 0 24 -13 12 -30l-51 -73c-9 -11 -17 -16 -31 -16h-37zM98 25v653c0 16 8 25 24 25h24c13 0 22 -5 30 -16l348 -490c24 -35 58 -95 58 -95h2
s-6 58 -6 95v481c0 16 9 25 25 25h20c16 0 24 -9 24 -25v-653c0 -16 -8 -25 -24 -25h-24c-13 0 -22 5 -29 16l-349 490c-24 35 -58 95 -58 95h-2s6 -58 6 -95v-481c0 -16 -9 -25 -24 -25h-21c-16 0 -24 9 -24 25z" />
    <glyph glyph-name="ncaron" unicode="&#x148;" horiz-adv-x="584" 
d="M286 585c-13 0 -22 5 -30 16l-52 73c-11 17 -6 30 13 30h15c14 0 21 -5 28 -16l44 -64h2l44 64c7 11 14 16 27 16h16c19 0 24 -13 12 -30l-51 -73c-9 -11 -17 -16 -31 -16h-37zM77 25v453c0 16 9 25 25 25h18c15 0 24 -9 24 -25v-58c0 -20 -4 -36 -4 -36h2
c19 46 85 131 203 131c125 0 169 -71 169 -195v-295c0 -16 -9 -25 -25 -25h-19c-16 0 -24 9 -24 25v277c0 79 -13 149 -110 149c-107 0 -191 -88 -191 -205v-221c0 -16 -8 -25 -24 -25h-19c-16 0 -25 9 -25 25z" />
    <glyph glyph-name="napostrophe" unicode="&#x149;" horiz-adv-x="584" 
d="M16 685c0 12 8 17 22 17h15c27 0 29 -30 29 -51c0 -35 -15 -92 -44 -92h-6c-14 0 -22 6 -22 16c0 12 10 22 10 63c0 30 -4 29 -4 47zM77 25v453c0 16 9 25 25 25h18c15 0 24 -9 24 -25v-58c0 -20 -4 -36 -4 -36h2c19 46 85 131 203 131c125 0 169 -71 169 -195v-295
c0 -16 -9 -25 -25 -25h-19c-16 0 -24 9 -24 25v277c0 79 -13 149 -110 149c-107 0 -191 -88 -191 -205v-221c0 -16 -8 -25 -24 -25h-19c-16 0 -25 9 -25 25z" />
    <glyph glyph-name="Eng" unicode="&#x14a;" horiz-adv-x="745" 
d="M98 25v653c0 16 8 25 24 25h24c13 0 22 -5 30 -16l348 -490c24 -35 58 -95 58 -95h2s-6 58 -6 95v481c0 16 9 25 25 25h20c16 0 24 -9 24 -25v-681c0 -147 -90 -197 -181 -202c-17 -1 -26 8 -26 24v14c0 16 9 24 24 25c69 6 115 43 115 145l-358 503
c-24 35 -58 95 -58 95h-2s6 -58 6 -95v-481c0 -16 -9 -25 -24 -25h-21c-16 0 -24 9 -24 25z" />
    <glyph glyph-name="eng" unicode="&#x14b;" horiz-adv-x="586" 
d="M77 25v453c0 16 9 25 25 25h18c15 0 24 -9 24 -25v-58c0 -20 -4 -36 -4 -36h2c19 46 85 131 203 131c125 0 169 -71 169 -195v-338c0 -164 -122 -188 -170 -188h-10c-16 0 -25 9 -25 25v11c0 16 9 23 25 24c44 3 112 17 112 130v318c0 79 -13 149 -110 149
c-107 0 -191 -88 -191 -205v-221c0 -16 -8 -25 -24 -25h-19c-16 0 -25 9 -25 25z" />
    <glyph glyph-name="Omacron" unicode="&#x14c;" horiz-adv-x="817" 
d="M310 785c-16 0 -25 8 -25 24v7c0 16 9 24 25 24h197c16 0 24 -8 24 -24v-7c0 -16 -8 -24 -24 -24h-197zM50 356c0 202 153 359 358 359c206 0 358 -157 358 -359c0 -206 -152 -368 -358 -368c-205 0 -358 162 -358 368zM122 356c0 -171 122 -303 286 -303
c165 0 286 132 286 303c0 167 -121 294 -286 294c-164 0 -286 -127 -286 -294z" />
    <glyph glyph-name="omacron" unicode="&#x14d;" horiz-adv-x="615" 
d="M209 618c-16 0 -25 8 -25 24v7c0 16 9 24 25 24h197c16 0 24 -8 24 -24v-7c0 -16 -8 -24 -24 -24h-197zM42 254c0 149 119 261 265 261c147 0 266 -112 266 -261c0 -152 -119 -266 -265 -266c-147 0 -266 114 -266 266zM112 254c0 -117 88 -205 196 -205
c107 0 195 88 195 205c0 114 -88 200 -195 200c-108 0 -196 -86 -196 -200z" />
    <glyph glyph-name="Obreve" unicode="&#x14e;" horiz-adv-x="817" 
d="M50 356c0 202 153 359 358 359c206 0 358 -157 358 -359c0 -206 -152 -368 -358 -368c-205 0 -358 162 -358 368zM122 356c0 -171 122 -303 286 -303c165 0 286 132 286 303c0 167 -121 294 -286 294c-164 0 -286 -127 -286 -294zM407 749c-58 0 -115 42 -115 103
c0 12 8 19 23 19h10c15 0 21 -6 23 -18c4 -41 28 -57 59 -57s56 16 60 57c2 10 8 18 23 18h10c15 0 23 -5 23 -19c0 -58 -54 -103 -116 -103z" />
    <glyph glyph-name="obreve" unicode="&#x14f;" horiz-adv-x="615" 
d="M42 254c0 149 119 261 265 261c147 0 266 -112 266 -261c0 -152 -119 -266 -265 -266c-147 0 -266 114 -266 266zM112 254c0 -117 88 -205 196 -205c107 0 195 88 195 205c0 114 -88 200 -195 200c-108 0 -196 -86 -196 -200zM307 582c-58 0 -115 42 -115 103
c0 12 8 19 23 19h10c15 0 21 -6 23 -18c4 -41 28 -57 59 -57s56 16 60 57c2 10 8 18 23 18h10c15 0 23 -5 23 -19c0 -58 -54 -103 -116 -103z" />
    <glyph glyph-name="Ohungarumlaut" unicode="&#x150;" horiz-adv-x="817" 
d="M462 752c-20 0 -26 13 -17 29l44 73c7 12 16 17 29 17h22c20 0 25 -13 13 -30l-52 -73c-9 -11 -17 -16 -30 -16h-9zM328 752c-19 0 -26 13 -17 29l40 72c6 12 15 18 29 18h15c20 0 26 -13 16 -29l-41 -72c-7 -12 -16 -18 -29 -18h-13zM50 356c0 202 153 359 358 359
c206 0 358 -157 358 -359c0 -206 -152 -368 -358 -368c-205 0 -358 162 -358 368zM122 356c0 -171 122 -303 286 -303c165 0 286 132 286 303c0 167 -121 294 -286 294c-164 0 -286 -127 -286 -294z" />
    <glyph glyph-name="ohungarumlaut" unicode="&#x151;" horiz-adv-x="615" 
d="M361 585c-20 0 -26 13 -17 29l44 73c7 12 16 17 29 17h22c20 0 25 -13 13 -30l-52 -73c-9 -11 -17 -16 -30 -16h-9zM227 585c-19 0 -26 13 -17 29l40 72c6 12 15 18 29 18h15c20 0 26 -13 16 -29l-41 -72c-7 -12 -16 -18 -29 -18h-13zM42 254c0 149 119 261 265 261
c147 0 266 -112 266 -261c0 -152 -119 -266 -265 -266c-147 0 -266 114 -266 266zM112 254c0 -117 88 -205 196 -205c107 0 195 88 195 205c0 114 -88 200 -195 200c-108 0 -196 -86 -196 -200z" />
    <glyph glyph-name="OE" unicode="&#x152;" horiz-adv-x="934" 
d="M50 352c0 202 151 361 359 361c41 0 87 -10 119 -10h323c16 0 24 -9 24 -25v-12c0 -16 -8 -25 -24 -25h-303v-256h243c16 0 24 -8 24 -24v-13c0 -16 -8 -25 -24 -25h-243v-261h321c16 0 24 -9 24 -25v-12c0 -16 -8 -25 -24 -25h-340c-31 0 -79 -10 -120 -10
c-208 0 -359 158 -359 362zM122 352c0 -169 116 -299 287 -299c38 0 70 8 70 8v581s-32 8 -70 8c-171 0 -287 -130 -287 -298z" />
    <glyph glyph-name="oe" unicode="&#x153;" horiz-adv-x="1003" 
d="M43 250c0 160 120 265 263 265c101 0 185 -52 227 -135h2c40 86 119 135 216 135c134 0 211 -97 211 -240c0 -14 -12 -25 -26 -25h-362c5 -132 93 -201 195 -201c62 0 109 28 131 46c14 9 26 7 34 -6l6 -11c8 -14 6 -25 -6 -34c-26 -20 -87 -56 -168 -56
c-105 0 -189 53 -229 137h-2c-42 -85 -126 -137 -229 -137c-143 0 -263 103 -263 262zM577 301h315c-4 105 -68 157 -142 157c-84 0 -157 -55 -173 -157zM113 250c0 -121 88 -201 194 -201c107 0 196 80 196 205c0 122 -92 200 -196 200c-106 0 -194 -82 -194 -204z" />
    <glyph glyph-name="Racute" unicode="&#x154;" horiz-adv-x="609" 
d="M297 752c-19 0 -26 13 -16 28l44 74c7 12 15 17 29 17h23c21 0 26 -13 14 -30l-53 -73c-8 -11 -17 -16 -30 -16h-11zM98 25v653c0 16 8 25 24 25h190c66 0 100 -7 128 -20c63 -30 104 -91 104 -176c0 -95 -54 -172 -133 -194v-2s7 -9 18 -28l137 -254
c9 -17 2 -29 -17 -29h-26c-14 0 -23 6 -29 17l-150 279h-177v-271c0 -16 -9 -25 -24 -25h-21c-16 0 -24 9 -24 25zM167 358h167c85 0 139 59 139 147c0 56 -27 102 -74 123c-20 9 -41 13 -92 13h-140v-283z" />
    <glyph glyph-name="racute" unicode="&#x155;" horiz-adv-x="338" 
d="M210 584c-19 0 -26 13 -16 28l44 74c7 12 15 17 29 17h23c21 0 26 -13 14 -30l-53 -73c-8 -11 -17 -16 -30 -16h-11zM77 25v453c0 16 9 25 25 25h18c15 0 24 -9 24 -25v-68c0 -22 -4 -40 -4 -40h2c24 73 82 136 162 136c18 0 26 -8 26 -24v-18c0 -16 -11 -25 -28 -25
c-106 0 -157 -121 -157 -226v-188c0 -16 -8 -25 -24 -25h-19c-16 0 -25 9 -25 25z" />
    <glyph glyph-name="Rcommaaccent" unicode="&#x156;" horiz-adv-x="608" 
d="M285 -80c0 12 8 17 22 17h15c27 0 29 -30 29 -51c0 -35 -15 -92 -44 -92h-6c-14 0 -22 6 -22 16c0 12 10 22 10 63c0 30 -4 29 -4 47zM98 25v653c0 16 8 25 24 25h190c66 0 100 -7 128 -20c63 -30 104 -91 104 -176c0 -95 -54 -172 -133 -194v-2s7 -9 18 -28l137 -254
c9 -17 2 -29 -17 -29h-26c-14 0 -23 6 -29 17l-150 279h-177v-271c0 -16 -9 -25 -24 -25h-21c-16 0 -24 9 -24 25zM167 358h167c85 0 139 59 139 147c0 56 -27 102 -74 123c-20 9 -41 13 -92 13h-140v-283z" />
    <glyph glyph-name="rcommaaccent" unicode="&#x157;" horiz-adv-x="338" 
d="M81 -80c0 12 8 17 22 17h15c27 0 29 -30 29 -51c0 -35 -15 -92 -44 -92h-6c-14 0 -22 6 -22 16c0 12 10 22 10 63c0 30 -4 29 -4 47zM77 25v453c0 16 9 25 25 25h18c15 0 24 -9 24 -25v-68c0 -22 -4 -40 -4 -40h2c24 73 82 136 162 136c18 0 26 -8 26 -24v-18
c0 -16 -11 -25 -28 -25c-106 0 -157 -121 -157 -226v-188c0 -16 -8 -25 -24 -25h-19c-16 0 -25 9 -25 25z" />
    <glyph glyph-name="Rcaron" unicode="&#x158;" horiz-adv-x="609" 
d="M279 752c-13 0 -22 5 -30 16l-52 73c-11 17 -6 30 13 30h15c14 0 21 -5 28 -16l44 -64h2l44 64c7 11 14 16 27 16h16c19 0 24 -13 12 -30l-51 -73c-9 -11 -17 -16 -31 -16h-37zM98 25v653c0 16 8 25 24 25h190c66 0 100 -7 128 -20c63 -30 104 -91 104 -176
c0 -95 -54 -172 -133 -194v-2s7 -9 18 -28l137 -254c9 -17 2 -29 -17 -29h-26c-14 0 -23 6 -29 17l-150 279h-177v-271c0 -16 -9 -25 -24 -25h-21c-16 0 -24 9 -24 25zM167 358h167c85 0 139 59 139 147c0 56 -27 102 -74 123c-20 9 -41 13 -92 13h-140v-283z" />
    <glyph glyph-name="rcaron" unicode="&#x159;" horiz-adv-x="338" 
d="M192 584c-13 0 -22 5 -30 16l-52 73c-11 17 -6 30 13 30h15c14 0 21 -5 28 -16l44 -64h2l44 64c7 11 14 16 27 16h16c19 0 24 -13 12 -30l-51 -73c-9 -11 -17 -16 -31 -16h-37zM77 25v453c0 16 9 25 25 25h18c15 0 24 -9 24 -25v-68c0 -22 -4 -40 -4 -40h2
c24 73 82 136 162 136c18 0 26 -8 26 -24v-18c0 -16 -11 -25 -28 -25c-106 0 -157 -121 -157 -226v-188c0 -16 -8 -25 -24 -25h-19c-16 0 -25 9 -25 25z" />
    <glyph glyph-name="Sacute" unicode="&#x15a;" horiz-adv-x="526" 
d="M264 752c-19 0 -26 13 -16 28l44 74c7 12 15 17 29 17h23c21 0 26 -13 14 -30l-53 -73c-8 -11 -17 -16 -30 -16h-11zM59 62c-10 10 -13 21 -3 35l12 15c10 12 21 13 35 3c24 -20 83 -61 162 -61c84 0 143 47 143 120c0 177 -350 135 -350 353c0 115 97 188 220 188
c84 0 145 -35 171 -55c12 -9 14 -20 6 -33l-9 -16c-9 -15 -22 -15 -35 -7c-25 17 -71 45 -135 45c-80 0 -147 -44 -147 -118c0 -169 350 -124 350 -350c0 -108 -80 -193 -214 -193c-103 0 -177 50 -206 74z" />
    <glyph glyph-name="sacute" unicode="&#x15b;" horiz-adv-x="431" 
d="M217 585c-19 0 -26 13 -16 28l44 74c7 12 15 17 29 17h23c21 0 26 -13 14 -30l-53 -73c-8 -11 -17 -16 -30 -16h-11zM50 46c-12 9 -13 21 -4 34l8 10c9 12 20 13 34 4c22 -17 68 -46 133 -46c56 0 102 28 102 81c0 113 -269 79 -269 245c0 93 79 141 171 141
c72 0 117 -26 138 -41c13 -8 15 -20 7 -33l-7 -11c-8 -14 -20 -15 -34 -7c-19 13 -55 32 -108 32s-99 -23 -99 -78c0 -116 268 -79 268 -247c0 -83 -70 -142 -170 -142c-88 0 -145 37 -170 58z" />
    <glyph glyph-name="Scircumflex" unicode="&#x15c;" horiz-adv-x="526" 
d="M177 752c-19 0 -24 13 -13 30l52 73c8 11 17 16 30 16h37c14 0 22 -5 31 -16l51 -73c12 -17 7 -30 -11 -30h-17c-13 0 -20 5 -27 17l-44 64h-2l-44 -64c-7 -12 -14 -17 -28 -17h-15zM59 62c-10 10 -13 21 -3 35l12 15c10 12 21 13 35 3c24 -20 83 -61 162 -61
c84 0 143 47 143 120c0 177 -350 135 -350 353c0 115 97 188 220 188c84 0 145 -35 171 -55c12 -9 14 -20 6 -33l-9 -16c-9 -15 -22 -15 -35 -7c-25 17 -71 45 -135 45c-80 0 -147 -44 -147 -118c0 -169 350 -124 350 -350c0 -108 -80 -193 -214 -193
c-103 0 -177 50 -206 74z" />
    <glyph glyph-name="scircumflex" unicode="&#x15d;" horiz-adv-x="431" 
d="M132 585c-19 0 -24 13 -13 30l52 73c8 11 17 16 30 16h37c14 0 22 -5 31 -16l51 -73c12 -17 7 -30 -11 -30h-17c-13 0 -20 5 -27 17l-44 64h-2l-44 -64c-7 -12 -14 -17 -28 -17h-15zM50 46c-12 9 -13 21 -4 34l8 10c9 12 20 13 34 4c22 -17 68 -46 133 -46
c56 0 102 28 102 81c0 113 -269 79 -269 245c0 93 79 141 171 141c72 0 117 -26 138 -41c13 -8 15 -20 7 -33l-7 -11c-8 -14 -20 -15 -34 -7c-19 13 -55 32 -108 32s-99 -23 -99 -78c0 -116 268 -79 268 -247c0 -83 -70 -142 -170 -142c-88 0 -145 37 -170 58z" />
    <glyph glyph-name="Scedilla" unicode="&#x15e;" horiz-adv-x="528" 
d="M229 -64l12 53c-90 7 -156 51 -182 73c-10 10 -13 21 -3 35l12 15c10 12 21 13 35 3c24 -20 83 -61 162 -61c84 0 143 47 143 120c0 177 -350 135 -350 353c0 115 97 188 220 188c84 0 145 -35 171 -55c12 -9 14 -20 6 -33l-9 -16c-9 -15 -22 -15 -35 -7
c-25 17 -71 45 -135 45c-80 0 -147 -44 -147 -118c0 -169 350 -124 350 -350c0 -102 -72 -184 -193 -192l-8 -44c40 -6 70 -31 70 -71c0 -58 -47 -79 -96 -79c-17 0 -48 1 -48 24c0 13 5 25 16 25c8 0 13 -3 26 -3c25 0 49 8 49 34c0 22 -21 33 -49 35c-11 1 -20 10 -17 26z
" />
    <glyph glyph-name="scedilla" unicode="&#x15f;" horiz-adv-x="433" 
d="M181 -64l12 53c-73 7 -121 38 -143 57c-12 9 -13 21 -4 34l8 10c9 12 20 13 34 4c22 -17 68 -46 133 -46c56 0 102 28 102 81c0 113 -269 79 -269 245c0 93 79 141 171 141c72 0 117 -26 138 -41c13 -8 15 -20 7 -33l-7 -11c-8 -14 -20 -15 -34 -7c-19 13 -55 32 -108 32
s-99 -23 -99 -78c0 -116 268 -79 268 -247c0 -78 -62 -135 -152 -141l-8 -44c40 -6 70 -31 70 -71c0 -58 -47 -79 -96 -79c-17 0 -48 1 -48 24c0 13 5 25 16 25c8 0 13 -3 26 -3c25 0 49 8 49 34c0 22 -21 33 -49 35c-11 1 -20 10 -17 26z" />
    <glyph glyph-name="Scaron" unicode="&#x160;" horiz-adv-x="526" 
d="M246 752c-13 0 -22 5 -30 16l-52 73c-11 17 -6 30 13 30h15c14 0 21 -5 28 -16l44 -64h2l44 64c7 11 14 16 27 16h16c19 0 24 -13 12 -30l-51 -73c-9 -11 -17 -16 -31 -16h-37zM59 62c-10 10 -13 21 -3 35l12 15c10 12 21 13 35 3c24 -20 83 -61 162 -61
c84 0 143 47 143 120c0 177 -350 135 -350 353c0 115 97 188 220 188c84 0 145 -35 171 -55c12 -9 14 -20 6 -33l-9 -16c-9 -15 -22 -15 -35 -7c-25 17 -71 45 -135 45c-80 0 -147 -44 -147 -118c0 -169 350 -124 350 -350c0 -108 -80 -193 -214 -193
c-103 0 -177 50 -206 74z" />
    <glyph glyph-name="scaron" unicode="&#x161;" horiz-adv-x="431" 
d="M201 585c-13 0 -22 5 -30 16l-52 73c-11 17 -6 30 13 30h15c14 0 21 -5 28 -16l44 -64h2l44 64c7 11 14 16 27 16h16c19 0 24 -13 12 -30l-51 -73c-9 -11 -17 -16 -31 -16h-37zM50 46c-12 9 -13 21 -4 34l8 10c9 12 20 13 34 4c22 -17 68 -46 133 -46c56 0 102 28 102 81
c0 113 -269 79 -269 245c0 93 79 141 171 141c72 0 117 -26 138 -41c13 -8 15 -20 7 -33l-7 -11c-8 -14 -20 -15 -34 -7c-19 13 -55 32 -108 32s-99 -23 -99 -78c0 -116 268 -79 268 -247c0 -83 -70 -142 -170 -142c-88 0 -145 37 -170 58z" />
    <glyph glyph-name="Tcommaaccent" unicode="&#x162;" horiz-adv-x="586" 
d="M254 -64l15 67c-7 4 -11 11 -11 22v616h-227c-16 0 -25 9 -25 25v12c0 16 9 25 25 25h524c16 0 25 -9 25 -25v-12c0 -16 -9 -25 -25 -25h-228v-616c0 -12 -5 -21 -14 -24l-10 -56c40 -6 70 -31 70 -71c0 -58 -47 -79 -96 -79c-17 0 -48 1 -48 24c0 13 5 25 16 25
c8 0 13 -3 26 -3c25 0 49 8 49 34c0 22 -21 33 -49 35c-11 1 -20 10 -17 26z" />
    <glyph glyph-name="tcommaaccent" unicode="&#x163;" horiz-adv-x="322" 
d="M158 -64l19 83c-51 28 -79 85 -79 162v261h-42c-16 0 -24 8 -24 24v8c0 16 8 25 24 25h43v118c0 16 9 25 25 25h18c16 0 24 -9 24 -25v-118h102c16 0 25 -9 25 -25v-8c0 -16 -9 -24 -25 -24h-102v-252c0 -116 71 -130 110 -132c20 -2 27 -8 27 -25v-13
c0 -16 -8 -24 -28 -24c-21 0 -40 3 -58 7l-10 -58c40 -6 70 -31 70 -71c0 -58 -47 -79 -96 -79c-17 0 -48 1 -48 24c0 13 5 25 16 25c8 0 13 -3 26 -3c25 0 49 8 49 34c0 22 -21 33 -49 35c-11 1 -20 10 -17 26z" />
    <glyph glyph-name="Tcaron" unicode="&#x164;" horiz-adv-x="586" 
d="M273 752c-13 0 -22 5 -30 16l-52 73c-11 17 -6 30 13 30h15c14 0 21 -5 28 -16l44 -64h2l44 64c7 11 14 16 27 16h16c19 0 24 -13 12 -30l-51 -73c-9 -11 -17 -16 -31 -16h-37zM258 25v616h-227c-16 0 -25 9 -25 25v12c0 16 9 25 25 25h524c16 0 25 -9 25 -25v-12
c0 -16 -9 -25 -25 -25h-228v-616c0 -16 -8 -25 -24 -25h-20c-16 0 -25 9 -25 25z" />
    <glyph glyph-name="tcaron" unicode="&#x165;" horiz-adv-x="320" 
d="M233 685c0 12 8 17 22 17h15c27 0 29 -30 29 -51c0 -35 -15 -92 -44 -92h-6c-14 0 -22 6 -22 16c0 12 10 22 10 63c0 30 -4 29 -4 47zM97 181v261h-42c-16 0 -24 8 -24 24v8c0 16 8 25 24 25h43v118c0 16 9 25 25 25h18c16 0 24 -9 24 -25v-118h102c16 0 25 -9 25 -25v-8
c0 -16 -9 -24 -25 -24h-102v-252c0 -116 71 -130 110 -132c20 -2 27 -8 27 -25v-13c0 -16 -8 -24 -28 -24c-110 0 -177 67 -177 185z" />
    <glyph glyph-name="Tbar" unicode="&#x166;" horiz-adv-x="588" 
d="M259 25v299h-137c-16 0 -24 9 -24 25v8c0 16 8 24 24 24h137v260h-228c-16 0 -24 9 -24 25v12c0 16 8 25 24 25h525c16 0 25 -9 25 -25v-12c0 -16 -9 -25 -25 -25h-228v-260h141c16 0 25 -8 25 -24v-8c0 -16 -9 -25 -25 -25h-141v-299c0 -16 -8 -25 -24 -25h-20
c-16 0 -25 9 -25 25z" />
    <glyph glyph-name="tbar" unicode="&#x167;" horiz-adv-x="323" 
d="M97 181v98h-42c-16 0 -24 9 -24 24v8c0 16 8 25 24 25h42v108h-42c-16 0 -24 8 -24 24v6c0 16 8 25 24 25h43v118c0 16 9 25 25 25h18c16 0 24 -9 24 -25v-118h102c16 0 25 -9 25 -25v-6c0 -16 -9 -24 -24 -24h-103v-108h102c16 0 25 -9 25 -25v-8c0 -15 -9 -24 -24 -24
h-103v-91c0 -115 71 -128 110 -130c20 -2 27 -8 27 -25v-13c0 -16 -8 -24 -28 -24c-109 0 -177 67 -177 185z" />
    <glyph glyph-name="Utilde" unicode="&#x168;" horiz-adv-x="715" 
d="M88 245v433c0 16 9 25 25 25h20c16 0 25 -9 25 -25v-432c0 -121 78 -193 199 -193s200 72 200 195v430c0 16 9 25 25 25h20c16 0 24 -9 24 -25v-433c0 -156 -109 -257 -268 -257c-160 0 -270 101 -270 257zM225 755c-15 0 -22 9 -22 26c0 53 36 91 88 91
c69 0 84 -72 129 -72c26 0 38 25 39 50c0 12 9 19 23 19h8c15 0 21 -8 21 -23c0 -58 -34 -94 -88 -94c-69 0 -84 71 -129 71c-26 0 -39 -25 -39 -51c-1 -11 -10 -17 -23 -17h-7z" />
    <glyph glyph-name="utilde" unicode="&#x169;" horiz-adv-x="580" 
d="M71 183v295c0 16 8 25 24 25h19c16 0 25 -9 25 -25v-277c0 -79 12 -149 109 -149c115 0 186 101 186 210v216c0 16 9 25 25 25h19c16 0 24 -9 24 -25v-453c0 -16 -8 -25 -24 -25h-18c-16 0 -24 9 -24 25v58c0 20 3 36 3 36h-2c-19 -49 -87 -131 -198 -131
c-119 0 -168 64 -168 195zM154 588c-15 0 -22 9 -22 26c0 53 36 91 88 91c69 0 84 -72 129 -72c26 0 38 25 39 50c0 12 9 19 23 19h8c15 0 21 -8 21 -23c0 -58 -34 -94 -88 -94c-69 0 -84 71 -129 71c-26 0 -39 -25 -39 -51c-1 -11 -10 -17 -23 -17h-7z" />
    <glyph glyph-name="Umacron" unicode="&#x16a;" horiz-adv-x="715" 
d="M88 245v433c0 16 9 25 25 25h20c16 0 25 -9 25 -25v-432c0 -121 78 -193 199 -193s200 72 200 195v430c0 16 9 25 25 25h20c16 0 24 -9 24 -25v-433c0 -156 -109 -257 -268 -257c-160 0 -270 101 -270 257zM259 785c-16 0 -25 8 -25 24v7c0 16 9 24 25 24h197
c16 0 24 -8 24 -24v-7c0 -16 -8 -24 -24 -24h-197z" />
    <glyph glyph-name="umacron" unicode="&#x16b;" horiz-adv-x="580" 
d="M71 183v295c0 16 8 25 24 25h19c16 0 25 -9 25 -25v-277c0 -79 12 -149 109 -149c115 0 186 101 186 210v216c0 16 9 25 25 25h19c16 0 24 -9 24 -25v-453c0 -16 -8 -25 -24 -25h-18c-16 0 -24 9 -24 25v58c0 20 3 36 3 36h-2c-19 -49 -87 -131 -198 -131
c-119 0 -168 64 -168 195zM188 618c-16 0 -25 8 -25 24v7c0 16 9 24 25 24h197c16 0 24 -8 24 -24v-7c0 -16 -8 -24 -24 -24h-197z" />
    <glyph glyph-name="Ubreve" unicode="&#x16c;" horiz-adv-x="715" 
d="M88 245v433c0 16 9 25 25 25h20c16 0 25 -9 25 -25v-432c0 -121 78 -193 199 -193s200 72 200 195v430c0 16 9 25 25 25h20c16 0 24 -9 24 -25v-433c0 -156 -109 -257 -268 -257c-160 0 -270 101 -270 257zM356 749c-58 0 -115 42 -115 103c0 12 8 19 23 19h10
c15 0 21 -6 23 -18c4 -41 28 -57 59 -57s56 16 60 57c2 10 8 18 23 18h10c15 0 23 -5 23 -19c0 -58 -54 -103 -116 -103z" />
    <glyph glyph-name="ubreve" unicode="&#x16d;" horiz-adv-x="580" 
d="M71 183v295c0 16 8 25 24 25h19c16 0 25 -9 25 -25v-277c0 -79 12 -149 109 -149c115 0 186 101 186 210v216c0 16 9 25 25 25h19c16 0 24 -9 24 -25v-453c0 -16 -8 -25 -24 -25h-18c-16 0 -24 9 -24 25v58c0 20 3 36 3 36h-2c-19 -49 -87 -131 -198 -131
c-119 0 -168 64 -168 195zM285 582c-58 0 -115 42 -115 103c0 12 8 19 23 19h10c15 0 21 -6 23 -18c4 -41 28 -57 59 -57s56 16 60 57c2 10 8 18 23 18h10c15 0 23 -5 23 -19c0 -58 -54 -103 -116 -103z" />
    <glyph glyph-name="Uring" unicode="&#x16e;" horiz-adv-x="715" 
d="M356 741c-41 0 -75 29 -75 71s34 71 75 71s76 -29 76 -71s-35 -71 -76 -71zM356 779c20 0 33 14 33 33c0 20 -13 34 -33 34c-19 0 -32 -14 -32 -34c0 -19 13 -33 32 -33zM88 245v433c0 16 9 25 25 25h20c16 0 25 -9 25 -25v-432c0 -121 78 -193 199 -193s200 72 200 195
v430c0 16 9 25 25 25h20c16 0 24 -9 24 -25v-433c0 -156 -109 -257 -268 -257c-160 0 -270 101 -270 257z" />
    <glyph glyph-name="uring" unicode="&#x16f;" horiz-adv-x="580" 
d="M285 574c-41 0 -75 29 -75 71s34 71 75 71s76 -29 76 -71s-35 -71 -76 -71zM285 612c20 0 33 14 33 33c0 20 -13 34 -33 34c-19 0 -32 -14 -32 -34c0 -19 13 -33 32 -33zM71 183v295c0 16 8 25 24 25h19c16 0 25 -9 25 -25v-277c0 -79 12 -149 109 -149
c115 0 186 101 186 210v216c0 16 9 25 25 25h19c16 0 24 -9 24 -25v-453c0 -16 -8 -25 -24 -25h-18c-16 0 -24 9 -24 25v58c0 20 3 36 3 36h-2c-19 -49 -87 -131 -198 -131c-119 0 -168 64 -168 195z" />
    <glyph glyph-name="Uhungarumlaut" unicode="&#x170;" horiz-adv-x="715" 
d="M88 245v433c0 16 9 25 25 25h20c16 0 25 -9 25 -25v-432c0 -121 78 -193 199 -193s200 72 200 195v430c0 16 9 25 25 25h20c16 0 24 -9 24 -25v-433c0 -156 -109 -257 -268 -257c-160 0 -270 101 -270 257zM411 752c-20 0 -26 13 -17 29l44 73c7 12 16 17 29 17h22
c20 0 25 -13 13 -30l-52 -73c-9 -11 -17 -16 -30 -16h-9zM277 752c-19 0 -26 13 -17 29l40 72c6 12 15 18 29 18h15c20 0 26 -13 16 -29l-41 -72c-7 -12 -16 -18 -29 -18h-13z" />
    <glyph glyph-name="uhungarumlaut" unicode="&#x171;" horiz-adv-x="580" 
d="M71 183v295c0 16 8 25 24 25h19c16 0 25 -9 25 -25v-277c0 -79 12 -149 109 -149c115 0 186 101 186 210v216c0 16 9 25 25 25h19c16 0 24 -9 24 -25v-453c0 -16 -8 -25 -24 -25h-18c-16 0 -24 9 -24 25v58c0 20 3 36 3 36h-2c-19 -49 -87 -131 -198 -131
c-119 0 -168 64 -168 195zM340 585c-20 0 -26 13 -17 29l44 73c7 12 16 17 29 17h22c20 0 25 -13 13 -30l-52 -73c-9 -11 -17 -16 -30 -16h-9zM206 585c-19 0 -26 13 -17 29l40 72c6 12 15 18 29 18h15c20 0 26 -13 16 -29l-41 -72c-7 -12 -16 -18 -29 -18h-13z" />
    <glyph glyph-name="Uogonek" unicode="&#x172;" horiz-adv-x="715" 
d="M88 245v433c0 16 9 25 25 25h20c16 0 25 -9 25 -25v-432c0 -121 78 -193 199 -193s200 72 200 195v430c0 16 9 25 25 25h20c16 0 24 -9 24 -25v-433c0 -125 -64 -184 -130 -225c-50 -30 -108 -76 -108 -120c0 -30 28 -42 46 -48c12 -4 17 -12 14 -25l-2 -11
c-3 -14 -13 -20 -26 -18c-33 6 -94 27 -94 90c0 42 26 76 54 101c-167 -9 -292 91 -292 256z" />
    <glyph glyph-name="uogonek" unicode="&#x173;" horiz-adv-x="580" 
d="M71 183v295c0 16 8 25 24 25h19c16 0 25 -9 25 -25v-277c0 -79 12 -149 109 -149c115 0 186 101 186 210v216c0 16 9 25 25 25h19c16 0 24 -9 24 -25v-453c0 -39 -76 -64 -76 -125c0 -30 27 -42 46 -48c12 -4 16 -12 13 -25l-1 -11c-3 -14 -13 -20 -26 -18
c-33 6 -94 27 -94 90c0 53 49 100 78 119c-4 4 -6 9 -6 18v58c0 20 3 36 3 36h-2c-19 -49 -87 -131 -198 -131c-119 0 -168 64 -168 195z" />
    <glyph glyph-name="Wcircumflex" unicode="&#x174;" horiz-adv-x="930" 
d="M384 752c-19 0 -24 13 -13 30l52 73c8 11 17 16 30 16h37c14 0 22 -5 31 -16l51 -73c12 -17 7 -30 -11 -30h-17c-13 0 -20 5 -27 17l-44 64h-2l-44 -64c-7 -12 -14 -17 -28 -17h-15zM213 22l-170 654c-4 17 4 27 22 27h22c14 0 23 -7 27 -22l131 -524
c9 -36 16 -75 16 -75h2s7 39 17 75l145 525c4 14 13 21 27 21h23c15 0 23 -7 27 -21l144 -525c11 -36 18 -75 18 -75h2s6 39 15 75l137 524c4 15 13 22 27 22h22c17 0 26 -10 21 -27l-174 -655c-4 -14 -13 -21 -28 -21h-38c-15 0 -24 7 -28 21l-130 474
c-13 45 -25 105 -25 105h-3s-12 -60 -25 -105l-131 -474c-4 -14 -13 -21 -27 -21h-39c-15 0 -23 7 -27 22z" />
    <glyph glyph-name="wcircumflex" unicode="&#x175;" horiz-adv-x="796" 
d="M309 585c-19 0 -24 13 -13 30l52 73c8 11 17 16 30 16h37c14 0 22 -5 31 -16l51 -73c12 -17 7 -30 -11 -30h-17c-13 0 -20 5 -27 17l-44 64h-2l-44 -64c-7 -12 -14 -17 -28 -17h-15zM177 21l-154 454c-5 17 3 28 21 28h21c14 0 24 -6 28 -21l115 -354
c8 -24 15 -54 15 -54h2s8 30 16 54l117 353c4 14 14 20 28 20h24c14 0 24 -6 28 -20l117 -353c8 -24 16 -54 16 -54h2s6 29 15 54l115 354c4 15 14 21 28 21h21c18 0 25 -11 20 -28l-154 -454c-4 -15 -14 -21 -28 -21h-31c-15 0 -24 6 -28 21l-117 337c-8 25 -15 54 -15 54
h-2s-7 -29 -16 -54l-116 -337c-4 -15 -13 -21 -28 -21h-31c-15 0 -24 6 -29 21z" />
    <glyph glyph-name="Ycircumflex" unicode="&#x176;" horiz-adv-x="554" 
d="M243 25v277l-221 372c-10 16 -3 29 17 29h25c14 0 23 -6 29 -17l140 -238c21 -37 43 -84 43 -84h2s22 47 43 84l140 238c6 11 15 17 28 17h26c19 0 27 -13 17 -29l-220 -372v-277c0 -16 -9 -25 -25 -25h-20c-16 0 -24 9 -24 25zM189 752c-19 0 -24 13 -13 30l52 73
c8 11 17 16 30 16h37c14 0 22 -5 31 -16l51 -73c12 -17 7 -30 -11 -30h-17c-13 0 -20 5 -27 17l-44 64h-2l-44 -64c-7 -12 -14 -17 -28 -17h-15z" />
    <glyph glyph-name="ycircumflex" unicode="&#x177;" horiz-adv-x="491" 
d="M17 -149c7 13 18 16 30 12c11 -5 26 -13 44 -13c45 0 75 39 94 83l30 71l-198 470c-7 17 1 29 19 29h23c15 0 23 -6 28 -19l141 -348c9 -25 18 -53 18 -53h2s7 28 17 53l138 347c5 14 13 20 28 20h22c18 0 26 -11 20 -29l-237 -576c-26 -65 -78 -108 -145 -108
c-29 0 -53 10 -69 18c-13 6 -17 20 -11 32zM160 584c-19 0 -24 13 -13 30l52 73c8 11 17 16 30 16h37c14 0 22 -5 31 -16l51 -73c12 -17 7 -30 -11 -30h-17c-13 0 -20 5 -27 17l-44 64h-2l-44 -64c-7 -12 -14 -17 -28 -17h-15z" />
    <glyph glyph-name="Ydieresis" unicode="&#x178;" horiz-adv-x="554" 
d="M243 25v277l-221 372c-10 16 -3 29 17 29h25c14 0 23 -6 29 -17l140 -238c21 -37 43 -84 43 -84h2s22 47 43 84l140 238c6 11 15 17 28 17h26c19 0 27 -13 17 -29l-220 -372v-277c0 -16 -9 -25 -25 -25h-20c-16 0 -24 9 -24 25zM341 785c-16 0 -24 8 -24 24v37
c0 16 8 25 24 25h13c16 0 25 -9 25 -25v-37c0 -16 -9 -24 -25 -24h-13zM190 785c-16 0 -24 8 -24 24v37c0 16 8 25 24 25h13c16 0 24 -9 24 -25v-37c0 -16 -8 -24 -24 -24h-13z" />
    <glyph glyph-name="Zacute" unicode="&#x179;" horiz-adv-x="575" 
d="M298 752c-19 0 -26 13 -16 28l44 74c7 12 15 17 29 17h23c21 0 26 -13 14 -30l-53 -73c-8 -11 -17 -16 -30 -16h-11zM33 25v7c0 13 3 21 10 31l354 514c25 38 49 64 49 64v2s-17 -2 -52 -2h-317c-16 0 -24 9 -24 25v12c0 16 8 25 24 25h430c16 0 25 -9 25 -24v-8
c0 -12 -3 -21 -10 -31l-354 -514c-25 -38 -49 -64 -49 -64v-2s17 2 52 2h340c16 0 24 -9 24 -25v-12c0 -16 -8 -25 -24 -25h-453c-16 0 -25 9 -25 25z" />
    <glyph glyph-name="zacute" unicode="&#x17a;" horiz-adv-x="491" 
d="M242 585c-19 0 -26 13 -16 28l44 74c7 12 15 17 29 17h23c21 0 26 -13 14 -30l-53 -73c-8 -11 -17 -16 -30 -16h-11zM34 22v7c0 12 3 20 10 29l270 339c20 25 40 46 40 46v2s-17 -2 -50 -2h-234c-16 0 -24 9 -24 24v11c0 16 8 25 24 25h352c16 0 24 -8 24 -22v-7
c0 -12 -3 -20 -10 -29l-271 -339c-19 -25 -41 -46 -41 -46v-2s18 2 51 2h257c16 0 24 -9 24 -24v-11c0 -16 -8 -25 -24 -25h-374c-16 0 -24 8 -24 22z" />
    <glyph glyph-name="Zdotaccent" unicode="&#x17b;" horiz-adv-x="575" 
d="M33 25v7c0 13 3 21 10 31l354 514c25 38 49 64 49 64v2s-17 -2 -52 -2h-317c-16 0 -24 9 -24 25v12c0 16 8 25 24 25h430c16 0 25 -9 25 -24v-8c0 -12 -3 -21 -10 -31l-354 -514c-25 -38 -49 -64 -49 -64v-2s17 2 52 2h340c16 0 24 -9 24 -25v-12c0 -16 -8 -25 -24 -25
h-453c-16 0 -25 9 -25 25zM290 786c-16 0 -24 9 -24 25v35c0 16 8 25 24 25h17c16 0 24 -9 24 -25v-35c0 -16 -8 -25 -24 -25h-17z" />
    <glyph glyph-name="zdotaccent" unicode="&#x17c;" horiz-adv-x="491" 
d="M34 22v7c0 12 3 20 10 29l270 339c20 25 40 46 40 46v2s-17 -2 -50 -2h-234c-16 0 -24 9 -24 24v11c0 16 8 25 24 25h352c16 0 24 -8 24 -22v-7c0 -12 -3 -20 -10 -29l-271 -339c-19 -25 -41 -46 -41 -46v-2s18 2 51 2h257c16 0 24 -9 24 -24v-11c0 -16 -8 -25 -24 -25
h-374c-16 0 -24 8 -24 22zM236 619c-16 0 -24 9 -24 25v35c0 16 8 25 24 25h17c16 0 24 -9 24 -25v-35c0 -16 -8 -25 -24 -25h-17z" />
    <glyph glyph-name="Zcaron" unicode="&#x17d;" horiz-adv-x="575" 
d="M279 752c-13 0 -22 5 -30 16l-52 73c-11 17 -6 30 13 30h15c14 0 21 -5 28 -16l44 -64h2l44 64c7 11 14 16 27 16h16c19 0 24 -13 12 -30l-51 -73c-9 -11 -17 -16 -31 -16h-37zM33 25v7c0 13 3 21 10 31l354 514c25 38 49 64 49 64v2s-17 -2 -52 -2h-317
c-16 0 -24 9 -24 25v12c0 16 8 25 24 25h430c16 0 25 -9 25 -24v-8c0 -12 -3 -21 -10 -31l-354 -514c-25 -38 -49 -64 -49 -64v-2s17 2 52 2h340c16 0 24 -9 24 -25v-12c0 -16 -8 -25 -24 -25h-453c-16 0 -25 9 -25 25z" />
    <glyph glyph-name="zcaron" unicode="&#x17e;" horiz-adv-x="491" 
d="M226 585c-13 0 -22 5 -30 16l-52 73c-11 17 -6 30 13 30h15c14 0 21 -5 28 -16l44 -64h2l44 64c7 11 14 16 27 16h16c19 0 24 -13 12 -30l-51 -73c-9 -11 -17 -16 -31 -16h-37zM34 22v7c0 12 3 20 10 29l270 339c20 25 40 46 40 46v2s-17 -2 -50 -2h-234
c-16 0 -24 9 -24 24v11c0 16 8 25 24 25h352c16 0 24 -8 24 -22v-7c0 -12 -3 -20 -10 -29l-271 -339c-19 -25 -41 -46 -41 -46v-2s18 2 51 2h257c16 0 24 -9 24 -24v-11c0 -16 -8 -25 -24 -25h-374c-16 0 -24 8 -24 22z" />
    <glyph glyph-name="longs" unicode="&#x17f;" horiz-adv-x="240" 
d="M95 25v417h-40c-16 0 -24 8 -24 24v8c0 16 8 25 24 25h40v23c0 159 119 186 169 186h11c16 0 24 -9 24 -25v-12c0 -17 -9 -23 -27 -24c-43 -2 -109 -14 -109 -126v-496c0 -16 -9 -25 -25 -25h-19c-16 0 -24 9 -24 25z" />
    <glyph glyph-name="florin" unicode="&#x192;" horiz-adv-x="350" 
d="M-52 -43c9 -1 20 -3 39 -3c39 0 113 15 123 129l24 282h-65c-16 0 -24 8 -24 24v8c0 16 8 25 24 25h70l10 107c14 165 134 186 191 186c23 0 44 -3 59 -4c16 -2 23 -11 23 -26v-12c0 -16 -8 -24 -22 -22c-16 2 -38 4 -59 4c-39 0 -112 -15 -123 -129l-10 -104h101
c16 0 24 -9 24 -25v-8c0 -16 -8 -24 -24 -24h-106l-25 -285c-15 -166 -133 -186 -189 -186c-17 0 -32 1 -43 3c-15 1 -23 10 -23 26v11c0 16 10 25 25 23z" />
    <glyph glyph-name="Scommaaccent" unicode="&#x218;" horiz-adv-x="526" 
d="M229 -80c0 12 8 17 22 17h15c27 0 29 -30 29 -51c0 -35 -15 -92 -44 -92h-6c-14 0 -22 6 -22 16c0 12 10 22 10 63c0 30 -4 29 -4 47zM59 62c-10 10 -13 21 -3 35l12 15c10 12 21 13 35 3c24 -20 83 -61 162 -61c84 0 143 47 143 120c0 177 -350 135 -350 353
c0 115 97 188 220 188c84 0 145 -35 171 -55c12 -9 14 -20 6 -33l-9 -16c-9 -15 -22 -15 -35 -7c-25 17 -71 45 -135 45c-80 0 -147 -44 -147 -118c0 -169 350 -124 350 -350c0 -108 -80 -193 -214 -193c-103 0 -177 50 -206 74z" />
    <glyph glyph-name="scommaaccent" unicode="&#x219;" horiz-adv-x="431" 
d="M184 -80c0 12 8 17 22 17h15c27 0 29 -30 29 -51c0 -35 -15 -92 -44 -92h-6c-14 0 -22 6 -22 16c0 12 10 22 10 63c0 30 -4 29 -4 47zM50 46c-12 9 -13 21 -4 34l8 10c9 12 20 13 34 4c22 -17 68 -46 133 -46c56 0 102 28 102 81c0 113 -269 79 -269 245
c0 93 79 141 171 141c72 0 117 -26 138 -41c13 -8 15 -20 7 -33l-7 -11c-8 -14 -20 -15 -34 -7c-19 13 -55 32 -108 32s-99 -23 -99 -78c0 -116 268 -79 268 -247c0 -83 -70 -142 -170 -142c-88 0 -145 37 -170 58z" />
    <glyph glyph-name="uni021A" unicode="&#x21a;" horiz-adv-x="587" 
d="M261 -80c0 12 8 17 22 17h15c27 0 29 -30 29 -51c0 -35 -15 -92 -44 -92h-6c-14 0 -22 6 -22 16c0 12 10 22 10 63c0 30 -4 29 -4 47zM258 25v616h-227c-16 0 -25 9 -25 25v12c0 16 9 25 25 25h524c16 0 25 -9 25 -25v-12c0 -16 -9 -25 -25 -25h-228v-616
c0 -16 -8 -25 -24 -25h-20c-16 0 -25 9 -25 25z" />
    <glyph glyph-name="uni021B" unicode="&#x21b;" horiz-adv-x="320" 
d="M141 -80c0 12 8 17 22 17h15c27 0 29 -30 29 -51c0 -35 -15 -92 -44 -92h-6c-14 0 -22 6 -22 16c0 12 10 22 10 63c0 30 -4 29 -4 47zM97 181v261h-42c-16 0 -24 8 -24 24v8c0 16 8 25 24 25h43v118c0 16 9 25 25 25h18c16 0 24 -9 24 -25v-118h102c16 0 25 -9 25 -25v-8
c0 -16 -9 -24 -25 -24h-102v-252c0 -116 71 -130 110 -132c20 -2 27 -8 27 -25v-13c0 -16 -8 -24 -28 -24c-110 0 -177 67 -177 185z" />
    <glyph glyph-name="circumflex" unicode="&#x2c6;" horiz-adv-x="504" 
d="M164 752c-19 0 -24 13 -13 30l52 73c8 11 17 16 30 16h37c14 0 22 -5 31 -16l51 -73c12 -17 7 -30 -11 -30h-17c-13 0 -20 5 -27 17l-44 64h-2l-44 -64c-7 -12 -14 -17 -28 -17h-15z" />
    <glyph glyph-name="caron" unicode="&#x2c7;" horiz-adv-x="504" 
d="M233 752c-13 0 -22 5 -30 16l-52 73c-11 17 -6 30 13 30h15c14 0 21 -5 28 -16l44 -64h2l44 64c7 11 14 16 27 16h16c19 0 24 -13 12 -30l-51 -73c-9 -11 -17 -16 -31 -16h-37z" />
    <glyph glyph-name="breve" unicode="&#x2d8;" horiz-adv-x="505" 
d="M252 749c-58 0 -115 42 -115 103c0 12 8 19 23 19h10c15 0 21 -6 23 -18c4 -41 28 -57 59 -57s56 16 60 57c2 10 8 18 23 18h10c15 0 23 -5 23 -19c0 -58 -54 -103 -116 -103z" />
    <glyph glyph-name="dotaccent" unicode="&#x2d9;" horiz-adv-x="505" 
d="M244 786c-16 0 -24 9 -24 25v35c0 16 8 25 24 25h17c16 0 24 -9 24 -25v-35c0 -16 -8 -25 -24 -25h-17z" />
    <glyph glyph-name="ring" unicode="&#x2da;" horiz-adv-x="505" 
d="M252 741c-41 0 -75 29 -75 71s34 71 75 71s76 -29 76 -71s-35 -71 -76 -71zM252 779c20 0 33 14 33 33c0 20 -13 34 -33 34c-19 0 -32 -14 -32 -34c0 -19 13 -33 32 -33z" />
    <glyph glyph-name="ogonek" unicode="&#x2db;" horiz-adv-x="504" 
d="M178 -112c0 61 58 108 84 125c10 6 20 9 35 4c17 -5 19 -15 6 -26c-25 -21 -63 -55 -63 -91c0 -30 27 -42 46 -48c12 -4 16 -12 13 -25l-1 -11c-2 -14 -13 -20 -26 -18c-33 6 -94 27 -94 90z" />
    <glyph glyph-name="tilde" unicode="&#x2dc;" horiz-adv-x="504" 
d="M120 755c-15 0 -22 9 -22 26c0 53 36 91 88 91c69 0 84 -72 129 -72c26 0 38 25 39 50c0 12 9 19 23 19h8c15 0 21 -8 21 -23c0 -58 -34 -94 -88 -94c-69 0 -84 71 -129 71c-26 0 -39 -25 -39 -51c-1 -11 -10 -17 -23 -17h-7z" />
    <glyph glyph-name="hungarumlaut" unicode="&#x2dd;" horiz-adv-x="504" 
d="M279 752c-20 0 -26 13 -17 29l44 73c7 12 16 17 29 17h22c20 0 25 -13 13 -30l-52 -73c-9 -11 -17 -16 -30 -16h-9zM145 752c-19 0 -26 13 -17 29l40 72c6 12 15 18 29 18h15c20 0 26 -13 16 -29l-41 -72c-7 -12 -16 -18 -29 -18h-13z" />
    <glyph glyph-name="uni1E9E" unicode="&#x1e9e;" horiz-adv-x="663" 
d="M90 25v491c0 106 82 187 188 187h280c16 0 25 -8 25 -23v-10c0 -11 -3 -19 -10 -28l-147 -210c-17 -23 -26 -35 -26 -35v-2h31c103 -4 181 -93 181 -195c0 -110 -90 -200 -201 -200h-136c-16 0 -24 9 -24 25v12c0 16 8 25 24 25h132c78 0 133 63 133 138
s-54 137 -131 137h-66c-16 0 -25 8 -25 24v11c0 13 3 19 9 28l127 182c30 45 44 59 44 59v2s-12 -2 -43 -2h-172c-72 0 -123 -55 -123 -124v-492c0 -16 -9 -25 -24 -25h-21c-16 0 -25 9 -25 25z" />
    <glyph glyph-name="endash" unicode="&#x2013;" horiz-adv-x="640" 
d="M95 255c-16 0 -25 8 -25 24v9c0 16 9 25 25 25h450c16 0 25 -9 25 -25v-9c0 -16 -9 -24 -25 -24h-450z" />
    <glyph glyph-name="emdash" unicode="&#x2014;" horiz-adv-x="840" 
d="M95 255c-16 0 -25 8 -25 24v9c0 16 9 25 25 25h650c16 0 25 -9 25 -25v-9c0 -16 -9 -24 -25 -24h-650z" />
    <glyph glyph-name="quoteleft" unicode="&#x2018;" horiz-adv-x="201" 
d="M72 509c-18 0 -26 10 -20 27l49 156c5 14 14 20 28 20h7c17 0 24 -10 20 -27l-37 -155c-3 -14 -12 -21 -26 -21h-21z" />
    <glyph glyph-name="quoteright" unicode="&#x2019;" horiz-adv-x="199" 
d="M74 509c-18 0 -25 10 -21 27l37 155c3 14 12 21 27 21h20c18 0 26 -10 21 -27l-50 -156c-4 -14 -13 -20 -28 -20h-6z" />
    <glyph glyph-name="quotesinglbase" unicode="&#x201a;" horiz-adv-x="221" 
d="M43 -95l38 155c3 15 11 22 26 22h21c18 0 26 -11 20 -28l-49 -156c-5 -13 -14 -20 -28 -20h-7c-17 0 -24 10 -21 27z" />
    <glyph glyph-name="quotedblleft" unicode="&#x201c;" horiz-adv-x="329" 
d="M199 509c-17 0 -25 10 -20 27l50 156c4 14 13 20 27 20h7c18 0 24 -10 21 -27l-37 -155c-3 -14 -12 -21 -27 -21h-21zM72 509c-18 0 -26 10 -20 27l49 156c5 14 14 20 28 20h7c17 0 24 -10 21 -27l-38 -155c-3 -14 -11 -21 -26 -21h-21z" />
    <glyph glyph-name="quotedblright" unicode="&#x201d;" horiz-adv-x="327" 
d="M201 509c-17 0 -24 10 -20 27l37 155c3 14 11 21 26 21h21c18 0 26 -10 20 -27l-49 -156c-5 -14 -14 -20 -28 -20h-7zM74 509c-18 0 -25 10 -21 27l37 155c3 14 12 21 27 21h21c17 0 26 -10 20 -27l-50 -156c-4 -14 -13 -20 -27 -20h-7z" />
    <glyph glyph-name="quotedblbase" unicode="&#x201e;" horiz-adv-x="348" 
d="M171 -95l37 155c3 15 12 22 27 22h20c18 0 26 -11 21 -28l-50 -156c-4 -13 -13 -20 -28 -20h-6c-18 0 -25 10 -21 27zM43 -95l38 155c3 15 11 22 26 22h21c18 0 26 -11 20 -28l-49 -156c-5 -13 -14 -20 -28 -20h-7c-17 0 -25 10 -21 27z" />
    <glyph glyph-name="dagger" unicode="&#x2020;" horiz-adv-x="400" 
d="M165 -25v470h-92c-16 0 -25 9 -25 25v8c0 16 9 25 25 25h92v175c0 16 9 25 25 25h17c16 0 25 -9 25 -25v-175h97c16 0 24 -9 24 -25v-8c0 -16 -8 -25 -24 -25h-97v-470c0 -16 -9 -25 -25 -25h-17c-16 0 -25 9 -25 25z" />
    <glyph glyph-name="daggerdbl" unicode="&#x2021;" horiz-adv-x="412" 
d="M171 -25v204h-93c-16 0 -24 8 -24 24v9c0 16 8 25 24 25h93v208h-93c-16 0 -24 9 -24 25v8c0 16 8 25 24 25h93v175c0 16 8 25 24 25h18c16 0 24 -9 24 -25v-175h97c16 0 25 -9 25 -25v-8c0 -16 -9 -25 -25 -25h-97v-208h97c16 0 25 -9 25 -25v-9c0 -16 -9 -24 -25 -24
h-97v-204c0 -16 -8 -25 -24 -25h-18c-16 0 -24 9 -24 25z" />
    <glyph glyph-name="bullet" unicode="&#x2022;" horiz-adv-x="396" 
d="M198 148c-79 0 -143 64 -143 143s64 143 143 143s142 -64 142 -143s-63 -143 -142 -143z" />
    <glyph glyph-name="ellipsis" unicode="&#x2026;" horiz-adv-x="688" 
d="M539 25v34c0 15 9 24 24 24h32c16 0 24 -9 24 -24v-34c0 -16 -8 -25 -24 -25h-32c-15 0 -24 9 -24 25zM304 25v34c0 15 8 24 24 24h32c16 0 24 -9 24 -24v-34c0 -16 -8 -25 -24 -25h-32c-16 0 -24 9 -24 25zM69 25v34c0 15 8 24 24 24h32c16 0 24 -9 24 -24v-34
c0 -16 -8 -25 -24 -25h-32c-16 0 -24 9 -24 25z" />
    <glyph glyph-name="perthousand" unicode="&#x2030;" horiz-adv-x="1042" 
d="M193 437c-78 0 -141 62 -141 139c0 76 63 139 141 139c77 0 140 -63 140 -139c0 -77 -63 -139 -140 -139zM82 30l501 658c8 11 17 15 30 15h15c21 0 28 -13 15 -30l-501 -658c-8 -11 -17 -15 -30 -15h-16c-20 0 -27 13 -14 30zM193 493c46 0 81 37 81 83
c0 45 -35 83 -81 83s-81 -38 -81 -83c0 -46 35 -83 81 -83zM727 126c0 77 62 140 140 140c77 0 141 -63 141 -140c0 -76 -64 -138 -141 -138c-78 0 -140 62 -140 138zM390 126c0 77 63 140 141 140c77 0 141 -63 141 -140c0 -76 -64 -138 -141 -138c-78 0 -141 62 -141 138z
M786 127c0 -46 35 -83 81 -83s81 37 81 83c0 45 -35 83 -81 83s-81 -38 -81 -83zM450 127c0 -46 35 -83 81 -83s81 37 81 83c0 45 -35 83 -81 83s-81 -38 -81 -83z" />
    <glyph glyph-name="guilsinglleft" unicode="&#x2039;" horiz-adv-x="313" 
d="M188 91l-138 174c-10 11 -10 23 0 34l138 175c8 10 17 14 30 14h17c21 0 27 -13 14 -30l-140 -176l140 -175c13 -17 8 -30 -12 -30h-19c-13 0 -22 4 -30 14z" />
    <glyph glyph-name="guilsinglright" unicode="&#x203a;" horiz-adv-x="313" 
d="M79 77c-21 0 -27 13 -14 30l139 175l-139 176c-14 17 -8 30 13 30h18c13 0 21 -4 30 -14l138 -175c10 -11 10 -23 0 -34l-138 -174c-9 -10 -17 -14 -30 -14h-17z" />
    <glyph glyph-name="fraction" unicode="&#x2044;" horiz-adv-x="158" 
d="M-51 19c-5 -13 -14 -19 -28 -19h-10c-17 0 -23 12 -15 29l313 655c6 13 15 19 29 19h9c18 0 24 -12 15 -29z" />
    <glyph glyph-name="Euro" unicode="&#x20ac;" horiz-adv-x="595" 
d="M66 266c-18 0 -24 8 -24 25c0 18 6 26 24 26h31c-3 18 -3 57 1 81h-32c-17 0 -24 8 -24 25c0 18 6 26 24 26h41c38 155 170 266 335 266c29 0 54 -4 70 -6c16 -3 23 -14 19 -30l-5 -17c-4 -15 -13 -21 -27 -19c-14 3 -35 6 -58 6c-128 0 -226 -81 -260 -200h278
c18 0 26 -9 22 -27c-3 -17 -11 -24 -28 -24h-283c-5 -25 -4 -55 -1 -81h266c17 0 26 -9 22 -27s-11 -24 -28 -24h-249c30 -125 132 -212 263 -212c28 0 50 4 66 7c15 3 26 -2 29 -17l4 -18c4 -14 -2 -25 -18 -29c-18 -4 -47 -9 -82 -9c-170 0 -303 115 -337 278h-39z" />
    <glyph glyph-name="trademark" unicode="&#x2122;" horiz-adv-x="953" 
d="M449 291l32 389c1 15 10 23 25 23h7c15 0 23 -6 29 -19l107 -232c9 -19 14 -41 14 -41h2s5 22 14 41l107 232c5 13 14 19 29 19h7c15 0 24 -8 25 -23l32 -389c0 -17 -7 -26 -24 -26h-7c-15 0 -24 8 -25 23l-23 274c-1 15 1 29 1 29h-2l-104 -225c-5 -14 -14 -19 -28 -19
h-6c-14 0 -23 5 -29 19l-103 225h-2s2 -14 1 -29l-24 -274c-1 -15 -10 -23 -25 -23h-6c-17 0 -25 9 -24 26zM222 265c-16 0 -25 8 -25 24v362h-131c-16 0 -25 8 -25 24v4c0 16 9 24 25 24h320c16 0 25 -8 25 -24v-4c0 -16 -9 -24 -25 -24h-132v-362c0 -16 -9 -24 -25 -24h-7
z" />
    <glyph glyph-name="minus" unicode="&#x2212;" horiz-adv-x="606" 
d="M75 255c-16 0 -25 8 -25 24v9c0 16 9 25 25 25h456c16 0 25 -9 25 -25v-9c0 -16 -9 -24 -25 -24h-456z" />
    <glyph glyph-name="infinity" unicode="&#x221e;" horiz-adv-x="469" 
d="M235 176c-95 0 -173 78 -173 173c0 96 78 172 173 172c96 0 172 -76 172 -172c0 -95 -76 -173 -172 -173z" />
    <glyph glyph-name="approxequal" unicode="&#x2248;" horiz-adv-x="606" 
d="M75 341l-3 5c-9 13 -9 25 3 34c32 28 78 54 129 54c94 0 127 -70 198 -70c34 0 68 18 94 39c13 10 24 9 34 -3l4 -5c8 -13 8 -25 -4 -35c-32 -27 -78 -53 -128 -53c-94 0 -127 70 -198 70c-35 0 -69 -18 -94 -39c-14 -10 -25 -9 -35 3zM75 167l-3 5c-9 13 -9 25 3 35
c32 27 78 53 129 53c94 0 127 -70 198 -70c34 0 68 18 94 39c13 10 24 9 34 -3l4 -5c8 -13 8 -25 -4 -34c-32 -28 -78 -54 -128 -54c-94 0 -127 70 -198 70c-35 0 -69 -18 -94 -39c-14 -10 -25 -9 -35 3z" />
    <glyph glyph-name="notequal" unicode="&#x2260;" horiz-adv-x="606" 
d="M147 69c-14 9 -16 21 -7 34l48 65h-94c-16 0 -24 8 -24 24v9c0 16 8 25 24 25h135l85 116h-220c-16 0 -24 8 -24 24v9c0 16 8 25 24 25h261l72 96c9 13 21 16 35 5c14 -10 16 -20 9 -30l-53 -71h93c16 0 25 -9 25 -25v-9c0 -16 -9 -24 -25 -24h-133l-86 -116h219
c16 0 25 -9 25 -25v-9c0 -16 -9 -24 -25 -24h-260l-69 -94c-9 -13 -21 -16 -35 -5z" />
    <glyph glyph-name="lessequal" unicode="&#x2264;" horiz-adv-x="606" 
d="M82 250c-13 6 -19 15 -19 29v10c0 14 6 23 19 28l404 181c17 8 29 0 29 -18v-16c0 -14 -6 -23 -19 -28l-349 -151v-2l349 -151c13 -5 19 -14 19 -28v-16c0 -19 -12 -26 -29 -19zM88 -104h402c16 0 25 -9 25 -25v-9c0 -16 -9 -24 -25 -24h-402c-16 0 -24 8 -24 24v9
c0 16 8 25 24 25z" />
    <glyph glyph-name="greaterequal" unicode="&#x2265;" horiz-adv-x="606" 
d="M91 88v16c0 14 6 23 19 28l349 151v2l-349 151c-13 5 -19 14 -19 28v16c0 18 12 26 29 18l404 -181c13 -5 19 -14 19 -28v-10c0 -14 -6 -23 -19 -29l-404 -180c-17 -8 -29 0 -29 18zM115 -104h402c16 0 25 -9 25 -25v-9c0 -16 -9 -24 -25 -24h-402c-16 0 -25 8 -25 24v9
c0 16 9 25 25 25z" />
    <glyph glyph-name="commaaccent" unicode="&#xf6c3;" horiz-adv-x="335" 
d="M136 -80c0 12 8 17 22 17h15c27 0 29 -30 29 -51c0 -35 -15 -92 -44 -92h-6c-14 0 -22 6 -22 16c0 12 10 22 10 63c0 30 -4 29 -4 47z" />
    <glyph glyph-name="apple" unicode="&#xf8ff;" horiz-adv-x="1130" 
d="M168 -5v152l-126 72v278l126 71v151l265 142l134 -71l132 71l265 -142v-151l124 -71v-278l-124 -72v-152l-265 -141l-132 71l-134 -71zM208 30l238 -126l121 66l118 -66l238 126v139l114 64v249l-114 66v136l-238 126l-118 -64l-121 64l-238 -126v-136l-114 -66v-249
l114 -64v-139zM242 64v121l-99 60v225l99 58v123l215 114l110 -59l107 59l214 -114v-123l100 -58v-225l-100 -60v-121l-214 -114l-107 58l-110 -58zM443 91h60v217h218v53h-218v179h176c22 0 27 -7 27 -27v-38h56v64c0 38 -14 55 -56 55h-325v-54h62v-449z" />
    <glyph glyph-name="zero.tnum" 
d="M283 -12c-183 0 -243 160 -243 364c0 202 60 363 243 363s243 -161 243 -363c0 -204 -60 -364 -243 -364zM283 53c133 0 171 130 171 299c0 167 -38 298 -171 298s-171 -131 -171 -298c0 -169 38 -299 171 -299z" />
    <glyph glyph-name="one.tnum" 
d="M104 25v12c0 16 9 25 25 25h133v516c0 20 1 39 1 39h-2s-8 -15 -34 -41l-59 -58c-11 -12 -23 -11 -34 0l-9 10c-13 11 -12 23 -1 34l129 128c9 9 18 13 30 13h23c16 0 24 -9 24 -25v-616h130c16 0 25 -9 25 -25v-12c0 -16 -9 -25 -25 -25h-331c-16 0 -25 9 -25 25z" />
    <glyph glyph-name="two.tnum" 
d="M58 25v20c0 247 360 279 360 469c0 77 -57 135 -146 135c-75 0 -124 -50 -143 -76c-10 -12 -22 -16 -35 -6l-11 9c-12 9 -15 20 -6 33c24 35 88 106 199 106c134 0 215 -87 215 -197c0 -236 -356 -269 -358 -456h344c16 0 25 -9 25 -25v-12c0 -16 -9 -25 -25 -25h-392
c-16 0 -27 9 -27 25z" />
    <glyph glyph-name="three.tnum" 
d="M59 68c-12 11 -12 22 -2 35l12 15c10 12 21 12 34 2c25 -22 83 -66 161 -66c84 0 161 62 161 152c0 99 -85 150 -177 150h-28c-13 0 -22 5 -27 18l-3 5c-5 12 -3 22 6 33l163 191c18 22 37 39 37 39v2s-20 -3 -57 -3h-239c-16 0 -25 9 -25 25v12c0 16 9 25 25 25h361
c16 0 25 -8 25 -23v-5c0 -13 -3 -22 -11 -31l-199 -229c88 -5 220 -55 220 -207c0 -120 -98 -220 -231 -220c-103 0 -175 54 -206 80z" />
    <glyph glyph-name="four.tnum" 
d="M39 195c-16 0 -24 8 -24 24v4c0 12 2 21 9 30l326 435c8 10 16 15 30 15h31c16 0 24 -9 24 -25v-423h76c16 0 24 -8 24 -24v-12c0 -16 -7 -24 -22 -24h-78v-170c0 -16 -8 -25 -24 -25h-20c-16 0 -25 9 -25 25v170h-327zM98 255h268v295c0 30 4 67 4 67h-2
s-17 -29 -35 -54l-235 -306v-2z" />
    <glyph glyph-name="five.tnum" 
d="M71 70c-11 11 -10 24 0 34l12 14c11 11 23 11 34 0c21 -23 66 -64 142 -64c97 0 175 69 175 165s-78 166 -178 166c-52 0 -92 -20 -112 -30c-11 -6 -22 -7 -33 -3l-7 2c-13 5 -19 15 -18 29l33 297c2 15 10 23 26 23h292c16 0 25 -9 25 -25v-12c0 -16 -9 -25 -25 -25
h-255l-20 -180c-3 -25 -7 -40 -7 -40h2s44 27 107 27c141 0 242 -102 242 -229c0 -130 -107 -231 -244 -231c-103 0 -165 55 -191 82z" />
    <glyph glyph-name="six.tnum" 
d="M50 317c0 178 92 398 309 398c46 0 86 -11 106 -19c16 -6 20 -17 14 -32l-7 -16c-7 -16 -17 -18 -32 -14c-17 7 -45 16 -80 16c-148 0 -222 -146 -235 -284h2c34 50 103 84 181 84c127 0 217 -92 217 -225c0 -146 -98 -237 -221 -237c-153 0 -254 141 -254 329zM125 266
c0 -89 71 -213 178 -213c95 0 152 71 152 170s-63 165 -161 165c-94 0 -169 -63 -169 -122z" />
    <glyph glyph-name="seven.tnum" 
d="M133 29l270 547c19 38 38 65 38 65v2s-17 -2 -52 -2h-304c-16 0 -25 9 -25 25v12c0 16 9 25 25 25h407c16 0 25 -8 25 -23v-9c0 -12 -2 -20 -7 -31l-310 -622c-6 -12 -15 -18 -29 -18h-20c-19 0 -26 12 -18 29z" />
    <glyph glyph-name="eight.tnum" 
d="M45 198c0 120 100 185 117 196c-51 33 -89 76 -89 143c0 92 70 178 213 178c130 0 215 -73 215 -181c0 -103 -77 -182 -87 -192c59 -33 103 -78 103 -152c0 -109 -97 -202 -233 -202c-128 0 -239 83 -239 210zM357 369c11 11 75 77 75 158c0 79 -60 125 -146 125
c-91 0 -143 -52 -143 -115c0 -93 112 -123 214 -168zM116 203c0 -92 82 -152 167 -152c82 0 163 58 163 137c0 96 -111 120 -229 175c-20 -14 -101 -67 -101 -160z" />
    <glyph glyph-name="nine.tnum" 
d="M87 38l7 18c5 15 16 17 31 13c18 -7 45 -16 80 -16c149 0 223 146 235 284h-2c-35 -51 -106 -84 -182 -84c-125 0 -216 93 -216 226c0 146 98 236 221 236c153 0 254 -141 254 -329c0 -177 -92 -398 -309 -398c-46 0 -85 11 -106 19c-16 6 -20 16 -13 31zM272 315
c94 0 168 63 168 122c0 89 -71 213 -178 213c-95 0 -151 -71 -151 -170s62 -165 161 -165z" />
    <glyph glyph-name="hyphen.case" horiz-adv-x="424" 
d="M94 318c-16 0 -24 8 -24 24v13c0 16 8 25 24 25h235c16 0 24 -9 24 -25v-13c0 -16 -8 -24 -24 -24h-235z" />
    <glyph glyph-name="parenleft.case" horiz-adv-x="265" 
d="M160 -50c-64 117 -104 266 -104 417c0 138 37 263 103 376c7 13 16 17 29 17h11c19 0 26 -12 17 -29c-62 -113 -97 -235 -97 -364c0 -139 32 -276 98 -403c8 -17 2 -29 -16 -29h-12c-14 0 -23 4 -29 15z" />
    <glyph glyph-name="parenright.case" horiz-adv-x="265" 
d="M47 -35c66 126 98 264 98 402c0 129 -35 251 -97 364c-9 17 -3 29 15 29h13c13 0 22 -4 29 -17c66 -113 103 -238 103 -376c0 -151 -39 -298 -103 -415c-7 -12 -16 -17 -30 -17h-11c-19 0 -25 13 -17 30z" />
    <glyph glyph-name="bracketleft.case" horiz-adv-x="267" 
d="M87 -40v775c0 16 8 25 24 25h87c15 0 24 -9 24 -25v-6c0 -16 -8 -25 -24 -25h-48v-713h48c15 0 24 -9 24 -25v-6c0 -16 -9 -25 -24 -25h-87c-16 0 -24 9 -24 25z" />
    <glyph glyph-name="bracketright.case" horiz-adv-x="267" 
d="M45 -34c0 16 9 25 25 25h47v713h-47c-16 0 -25 9 -25 25v6c0 16 9 25 25 25h86c16 0 24 -9 24 -25v-775c0 -16 -8 -25 -24 -25h-86c-16 0 -25 9 -25 25v6z" />
    <glyph glyph-name="braceleft.case" horiz-adv-x="308" 
d="M115 113v95c0 72 -41 98 -65 108c-12 7 -20 13 -20 27v20c0 14 8 20 20 27c24 9 65 36 65 109v82c0 159 99 179 132 179h8c16 0 24 -8 24 -24v-9c0 -16 -8 -25 -24 -25c-21 0 -77 -9 -77 -125v-96c0 -98 -80 -127 -80 -127v-2s80 -25 80 -127v-109
c0 -116 56 -125 77 -125c16 0 24 -9 24 -24v-9c0 -16 -8 -25 -24 -25h-8c-33 0 -132 20 -132 180z" />
    <glyph glyph-name="braceright.case" horiz-adv-x="308" 
d="M28 -33c0 15 9 24 25 24c20 0 76 9 76 125v109c0 102 80 127 80 127v2s-80 29 -80 127v96c0 116 -56 125 -76 125c-16 0 -25 9 -25 25v9c0 16 9 24 25 24h7c34 0 132 -20 132 -179v-82c0 -73 41 -100 66 -109c12 -7 19 -13 19 -27v-20c0 -14 -7 -20 -20 -27
c-24 -10 -65 -36 -65 -108v-95c0 -160 -98 -180 -132 -180h-7c-16 0 -25 9 -25 25v9z" />
    <glyph glyph-name="at.case" horiz-adv-x="742" 
d="M41 350c0 204 159 367 356 367c181 0 245 -92 245 -189v-315h46c16 0 24 -9 24 -25v-6c0 -16 -8 -25 -24 -25h-244c-116 0 -200 88 -200 192c0 103 84 192 200 192h130c-3 62 -54 118 -172 118c-164 0 -291 -141 -291 -309c0 -162 114 -294 272 -305c15 -2 24 -10 24 -25
v-11c0 -16 -9 -25 -25 -24c-195 12 -341 169 -341 365zM314 350c0 -76 59 -137 136 -137h124v275h-122c-79 0 -138 -63 -138 -138z" />
    <glyph glyph-name="guillemotleft.case" horiz-adv-x="485" 
d="M221 325c-10 11 -10 23 0 34l138 175c8 10 17 14 30 14h17c21 0 27 -13 14 -30l-139 -176l139 -175c13 -17 8 -30 -12 -30h-19c-13 0 -22 4 -30 14zM179 151l-138 174c-10 11 -10 23 0 34l138 175c9 10 17 14 30 14h17c21 0 27 -13 14 -30l-139 -176l139 -175
c13 -17 8 -30 -12 -30h-19c-13 0 -21 4 -30 14z" />
    <glyph glyph-name="guillemotright.case" horiz-adv-x="486" 
d="M245 167l140 175l-140 176c-13 17 -8 30 13 30h18c13 0 22 -4 30 -14l138 -175c10 -11 10 -23 0 -34l-138 -174c-8 -10 -17 -14 -30 -14h-17c-21 0 -27 13 -14 30zM80 137c-22 0 -28 13 -15 30l140 175l-140 176c-13 17 -7 30 13 30h18c13 0 22 -4 30 -14l139 -175
c9 -11 9 -23 0 -34l-139 -174c-8 -10 -17 -14 -30 -14h-16z" />
    <glyph glyph-name="guilsinglleft.case" horiz-adv-x="305" 
d="M179 151l-138 174c-10 11 -10 23 0 34l138 175c9 10 17 14 30 14h17c21 0 27 -13 14 -30l-139 -176l139 -175c13 -17 8 -30 -12 -30h-19c-13 0 -21 4 -30 14z" />
    <glyph glyph-name="guilsinglright.case" horiz-adv-x="306" 
d="M80 137c-22 0 -28 13 -15 30l140 175l-140 176c-13 17 -7 30 13 30h18c13 0 22 -4 30 -14l139 -175c9 -11 9 -23 0 -34l-139 -174c-8 -10 -17 -14 -30 -14h-16z" />
    <glyph glyph-name="endash.case" horiz-adv-x="639" 
d="M94 315c-16 0 -25 8 -25 24v9c0 16 9 25 25 25h451c16 0 24 -9 24 -25v-9c0 -16 -8 -24 -24 -24h-451z" />
    <glyph glyph-name="emdash.case" horiz-adv-x="839" 
d="M94 315c-16 0 -25 8 -25 24v9c0 16 9 25 25 25h651c16 0 24 -9 24 -25v-9c0 -16 -8 -24 -24 -24h-651z" />
    <glyph glyph-name="periodcentered.case" horiz-adv-x="217" 
d="M94 306c-16 0 -24 9 -24 25v31c0 16 8 24 24 24h28c16 0 25 -8 25 -24v-31c0 -16 -9 -25 -25 -25h-28z" />
    <glyph glyph-name="questiondown.case" horiz-adv-x="411" 
d="M254 518c16 0 25 -9 25 -25v-23c0 -153 -175 -172 -175 -304c0 -64 54 -115 131 -115c44 0 81 17 101 29c13 7 26 7 34 -6l8 -12c10 -13 9 -25 -5 -34c-24 -16 -75 -42 -141 -42c-114 0 -200 73 -200 177c0 163 175 180 179 310l1 24c1 14 8 21 23 21h19zM284 677v-29
c0 -16 -8 -25 -24 -25h-30c-16 0 -24 9 -24 25v29c0 16 8 25 24 25h30c16 0 24 -9 24 -25z" />
    <glyph glyph-name="exclamdown.case" horiz-adv-x="248" 
d="M131 518c16 0 25 -9 25 -24l3 -470c0 -16 -9 -25 -25 -25h-21c-15 0 -24 9 -24 25l3 470c0 15 8 24 24 24h15zM162 677v-29c0 -16 -8 -25 -24 -25h-30c-16 0 -24 9 -24 25v29c0 16 8 25 24 25h30c16 0 24 -9 24 -25z" />
    <glyph glyph-name="bullet.case" horiz-adv-x="394" 
d="M198 208c-79 0 -143 64 -143 143s64 143 143 143s142 -64 142 -143s-63 -143 -142 -143z" />
    <glyph glyph-name="zero.p_osf" horiz-adv-x="606" 
d="M68 270c0 142 76 285 235 285s235 -143 235 -285s-75 -282 -235 -282s-235 141 -235 282zM138 272c0 -111 53 -223 165 -223s166 112 166 222c0 111 -54 223 -166 223s-165 -112 -165 -222z" />
    <glyph glyph-name="one.p_osf" horiz-adv-x="452" 
d="M65 25v11c0 15 8 24 24 24h131v360c0 27 1 53 1 53h-2s-15 -13 -38 -27l-85 -51c-13 -8 -24 -5 -33 8l-5 8c-9 13 -6 25 8 33l144 90c10 6 19 9 31 9h22c16 0 24 -9 24 -25v-458h115c16 0 24 -9 24 -24v-11c0 -16 -8 -25 -24 -25h-313c-16 0 -24 9 -24 25z" />
    <glyph glyph-name="two.p_osf" horiz-adv-x="538" 
d="M65 25v5c0 13 5 21 16 29c204 137 306 227 306 321c0 79 -62 113 -134 113c-63 0 -115 -39 -139 -61c-12 -9 -24 -9 -35 2l-7 10c-10 12 -11 24 1 34c28 26 94 77 188 77c130 0 196 -83 196 -167c0 -117 -93 -208 -283 -329v-2s19 3 56 3h229c16 0 24 -9 24 -24v-11
c0 -16 -8 -25 -24 -25h-369c-16 0 -25 9 -25 25z" />
    <glyph glyph-name="three.p_osf" horiz-adv-x="511" 
d="M44 -9c11 12 23 11 35 1c22 -20 73 -59 147 -59c83 0 160 54 160 143c0 96 -89 139 -176 139h-29c-14 0 -23 6 -29 21s-4 25 4 36l157 175c19 21 37 36 37 36v2s-20 -2 -57 -2h-207c-16 0 -24 8 -24 24v11c0 16 8 25 24 25h335c16 0 24 -7 24 -21v-4
c0 -12 -3 -21 -11 -30l-199 -216c87 -4 221 -46 221 -193c0 -123 -100 -207 -230 -207c-98 0 -162 49 -189 74c-12 10 -12 22 -2 35z" />
    <glyph glyph-name="four.p_osf" horiz-adv-x="577" 
d="M28 60v8c0 12 3 18 10 27l310 433c7 10 16 15 29 15h32c16 0 24 -9 24 -25v-421h83c16 0 25 -8 25 -24v-11c0 -16 -8 -25 -22 -25h-86v-128c0 -16 -8 -25 -24 -25h-19c-16 0 -25 9 -25 25v128h-312c-16 0 -25 8 -25 23zM110 97h255v295c0 30 4 67 4 67h-2
s-17 -34 -35 -59z" />
    <glyph glyph-name="five.p_osf" horiz-adv-x="520" 
d="M47 -11l10 10c10 11 22 10 34 0c21 -20 66 -57 136 -57c88 0 175 53 175 153c0 99 -85 151 -172 151c-50 0 -92 -18 -112 -28c-11 -4 -20 -5 -33 -1l-5 2c-14 4 -19 14 -18 28l33 273c2 15 10 23 26 23h280c16 0 25 -9 25 -25v-11c0 -16 -9 -24 -25 -24h-245l-20 -164
c-2 -23 -6 -38 -6 -38h2s46 24 109 24c124 0 231 -74 231 -207c0 -135 -107 -217 -241 -217c-98 0 -158 48 -183 74c-12 11 -11 24 -1 34z" />
    <glyph glyph-name="six.p_osf" horiz-adv-x="586" 
d="M61 289c0 169 90 382 306 382c47 0 86 -10 106 -18c15 -5 20 -17 13 -32l-6 -13c-6 -14 -17 -17 -31 -12c-17 5 -44 14 -80 14c-150 0 -224 -140 -236 -273h2c36 53 107 83 183 83c125 0 215 -85 215 -210c0 -137 -97 -222 -220 -222c-152 0 -252 128 -252 301zM135 246
c0 -83 69 -197 177 -197c96 0 152 68 152 159c0 92 -62 153 -161 153c-94 0 -168 -60 -168 -115z" />
    <glyph glyph-name="seven.p_osf" horiz-adv-x="510" 
d="M113 -87l257 510c18 36 35 60 35 60v2s-20 -2 -52 -2h-289c-16 0 -25 9 -25 24v11c0 16 9 25 25 25h394c16 0 25 -8 25 -22v-9c0 -12 -3 -19 -8 -29l-295 -581c-6 -12 -14 -18 -29 -18h-19c-20 0 -27 12 -19 29z" />
    <glyph glyph-name="eight.p_osf" horiz-adv-x="586" 
d="M61 189c0 103 96 165 118 180c-52 30 -89 71 -89 135c0 86 69 168 206 168c128 0 211 -70 211 -172c0 -96 -83 -172 -89 -178c59 -31 104 -74 104 -143c0 -103 -95 -191 -229 -191c-124 0 -232 76 -232 201zM362 349c11 9 77 69 77 148c0 71 -60 113 -143 113
c-86 0 -138 -47 -138 -107c0 -85 108 -113 204 -154zM130 192c0 -89 81 -143 163 -143s160 53 160 130c0 87 -119 114 -219 160c-20 -12 -104 -62 -104 -147z" />
    <glyph glyph-name="nine.p_osf" horiz-adv-x="581" 
d="M100 -65c6 14 13 19 20 17c10 -3 44 -19 92 -19c149 0 223 140 235 273h-2c-35 -53 -107 -83 -183 -83c-124 0 -215 85 -215 210c0 137 97 222 220 222c152 0 252 -128 252 -301c0 -169 -90 -382 -306 -382c-47 0 -86 10 -106 18c-15 5 -20 17 -12 32zM277 182
c94 0 169 60 169 115c0 83 -70 197 -178 197c-96 0 -151 -68 -151 -159c0 -92 62 -153 160 -153z" />
    <glyph glyph-name="zero.t_osf" 
d="M48 270c0 142 76 285 235 285s235 -143 235 -285s-75 -282 -235 -282s-235 141 -235 282zM118 272c0 -111 53 -223 165 -223s166 112 166 222c0 111 -54 223 -166 223s-165 -112 -165 -222z" />
    <glyph glyph-name="one.t_osf" 
d="M119 25v11c0 15 8 24 24 24h131v360c0 27 1 53 1 53h-2s-15 -13 -38 -27l-85 -51c-13 -8 -24 -5 -33 8l-5 8c-9 13 -6 25 8 33l144 90c10 6 19 9 31 9h22c16 0 24 -9 24 -25v-458h115c16 0 24 -9 24 -24v-11c0 -16 -8 -25 -24 -25h-313c-16 0 -24 9 -24 25z" />
    <glyph glyph-name="two.t_osf" 
d="M76 25v5c0 13 5 21 16 29c204 137 306 227 306 321c0 79 -62 113 -134 113c-63 0 -115 -39 -139 -61c-12 -9 -24 -9 -35 2l-7 10c-10 12 -11 24 1 34c28 26 94 77 188 77c130 0 196 -83 196 -167c0 -117 -93 -208 -283 -329v-2s19 3 56 3h229c16 0 24 -9 24 -24v-11
c0 -16 -8 -25 -24 -25h-369c-16 0 -25 9 -25 25z" />
    <glyph glyph-name="three.t_osf" 
d="M69 -9c11 12 23 11 35 1c22 -20 73 -59 147 -59c83 0 160 54 160 143c0 96 -89 139 -176 139h-29c-14 0 -23 6 -29 21s-4 25 4 36l157 175c19 21 37 36 37 36v2s-20 -2 -57 -2h-207c-16 0 -24 8 -24 24v11c0 16 8 25 24 25h335c16 0 24 -7 24 -21v-4
c0 -12 -3 -21 -11 -30l-199 -216c87 -4 221 -46 221 -193c0 -123 -100 -207 -230 -207c-98 0 -162 49 -189 74c-12 10 -12 22 -2 35z" />
    <glyph glyph-name="four.t_osf" 
d="M22 60v8c0 12 3 18 10 27l310 433c7 10 16 15 29 15h32c16 0 24 -9 24 -25v-421h83c16 0 25 -8 25 -24v-11c0 -16 -8 -25 -22 -25h-86v-128c0 -16 -8 -25 -24 -25h-19c-16 0 -25 9 -25 25v128h-312c-16 0 -25 8 -25 23zM104 97h255v295c0 30 4 67 4 67h-2
s-17 -34 -35 -59z" />
    <glyph glyph-name="five.t_osf" 
d="M69 -11l10 10c10 11 22 10 34 0c21 -20 66 -57 136 -57c88 0 175 53 175 153c0 99 -85 151 -172 151c-50 0 -92 -18 -112 -28c-11 -4 -20 -5 -33 -1l-5 2c-14 4 -19 14 -18 28l33 273c2 15 10 23 26 23h280c16 0 25 -9 25 -25v-11c0 -16 -9 -24 -25 -24h-245l-20 -164
c-2 -23 -6 -38 -6 -38h2s46 24 109 24c124 0 231 -74 231 -207c0 -135 -107 -217 -241 -217c-98 0 -158 48 -183 74c-12 11 -11 24 -1 34z" />
    <glyph glyph-name="six.t_osf" 
d="M51 289c0 169 90 382 306 382c47 0 86 -10 106 -18c15 -5 20 -17 13 -32l-6 -13c-6 -14 -17 -17 -31 -12c-17 5 -44 14 -80 14c-150 0 -224 -140 -236 -273h2c36 53 107 83 183 83c125 0 215 -85 215 -210c0 -137 -97 -222 -220 -222c-152 0 -252 128 -252 301zM125 246
c0 -83 69 -197 177 -197c96 0 152 68 152 159c0 92 -62 153 -161 153c-94 0 -168 -60 -168 -115z" />
    <glyph glyph-name="seven.t_osf" 
d="M139 -87l257 510c18 36 35 60 35 60v2s-20 -2 -52 -2h-289c-16 0 -25 9 -25 24v11c0 16 9 25 25 25h394c16 0 25 -8 25 -22v-9c0 -12 -3 -19 -8 -29l-295 -581c-6 -12 -14 -18 -29 -18h-19c-20 0 -27 12 -19 29z" />
    <glyph glyph-name="eight.t_osf" 
d="M51 189c0 103 96 165 118 180c-52 30 -89 71 -89 135c0 86 69 168 206 168c128 0 211 -70 211 -172c0 -96 -83 -172 -89 -178c59 -31 104 -74 104 -143c0 -103 -95 -191 -229 -191c-124 0 -232 76 -232 201zM352 349c11 9 77 69 77 148c0 71 -60 113 -143 113
c-86 0 -138 -47 -138 -107c0 -85 108 -113 204 -154zM120 192c0 -89 81 -143 163 -143s160 53 160 130c0 87 -119 114 -219 160c-20 -12 -104 -62 -104 -147z" />
    <glyph glyph-name="nine.t_osf" 
d="M91 -65c6 14 13 19 20 17c10 -3 44 -19 92 -19c149 0 223 140 235 273h-2c-35 -53 -107 -83 -183 -83c-124 0 -215 85 -215 210c0 137 97 222 220 222c152 0 252 -128 252 -301c0 -169 -90 -382 -306 -382c-47 0 -86 10 -106 18c-15 5 -20 17 -12 32zM268 182
c94 0 169 60 169 115c0 83 -70 197 -178 197c-96 0 -151 -68 -151 -159c0 -92 62 -153 160 -153z" />
    <glyph glyph-name="dollar.osf" horiz-adv-x="495" 
d="M55 68c-12 11 -12 23 -2 35l11 13c11 11 22 11 34 1c24 -23 78 -66 154 -66c67 0 122 34 122 97c0 129 -309 98 -309 281c0 94 73 147 164 156v62c0 16 8 24 24 24h8c16 0 24 -8 24 -22v-63c65 -6 107 -31 128 -46c12 -9 13 -21 6 -34l-8 -14c-9 -13 -20 -14 -34 -5
c-21 15 -61 37 -120 37c-63 0 -121 -26 -121 -94c0 -130 309 -95 309 -282c0 -87 -69 -151 -170 -158v-69c0 -16 -8 -24 -23 -24h-9c-16 0 -24 8 -24 22v71c-84 9 -140 55 -164 78z" />
    <glyph glyph-name="cent.osf" horiz-adv-x="545" 
d="M262 -1v58c-124 16 -215 109 -215 241c0 131 91 225 215 241v61c0 16 9 25 25 25h8c16 0 24 -7 24 -21v-63c79 -5 130 -42 153 -62c11 -9 14 -23 5 -34l-9 -12c-10 -12 -19 -14 -33 -4c-21 19 -65 50 -131 50c-106 0 -188 -74 -188 -180c0 -107 82 -181 188 -181
c66 0 110 31 131 50c13 10 24 9 33 -5l9 -12c8 -12 6 -24 -5 -33c-23 -20 -74 -58 -153 -63v-56c0 -16 -8 -25 -24 -25h-8c-16 0 -25 9 -25 25z" />
    <glyph glyph-name="sterling.osf" horiz-adv-x="582" 
d="M59 25v11c0 15 8 24 23 24h40v185h-24c-15 0 -22 8 -22 23v6c0 15 7 23 22 23h24v106c0 104 89 184 212 184c67 0 117 -24 143 -39c15 -8 17 -21 7 -34l-9 -12c-9 -13 -20 -14 -34 -7c-20 11 -59 29 -107 29c-91 0 -143 -58 -143 -125v-102h206c16 0 24 -8 24 -23v-6
c0 -15 -8 -23 -24 -23h-206v-185h314c16 0 25 -9 25 -24v-11c0 -16 -9 -25 -25 -25h-422c-16 0 -24 9 -24 25z" />
    <glyph glyph-name="yen.osf" horiz-adv-x="581" 
d="M114 149c-16 0 -25 8 -25 23v6c0 15 9 22 25 22h142v27l-32 53h-110c-16 0 -25 8 -25 23v6c0 15 9 22 25 22h80l-132 217c-11 16 -4 29 16 29h25c14 0 23 -5 29 -17l114 -192c21 -37 43 -83 43 -83h2s22 46 43 83l115 192c6 12 15 17 28 17h25c20 0 27 -13 17 -29
l-131 -217h79c16 0 24 -7 24 -22v-6c0 -15 -8 -23 -24 -23h-110l-32 -53v-27h142c16 0 24 -7 24 -22v-6c0 -15 -8 -23 -24 -23h-142v-124c0 -16 -8 -25 -24 -25h-20c-16 0 -25 9 -25 25v124h-142z" />
    <glyph glyph-name="florin.osf" horiz-adv-x="351" 
d="M-54 -65c8 -1 19 -2 42 -2c39 0 114 14 124 129l22 256h-65c-16 0 -25 9 -25 25v8c0 16 9 24 25 24h70l9 110c15 166 133 187 190 187c23 0 45 -3 60 -5c15 -1 23 -10 23 -26v-11c0 -16 -9 -24 -22 -22c-16 2 -38 3 -59 3c-40 0 -113 -14 -124 -129l-10 -107h101
c16 0 25 -8 25 -24v-8c0 -16 -9 -25 -25 -25h-106l-22 -259c-15 -167 -133 -187 -189 -187c-17 0 -32 1 -43 3c-15 1 -23 10 -23 26v11c0 16 8 25 22 23z" />
    <glyph glyph-name="Euro.osf" horiz-adv-x="587" 
d="M71 203c-16 0 -24 7 -24 21v7c0 15 8 21 24 21h41c-3 21 -4 45 -1 68h-40c-16 0 -24 7 -24 21v7c0 14 8 21 24 21h48c29 117 128 218 305 218c28 0 53 -4 69 -7c16 -2 22 -13 19 -29l-3 -13c-5 -15 -14 -20 -27 -18c-15 3 -36 6 -59 6c-129 0 -204 -71 -231 -157h250
c17 0 25 -9 22 -24l-1 -5c-3 -14 -12 -20 -26 -20h-257c-4 -22 -3 -49 1 -68h239c18 0 26 -8 23 -23l-1 -6c-4 -14 -12 -20 -27 -20h-220c27 -85 104 -153 229 -153c28 0 50 4 65 6c15 4 26 -2 29 -17l3 -13c3 -15 -2 -26 -18 -29c-17 -5 -46 -9 -79 -9
c-169 0 -270 97 -303 215h-50z" />
    <glyph glyph-name="zero.numerator" horiz-adv-x="390" 
d="M195 258c-115 0 -152 99 -152 228c0 128 37 227 152 227c116 0 153 -99 153 -227c0 -129 -37 -228 -153 -228zM195 310c74 0 96 77 96 176c0 98 -22 176 -96 176s-96 -78 -96 -176c0 -99 22 -176 96 -176z" />
    <glyph glyph-name="one.numerator" horiz-adv-x="289" 
d="M56 268c-16 0 -25 8 -25 24v3c0 15 8 23 23 23h72v289c0 13 1 24 1 24h-1s-4 -7 -20 -24l-27 -26c-9 -8 -19 -8 -28 1l-6 6c-10 11 -9 23 3 34l68 69c9 8 19 12 31 12h10c16 0 24 -8 24 -24v-361h68c16 0 24 -8 24 -23v-3c0 -16 -8 -24 -24 -24h-193z" />
    <glyph glyph-name="two.numerator" horiz-adv-x="348" 
d="M57 268c-15 0 -25 8 -25 30c0 169 216 174 216 287c0 42 -33 77 -82 77c-32 0 -58 -19 -72 -32c-12 -10 -23 -11 -34 -1l-2 2c-11 11 -13 24 -2 34c19 19 57 48 112 48c84 0 137 -55 137 -127c0 -147 -209 -154 -214 -268h197c16 0 24 -8 24 -23v-3c0 -16 -8 -24 -24 -24
h-231z" />
    <glyph glyph-name="three.numerator" horiz-adv-x="352" 
d="M164 258c-66 0 -107 30 -126 49c-12 10 -12 22 -2 33l4 4c10 12 20 11 33 2c16 -15 44 -36 90 -36s93 37 93 89c0 53 -49 84 -96 84h-16c-13 0 -21 5 -25 15c-5 11 -3 20 6 31l86 100c10 12 24 25 24 25v2s-18 -3 -37 -3h-129c-16 0 -24 8 -24 24v3c0 15 8 23 24 23h214
c16 0 25 -6 25 -18v-4c0 -11 -4 -18 -12 -27l-107 -125c56 -7 124 -42 124 -130c0 -77 -65 -141 -149 -141z" />
    <glyph glyph-name="four.numerator" horiz-adv-x="373" 
d="M253 268c-16 0 -24 9 -24 25v89h-187c-16 0 -25 7 -25 19v7c0 11 3 16 10 25l191 255c8 11 17 15 30 15h11c16 0 25 -8 25 -24v-247h43c16 0 23 -8 23 -23v-3c0 -15 -7 -24 -23 -24h-43v-89c0 -16 -9 -25 -25 -25h-6zM85 432h144v136c0 27 3 62 3 62h-2s-15 -27 -32 -49
l-113 -147v-2z" />
    <glyph glyph-name="five.numerator" horiz-adv-x="351" 
d="M162 258c-60 0 -99 32 -119 51c-12 11 -10 23 1 35l3 2c11 11 22 9 33 0c14 -15 40 -36 80 -36c55 0 101 41 101 95s-45 96 -102 96c-27 0 -49 -10 -61 -16c-12 -4 -22 -7 -33 -2s-16 14 -15 28l20 169c1 16 10 23 26 23h170c16 0 24 -8 24 -23v-3c0 -15 -8 -24 -24 -24
h-148l-8 -78c-3 -24 -6 -38 -6 -38h2s25 12 60 12c88 0 152 -65 152 -144c0 -80 -67 -147 -156 -147z" />
    <glyph glyph-name="six.numerator" horiz-adv-x="373" 
d="M198 258c-96 0 -158 84 -158 201c0 112 55 254 193 254c27 0 49 -6 63 -12c15 -5 19 -17 13 -31l-2 -4c-7 -14 -15 -17 -27 -13s-28 9 -48 9c-76 0 -120 -74 -131 -153h2c20 23 61 39 96 39c82 0 141 -57 141 -141c0 -94 -63 -149 -142 -149zM198 310c55 0 86 43 86 98
s-36 94 -92 94c-50 0 -94 -34 -94 -68c0 -51 38 -124 100 -124z" />
    <glyph glyph-name="seven.numerator" horiz-adv-x="327" 
d="M73 268c-20 0 -27 12 -17 29l158 299c17 32 33 57 33 57v2s-19 -2 -50 -2h-150c-16 0 -25 8 -25 24v3c0 15 9 23 25 23h241c16 0 24 -7 24 -18v-4c0 -12 -1 -20 -7 -30l-195 -366c-5 -11 -14 -17 -28 -17h-9z" />
    <glyph glyph-name="eight.numerator" horiz-adv-x="381" 
d="M191 257c-75 0 -152 46 -152 134c0 64 54 105 73 117c-31 21 -54 48 -54 92c0 74 67 112 135 112s137 -38 137 -115c0 -59 -48 -107 -57 -116c38 -21 67 -50 67 -99c0 -71 -67 -125 -149 -125zM231 502c12 12 44 47 44 93c0 45 -42 67 -83 67c-39 0 -79 -20 -79 -64
c0 -52 61 -70 118 -96zM191 307c45 0 92 31 92 76c0 55 -71 73 -132 103c-18 -14 -57 -45 -57 -93c0 -54 49 -86 97 -86z" />
    <glyph glyph-name="nine.numerator" horiz-adv-x="373" 
d="M77 270c-15 6 -19 17 -12 31l2 4c6 14 14 17 27 14c11 -4 27 -9 47 -9c76 0 120 73 132 153h-2c-21 -23 -62 -40 -97 -40c-82 0 -141 58 -141 141c0 94 63 149 142 149c96 0 158 -84 158 -200c0 -112 -54 -255 -192 -255c-28 0 -50 7 -64 12zM181 469c50 0 94 35 94 68
c0 51 -38 125 -100 125c-55 0 -86 -44 -86 -98c0 -56 37 -95 92 -95z" />
    <glyph glyph-name="zerosuperior" unicode="&#x2070;" horiz-adv-x="390" 
d="M195 413c-115 0 -152 99 -152 228c0 128 37 227 152 227c116 0 153 -99 153 -227c0 -129 -37 -228 -153 -228zM195 465c74 0 96 77 96 176c0 98 -22 176 -96 176s-96 -78 -96 -176c0 -99 22 -176 96 -176z" />
    <glyph glyph-name="foursuperior" unicode="&#x2074;" horiz-adv-x="372" 
d="M253 423c-16 0 -24 9 -24 25v89h-187c-16 0 -25 7 -25 19v7c0 11 3 16 10 25l191 255c8 11 17 15 30 15h11c16 0 25 -8 25 -24v-247h43c16 0 23 -8 23 -23v-3c0 -15 -7 -24 -23 -24h-43v-89c0 -16 -9 -25 -25 -25h-6zM85 587h144v136c0 27 3 62 3 62h-2s-15 -27 -32 -49
l-113 -147v-2z" />
    <glyph glyph-name="fivesuperior" unicode="&#x2075;" horiz-adv-x="351" 
d="M162 413c-60 0 -99 32 -119 51c-12 11 -10 23 1 35l3 2c11 11 22 9 33 0c14 -15 40 -36 80 -36c55 0 101 41 101 95s-45 96 -102 96c-27 0 -49 -10 -61 -16c-12 -4 -22 -7 -33 -2s-16 14 -15 28l20 169c1 16 10 23 26 23h170c16 0 24 -8 24 -23v-3c0 -15 -8 -24 -24 -24
h-148l-8 -78c-3 -24 -6 -38 -6 -38h2s25 12 60 12c88 0 152 -65 152 -144c0 -80 -67 -147 -156 -147z" />
    <glyph glyph-name="sixsuperior" unicode="&#x2076;" horiz-adv-x="373" 
d="M198 413c-96 0 -158 84 -158 201c0 112 55 254 193 254c27 0 49 -6 63 -12c15 -5 19 -17 13 -31l-2 -4c-7 -14 -15 -17 -27 -13s-28 9 -48 9c-76 0 -120 -74 -131 -153h2c20 23 61 39 96 39c82 0 141 -57 141 -141c0 -94 -63 -149 -142 -149zM198 465c55 0 86 43 86 98
s-36 94 -92 94c-50 0 -94 -34 -94 -68c0 -51 38 -124 100 -124z" />
    <glyph glyph-name="sevensuperior" unicode="&#x2077;" horiz-adv-x="327" 
d="M73 423c-20 0 -27 12 -17 29l158 299c17 32 33 57 33 57v2s-19 -2 -50 -2h-150c-16 0 -25 8 -25 24v3c0 15 9 23 25 23h241c16 0 24 -7 24 -18v-4c0 -12 -1 -20 -7 -30l-195 -366c-5 -11 -14 -17 -28 -17h-9z" />
    <glyph glyph-name="eightsuperior" unicode="&#x2078;" horiz-adv-x="381" 
d="M191 413c-75 0 -152 46 -152 134c0 64 54 105 73 117c-31 21 -54 48 -54 92c0 74 67 112 135 112s137 -38 137 -115c0 -59 -48 -107 -57 -116c38 -21 67 -50 67 -99c0 -71 -67 -125 -149 -125zM231 658c12 12 44 47 44 93c0 45 -42 67 -83 67c-39 0 -79 -20 -79 -64
c0 -52 61 -70 118 -96zM191 463c45 0 92 31 92 76c0 55 -71 73 -132 103c-18 -14 -57 -45 -57 -93c0 -54 49 -86 97 -86z" />
    <glyph glyph-name="ninesuperior" unicode="&#x2079;" horiz-adv-x="373" 
d="M77 425c-15 6 -19 17 -12 31l2 4c6 14 14 17 27 14c11 -4 27 -9 47 -9c76 0 120 73 132 153h-2c-21 -23 -62 -40 -97 -40c-82 0 -141 58 -141 141c0 94 63 149 142 149c96 0 158 -84 158 -200c0 -112 -54 -255 -192 -255c-28 0 -50 7 -64 12zM181 624c50 0 94 35 94 68
c0 51 -38 125 -100 125c-55 0 -86 -44 -86 -98c0 -56 37 -95 92 -95z" />
    <glyph glyph-name="zeroinferior" unicode="&#x2080;" horiz-adv-x="390" 
d="M195 -167c-115 0 -152 99 -152 228c0 128 37 227 152 227c116 0 153 -99 153 -227c0 -129 -37 -228 -153 -228zM195 -115c74 0 96 77 96 176c0 98 -22 176 -96 176s-96 -78 -96 -176c0 -99 22 -176 96 -176z" />
    <glyph glyph-name="oneinferior" unicode="&#x2081;" horiz-adv-x="289" 
d="M56 -157c-16 0 -25 8 -25 24v3c0 15 8 23 23 23h72v289c0 13 1 24 1 24h-1s-4 -7 -20 -24l-27 -26c-9 -8 -19 -8 -28 1l-6 6c-10 11 -9 23 3 34l68 69c9 8 19 12 31 12h10c16 0 24 -8 24 -24v-361h68c16 0 24 -8 24 -23v-3c0 -16 -8 -24 -24 -24h-193z" />
    <glyph glyph-name="twoinferior" unicode="&#x2082;" horiz-adv-x="348" 
d="M57 -157c-15 0 -25 8 -25 30c0 169 216 174 216 287c0 42 -33 77 -82 77c-32 0 -58 -19 -72 -32c-12 -10 -23 -11 -34 -1l-2 2c-11 11 -13 24 -2 34c19 19 57 48 112 48c84 0 137 -55 137 -127c0 -147 -209 -154 -214 -268h197c16 0 24 -8 24 -23v-3
c0 -16 -8 -24 -24 -24h-231z" />
    <glyph glyph-name="threeinferior" unicode="&#x2083;" horiz-adv-x="352" 
d="M164 -167c-66 0 -107 30 -126 49c-12 10 -12 22 -2 33l4 4c10 12 20 11 33 2c16 -15 44 -36 90 -36s93 37 93 89c0 53 -49 84 -96 84h-16c-13 0 -21 5 -25 15c-5 11 -3 20 6 31l86 100c10 12 24 25 24 25v2s-18 -3 -37 -3h-129c-16 0 -24 8 -24 24v3c0 15 8 23 24 23h214
c16 0 25 -6 25 -18v-4c0 -11 -4 -18 -12 -27l-107 -125c56 -7 124 -42 124 -130c0 -77 -65 -141 -149 -141z" />
    <glyph glyph-name="fourinferior" unicode="&#x2084;" horiz-adv-x="372" 
d="M253 -157c-16 0 -24 9 -24 25v89h-187c-16 0 -25 7 -25 19v7c0 11 3 16 10 25l191 255c8 11 17 15 30 15h11c16 0 25 -8 25 -24v-247h43c16 0 23 -8 23 -23v-3c0 -15 -7 -24 -23 -24h-43v-89c0 -16 -9 -25 -25 -25h-6zM85 7h144v136c0 27 3 62 3 62h-2s-15 -27 -32 -49
l-113 -147v-2z" />
    <glyph glyph-name="fiveinferior" unicode="&#x2085;" horiz-adv-x="351" 
d="M162 -167c-60 0 -99 32 -119 51c-12 11 -10 23 1 35l3 2c11 11 22 9 33 0c14 -15 40 -36 80 -36c55 0 101 41 101 95s-45 96 -102 96c-27 0 -49 -10 -61 -16c-12 -4 -22 -7 -33 -2s-16 14 -15 28l20 169c1 16 10 23 26 23h170c16 0 24 -8 24 -23v-3c0 -15 -8 -24 -24 -24
h-148l-8 -78c-3 -24 -6 -38 -6 -38h2s25 12 60 12c88 0 152 -65 152 -144c0 -80 -67 -147 -156 -147z" />
    <glyph glyph-name="sixinferior" unicode="&#x2086;" horiz-adv-x="373" 
d="M198 -167c-96 0 -158 84 -158 201c0 112 55 254 193 254c27 0 49 -6 63 -12c15 -5 19 -17 13 -31l-2 -4c-7 -14 -15 -17 -27 -13s-28 9 -48 9c-76 0 -120 -74 -131 -153h2c20 23 61 39 96 39c82 0 141 -57 141 -141c0 -94 -63 -149 -142 -149zM198 -115c55 0 86 43 86 98
s-36 94 -92 94c-50 0 -94 -34 -94 -68c0 -51 38 -124 100 -124z" />
    <glyph glyph-name="seveninferior" unicode="&#x2087;" horiz-adv-x="327" 
d="M73 -157c-20 0 -27 12 -17 29l158 299c17 32 33 57 33 57v2s-19 -2 -50 -2h-150c-16 0 -25 8 -25 24v3c0 15 9 23 25 23h241c16 0 24 -7 24 -18v-4c0 -12 -1 -20 -7 -30l-195 -366c-5 -11 -14 -17 -28 -17h-9z" />
    <glyph glyph-name="eightinferior" unicode="&#x2088;" horiz-adv-x="381" 
d="M191 -166c-75 0 -152 46 -152 134c0 64 54 105 73 117c-31 21 -54 48 -54 92c0 74 67 112 135 112s137 -38 137 -115c0 -59 -48 -107 -57 -116c38 -21 67 -50 67 -99c0 -71 -67 -125 -149 -125zM231 79c12 12 44 47 44 93c0 45 -42 67 -83 67c-39 0 -79 -20 -79 -64
c0 -52 61 -70 118 -96zM191 -116c45 0 92 31 92 76c0 55 -71 73 -132 103c-18 -14 -57 -45 -57 -93c0 -54 49 -86 97 -86z" />
    <glyph glyph-name="nineinferior" unicode="&#x2089;" horiz-adv-x="373" 
d="M77 -155c-15 6 -19 17 -12 31l2 4c6 14 14 17 27 14c11 -4 27 -9 47 -9c76 0 120 73 132 153h-2c-21 -23 -62 -40 -97 -40c-82 0 -141 58 -141 141c0 94 63 149 142 149c96 0 158 -84 158 -200c0 -112 -54 -255 -192 -255c-28 0 -50 7 -64 12zM181 44c50 0 94 35 94 68
c0 51 -38 125 -100 125c-55 0 -86 -44 -86 -98c0 -56 37 -95 92 -95z" />
    <glyph glyph-name="zero.denominator" horiz-adv-x="390" 
d="M195 -10c-115 0 -152 99 -152 228c0 128 37 227 152 227c116 0 153 -99 153 -227c0 -129 -37 -228 -153 -228zM195 42c74 0 96 77 96 176c0 98 -22 176 -96 176s-96 -78 -96 -176c0 -99 22 -176 96 -176z" />
    <glyph glyph-name="one.denominator" horiz-adv-x="289" 
d="M56 0c-16 0 -25 8 -25 24v3c0 15 8 23 23 23h72v289c0 13 1 24 1 24h-1s-4 -7 -20 -24l-27 -26c-9 -8 -19 -8 -28 1l-6 6c-10 11 -9 23 3 34l68 69c9 8 19 12 31 12h10c16 0 24 -8 24 -24v-361h68c16 0 24 -8 24 -23v-3c0 -16 -8 -24 -24 -24h-193z" />
    <glyph glyph-name="two.denominator" horiz-adv-x="348" 
d="M57 0c-15 0 -25 8 -25 30c0 169 216 174 216 287c0 42 -33 77 -82 77c-32 0 -58 -19 -72 -32c-12 -10 -23 -11 -34 -1l-2 2c-11 11 -13 24 -2 34c19 19 57 48 112 48c84 0 137 -55 137 -127c0 -147 -209 -154 -214 -268h197c16 0 24 -8 24 -23v-3c0 -16 -8 -24 -24 -24
h-231z" />
    <glyph glyph-name="three.denominator" horiz-adv-x="353" 
d="M164 -10c-66 0 -107 30 -126 49c-12 10 -12 22 -2 33l4 4c10 12 20 11 33 2c16 -15 44 -36 90 -36s93 37 93 89c0 53 -49 84 -96 84h-16c-13 0 -21 5 -25 15c-5 11 -3 20 6 31l86 100c10 12 24 25 24 25v2s-18 -3 -37 -3h-129c-16 0 -24 8 -24 24v3c0 15 8 23 24 23h214
c16 0 25 -6 25 -18v-4c0 -11 -4 -18 -12 -27l-107 -125c56 -7 124 -42 124 -130c0 -77 -65 -141 -149 -141z" />
    <glyph glyph-name="four.denominator" horiz-adv-x="372" 
d="M253 0c-16 0 -24 9 -24 25v89h-187c-16 0 -25 7 -25 19v7c0 11 3 16 10 25l191 255c8 11 17 15 30 15h11c16 0 25 -8 25 -24v-247h43c16 0 23 -8 23 -23v-3c0 -15 -7 -24 -23 -24h-43v-89c0 -16 -9 -25 -25 -25h-6zM85 164h144v136c0 27 3 62 3 62h-2s-15 -27 -32 -49
l-113 -147v-2z" />
    <glyph glyph-name="five.denominator" horiz-adv-x="351" 
d="M162 -10c-60 0 -99 32 -119 51c-12 11 -10 23 1 35l3 2c11 11 22 9 33 0c14 -15 40 -36 80 -36c55 0 101 41 101 95s-45 96 -102 96c-27 0 -49 -10 -61 -16c-12 -4 -22 -7 -33 -2s-16 14 -15 28l20 169c1 16 10 23 26 23h170c16 0 24 -8 24 -23v-3c0 -15 -8 -24 -24 -24
h-148l-8 -78c-3 -24 -6 -38 -6 -38h2s25 12 60 12c88 0 152 -65 152 -144c0 -80 -67 -147 -156 -147z" />
    <glyph glyph-name="six.denominator" horiz-adv-x="373" 
d="M198 -10c-96 0 -158 84 -158 201c0 112 55 254 193 254c27 0 49 -6 63 -12c15 -5 19 -17 13 -31l-2 -4c-7 -14 -15 -17 -27 -13s-28 9 -48 9c-76 0 -120 -74 -131 -153h2c20 23 61 39 96 39c82 0 141 -57 141 -141c0 -94 -63 -149 -142 -149zM198 42c55 0 86 43 86 98
s-36 94 -92 94c-50 0 -94 -34 -94 -68c0 -51 38 -124 100 -124z" />
    <glyph glyph-name="seven.denominator" horiz-adv-x="327" 
d="M73 0c-20 0 -27 12 -17 29l158 299c17 32 33 57 33 57v2s-19 -2 -50 -2h-150c-16 0 -25 8 -25 24v3c0 15 9 23 25 23h241c16 0 24 -7 24 -18v-4c0 -12 -1 -20 -7 -30l-195 -366c-5 -11 -14 -17 -28 -17h-9z" />
    <glyph glyph-name="eight.denominator" horiz-adv-x="381" 
d="M191 -10c-75 0 -152 46 -152 134c0 64 54 105 73 117c-31 21 -54 48 -54 92c0 74 67 112 135 112s137 -38 137 -115c0 -59 -48 -107 -57 -116c38 -21 67 -50 67 -99c0 -71 -67 -125 -149 -125zM231 235c12 12 44 47 44 93c0 45 -42 67 -83 67c-39 0 -79 -20 -79 -64
c0 -52 61 -70 118 -96zM191 40c45 0 92 31 92 76c0 55 -71 73 -132 103c-18 -14 -57 -45 -57 -93c0 -54 49 -86 97 -86z" />
    <glyph glyph-name="nine.denominator" horiz-adv-x="373" 
d="M77 2c-15 6 -19 17 -12 31l2 4c6 14 14 17 27 14c11 -4 27 -9 47 -9c76 0 120 73 132 153h-2c-21 -23 -62 -40 -97 -40c-82 0 -141 58 -141 141c0 94 63 149 142 149c96 0 158 -84 158 -200c0 -112 -54 -255 -192 -255c-28 0 -50 7 -64 12zM181 201c50 0 94 35 94 68
c0 51 -38 125 -100 125c-55 0 -86 -44 -86 -98c0 -56 37 -95 92 -95z" />
    <glyph glyph-name="thinspace" unicode="&#x2009;" horiz-adv-x="20" 
 />
    <glyph glyph-name="uni00A0" unicode="&#xa0;" horiz-adv-x="250" 
 />
    <glyph glyph-name="uni00AD" unicode="&#xad;" horiz-adv-x="423" 
d="M94 253c-16 0 -24 8 -24 24v13c0 16 8 25 24 25h235c16 0 24 -9 24 -25v-13c0 -16 -8 -24 -24 -24h-235z" />
    </font>
</defs>
</svg>
